<?xml version="1.0" encoding="UTF-8" standalone="no"?>
<svg width="80px" height="80px" viewBox="0 0 80 80" version="1.1" xmlns="http://www.w3.org/2000/svg" xmlns:xlink="http://www.w3.org/1999/xlink">
    <!-- Generator: Sketch 40 (33762) - http://www.bohemiancoding.com/sketch -->
    <title>btn_purchase</title>
    <desc>Created with Sketch.</desc>
    <defs></defs>
    <g id="Page-1" stroke="none" stroke-width="1" fill="none" fill-rule="evenodd">
        <g id="btn_purchase">
            <g id="Compass">
                <g id="Group" transform="translate(14.000000, 10.000000)">
                    <path d="M1.878,33.75 C1.878,47.2102839 12.7897161,58.122 26.25,58.122 C39.7102839,58.122 50.622,47.2102839 50.622,33.75 C50.622,20.2897161 39.7102839,9.378 26.25,9.378 C12.7897161,9.378 1.878,20.2897161 1.878,33.75 L1.878,33.75 Z" id="Shape" fill="#F0EEE2"></path>
                    <path d="M22.83,30.468 C21.36,31.926 17.85,39.546 15.834,44.154 C20.472,42.156 28.146,38.67 29.616,37.212 C31.086,35.754 34.596,28.134 36.606,23.526 C31.974,25.524 24.3,29.01 22.83,30.468 L22.83,30.468 Z" id="Shape" fill="#BBAA9C"></path>
                    <path d="M14.052,45.948 C14.052,45.948 28.068,40.062 30.312,37.818 C32.556,35.574 38.442,21.558 38.442,21.558 C38.442,21.558 24.426,27.444 22.182,29.688 C19.938,31.932 14.052,45.948 14.052,45.948 Z M34.752,25.248 C32.544,30.192 29.994,35.424 28.956,36.462 C27.918,37.5 22.686,40.05 17.742,42.258 C19.95,37.314 22.5,32.082 23.538,31.044 C24.576,30.006 29.814,27.45 34.752,25.248 Z M44.832,15.21 C44.826,15.204 44.82,15.192 44.814,15.186 C44.808,15.18 44.796,15.174 44.79,15.162 C41.118,11.496 36.438,9 31.35,7.998 C32.658,5.178 31.434,1.836 28.62,0.528 C25.8,-0.78 22.458,0.444 21.15,3.258 C20.454,4.758 20.454,6.492 21.15,7.998 C16.062,9.006 11.388,11.502 7.716,15.168 C7.71,15.174 7.698,15.18 7.692,15.192 C7.686,15.204 7.68,15.204 7.674,15.216 C2.754,20.13 -0.006,26.802 0.006,33.756 C-5.10693918e-14,48.246 11.754,60 26.25,60 C40.746,60 52.5,48.246 52.5,33.75 C52.506,26.796 49.752,20.124 44.832,15.21 L44.832,15.21 Z M26.25,3.75 C27.288,3.75 28.122,4.59 28.122,5.622 C28.122,6.654 27.288,7.5 26.25,7.5 C25.212,7.5 24.378,6.66 24.378,5.628 C24.378,4.596 25.212,3.75 26.25,3.75 L26.25,3.75 Z M42.81,48.984 L42.162,48.336 C41.796,47.97 41.202,47.97 40.836,48.336 C40.47,48.702 40.47,49.296 40.836,49.662 L41.484,50.31 C37.572,53.916 32.508,56.016 27.192,56.232 L27.192,55.314 C27.18,54.798 26.748,54.39 26.232,54.402 C25.734,54.414 25.332,54.816 25.32,55.314 L25.32,56.232 C20.004,56.016 14.934,53.916 11.028,50.31 L11.676,49.662 C12.042,49.296 12.042,48.702 11.676,48.336 C11.31,47.97 10.716,47.97 10.35,48.336 L9.69,48.984 C6.084,45.072 3.984,40.008 3.768,34.692 L4.686,34.692 C5.202,34.692 5.622,34.272 5.622,33.756 C5.622,33.24 5.202,32.82 4.686,32.82 L3.768,32.82 C3.984,27.504 6.084,22.434 9.69,18.528 L10.338,19.176 C10.704,19.542 11.298,19.542 11.664,19.176 C12.03,18.81 12.03,18.216 11.664,17.85 L11.016,17.202 C14.928,13.596 19.992,11.496 25.308,11.28 L25.308,12.198 C25.32,12.714 25.752,13.122 26.268,13.11 C26.766,13.098 27.168,12.696 27.18,12.198 L27.18,11.28 C32.496,11.496 37.566,13.596 41.472,17.202 L40.83,17.838 C40.464,18.204 40.464,18.798 40.83,19.164 C41.196,19.53 41.79,19.53 42.156,19.164 L42.81,18.516 C46.416,22.428 48.516,27.492 48.732,32.808 L47.814,32.808 C47.298,32.808 46.878,33.228 46.878,33.744 C46.878,34.26 47.298,34.68 47.814,34.68 L48.732,34.68 C48.516,40.002 46.416,45.072 42.81,48.984 Z" id="Shape" fill="#5F4E56"></path>
                </g>
            </g>
        </g>
    </g>
</svg>