<?xml version="1.0" encoding="UTF-8" standalone="no"?>
<svg width="80px" height="80px" viewBox="0 0 80 80" version="1.1" xmlns="http://www.w3.org/2000/svg" xmlns:xlink="http://www.w3.org/1999/xlink">
    <!-- Generator: Sketch 40 (33762) - http://www.bohemiancoding.com/sketch -->
    <title>btn_edit_room</title>
    <desc>Created with Sketch.</desc>
    <defs></defs>
    <g id="Page-1" stroke="none" stroke-width="1" fill="none" fill-rule="evenodd">
        <g id="btn_edit_room">
            <g id="Notebook">
                <g id="Group" transform="translate(14.000000, 10.000000)">
                    <path d="M3.75,1.872 L48.75,1.872 C49.788,1.872 50.622,2.712 50.622,3.744 L50.622,57.18 C50.622,58.218 49.782,59.052 48.75,59.052 L3.75,59.052 C2.712,59.052 1.878,58.212 1.878,57.18 L1.878,3.75 C1.878,2.712 2.712,1.872 3.75,1.872 Z" id="Shape" fill="#F0EEE2"></path>
                    <path d="M34.686,3.75 L34.686,17.814 L39.372,13.128 L44.058,17.814 L44.058,3.75 L34.686,3.75 Z M3.75,56.25 L7.5,56.25 L7.5,3.75 L3.75,3.75 L3.75,56.25 Z" id="Shape" fill="#BBAA9C"></path>
                    <path d="M48.75,0 L3.75,0 C1.68,0 0,1.68 0,3.75 L0,56.25 C0,58.32 1.68,60 3.75,60 L48.75,60 C50.82,60 52.5,58.32 52.5,56.25 L52.5,3.75 C52.5,1.68 50.82,0 48.75,0 Z M35.622,3.75 L43.122,3.75 L43.122,15.546 L40.032,12.462 C39.666,12.096 39.072,12.096 38.706,12.462 L35.616,15.546 L35.616,3.75 L35.622,3.75 Z M7.5,56.25 L3.75,56.25 L3.75,3.75 L7.5,3.75 L7.5,56.25 Z M48.75,56.25 L9.378,56.25 L9.378,3.75 L33.75,3.75 L33.75,17.814 C33.75,18.33 34.17,18.75 34.686,18.75 C34.932,18.75 35.172,18.648 35.346,18.474 L39.372,14.448 L43.398,18.474 C43.764,18.84 44.358,18.84 44.724,18.474 C44.898,18.3 45,18.06 45,17.814 L45,3.75 L48.75,3.75 L48.75,56.25 Z" id="Shape" fill="#5F4E56"></path>
                </g>
            </g>
        </g>
    </g>
</svg>