<?xml version="1.0" encoding="UTF-8" standalone="no"?>
<svg width="80px" height="80px" viewBox="0 0 80 80" version="1.1" xmlns="http://www.w3.org/2000/svg" xmlns:xlink="http://www.w3.org/1999/xlink">
    <!-- Generator: Sketch 40 (33762) - http://www.bohemiancoding.com/sketch -->
    <title>btn_edit_data</title>
    <desc>Created with Sketch.</desc>
    <defs></defs>
    <g id="Page-1" stroke="none" stroke-width="1" fill="none" fill-rule="evenodd">
        <g id="btn_edit_data">
            <g id="File">
                <g id="Group" transform="translate(17.000000, 10.000000)">
                    <path d="M33.7515,1.872 L3.7515,1.872 C2.7135,1.872 1.8795,2.712 1.8795,3.744 L1.8795,56.244 C1.8795,57.282 2.7195,58.116 3.7515,58.116 L43.1235,58.116 C44.1615,58.116 44.9955,57.276 44.9955,56.244 L44.9955,13.128 L33.7515,1.872 Z" id="Shape" fill="#F0EEE2"></path>
                    <polygon id="Shape" fill="#BBAA9C" points="32.8095 1.872 32.8095 14.064 45.0015 14.064"></polygon>
                    <path d="M26.2515,13.128 L9.3735,13.128 L9.3735,15 L26.2455,15 L26.2455,13.128 L26.2515,13.128 Z M9.3735,37.5 L37.5015,37.5 L37.5015,35.628 L9.3735,35.628 L9.3735,37.5 Z M46.3275,11.796 L35.0775,0.546 C34.7235,0.198 34.2495,0 33.7515,0 L3.7515,0 C1.6815,0 0.0015,1.68 0.0015,3.75 L0.0015,56.25 C0.0015,58.32 1.6815,60 3.7515,60 L43.1235,60 C45.1935,60 46.8735,58.32 46.8735,56.25 L46.8735,13.128 C46.8735,12.63 46.6755,12.15 46.3275,11.796 L46.3275,11.796 Z M33.7515,4.524 L42.3495,13.122 L33.7515,13.122 L33.7515,4.524 Z M43.1235,56.25 L3.7515,56.25 L3.7515,3.75 L31.8795,3.75 L31.8795,14.064 C31.8795,14.58 32.2995,15 32.8155,15 L43.1295,15 L43.1295,56.25 L43.1235,56.25 Z M9.3735,30 L37.5015,30 L37.5015,28.128 L9.3735,28.128 L9.3735,30 Z M9.3735,22.5 L37.5015,22.5 L37.5015,20.628 L9.3735,20.628 L9.3735,22.5 Z M9.3735,45 L30.0015,45 L30.0015,43.128 L9.3735,43.128 L9.3735,45 Z" id="Shape" fill="#5F4E56"></path>
                </g>
            </g>
        </g>
    </g>
</svg>