<?xml version="1.0" encoding="UTF-8" standalone="no"?>
<svg width="80px" height="80px" viewBox="0 0 80 80" version="1.1" xmlns="http://www.w3.org/2000/svg" xmlns:xlink="http://www.w3.org/1999/xlink">
    <!-- Generator: Sketch 40 (33762) - http://www.bohemiancoding.com/sketch -->
    <title>btn_follow_lecturer</title>
    <desc>Created with Sketch.</desc>
    <defs></defs>
    <g id="Page-1" stroke="none" stroke-width="1" fill="none" fill-rule="evenodd">
        <g id="btn_follow_lecturer">
            <g id="Cloud">
                <g id="User" transform="translate(16.000000, 10.000000)">
                    <g id="Group">
                        <path d="M40.107,43.116 C32.679,42.288 29.649,39.096 27.435,36.762 L27.411,36.738 C32.439,34.308 37.503,26.412 37.503,17.718 C37.503,8.388 32.103,1.872 24.375,1.872 C16.647,1.872 11.247,8.388 11.247,17.718 C11.247,26.412 16.311,34.308 21.339,36.738 L21.315,36.762 C19.101,39.096 16.071,42.288 8.643,43.116 C3.141,43.728 2.109,50.952 1.917,53.496 C3.741,54.738 10.047,58.122 24.375,58.122 C38.679,58.122 44.979,54.744 46.833,53.49 C46.641,50.946 45.609,43.728 40.107,43.116 L40.107,43.116 Z" id="Shape" fill="#F0EEE2"></path>
                        <path d="M46.689,48.18 C43.455,49.98 36.723,52.5 24.351,52.5 C12.021,52.5 5.301,49.992 2.049,48.198 C1.203,50.592 0.999,52.998 0.951,53.946 C2.301,54.99 8.595,59.064 24.375,59.064 C33.795,59.064 39.747,57.606 43.083,56.376 C45.765,55.392 47.223,54.396 47.799,53.952 C47.751,52.998 47.541,50.586 46.689,48.18 L46.689,48.18 Z" id="Shape" fill="#BBAA9C"></path>
                        <path d="M40.311,41.25 C35.157,40.68 32.367,38.88 30.411,37.098 C35.391,33.36 39.375,25.56 39.375,17.718 C39.375,6.846 32.661,0 24.375,0 C16.089,0 9.375,6.846 9.375,17.718 C9.375,25.56 13.359,33.36 18.333,37.092 C16.377,38.88 13.587,40.674 8.433,41.244 C0.003,42.186 0.003,54.372 0.003,54.372 C0.003,54.372 5.625,60 24.375,60 C43.125,60 48.747,54.372 48.747,54.372 C48.747,54.372 48.747,42.186 40.311,41.25 L40.311,41.25 Z M17.193,30.48 C14.607,26.778 13.125,22.128 13.125,17.724 C13.125,9.498 17.751,3.75 24.375,3.75 C30.999,3.75 35.625,9.492 35.625,17.718 C35.625,22.122 34.143,26.772 31.557,30.474 C29.337,33.648 26.589,35.622 24.375,35.622 C22.161,35.622 19.413,33.654 17.193,30.48 L17.193,30.48 Z M8.853,44.982 C15.999,44.19 19.521,41.28 21.813,38.958 C23.475,39.522 25.281,39.522 26.943,38.958 C29.235,41.28 32.751,44.19 39.903,44.982 C40.557,45.054 42.123,45.228 43.413,47.634 C39.831,49.098 33.807,50.64 24.351,50.64 C14.925,50.64 8.913,49.104 5.325,47.646 C6.081,46.26 7.197,45.162 8.853,44.982 L8.853,44.982 Z M24.375,56.25 C12.399,56.25 6.333,53.838 3.903,52.506 C4.035,51.45 4.257,50.412 4.575,49.404 C8.379,50.946 14.625,52.506 24.345,52.506 C34.095,52.506 40.347,50.934 44.145,49.392 C44.469,50.406 44.703,51.45 44.841,52.512 C42.411,53.838 36.351,56.25 24.375,56.25 L24.375,56.25 Z" id="Shape" fill="#5F4E56"></path>
                    </g>
                </g>
            </g>
        </g>
    </g>
</svg>