<?xml version="1.0" encoding="UTF-8" standalone="no"?>
<svg width="80px" height="80px" viewBox="0 0 80 80" version="1.1" xmlns="http://www.w3.org/2000/svg" xmlns:xlink="http://www.w3.org/1999/xlink">
    <!-- Generator: Sketch 40 (33762) - http://www.bohemiancoding.com/sketch -->
    <title>btn_contact</title>
    <desc>Created with Sketch.</desc>
    <defs></defs>
    <g id="Page-1" stroke="none" stroke-width="1" fill="none" fill-rule="evenodd">
        <g id="btn_contact">
            <g id="Message">
                <g id="Group" transform="translate(10.000000, 10.000000)">
                    <path d="M30,1.872 C14.49,1.872 1.872,12.804 1.872,26.244 C1.872,32.424 4.554,38.316 9.426,42.846 C9.882,43.272 10.098,43.896 10.002,44.514 L8.046,56.742 L21.948,50.04 C22.326,49.86 22.752,49.806 23.16,49.896 C25.41,50.382 27.702,50.628 30,50.628 C45.51,50.628 58.128,39.696 58.128,26.256 C58.128,12.816 45.51,1.872 30,1.872 Z" id="Shape" fill="#F0EEE2"></path>
                    <path d="M15,21.564 C12.414,21.564 10.314,23.664 10.314,26.25 C10.314,28.836 12.414,30.936 15,30.936 C17.586,30.936 19.686,28.836 19.686,26.25 C19.686,23.658 17.586,21.564 15,21.564 L15,21.564 Z M30,21.564 C27.414,21.564 25.314,23.664 25.314,26.25 C25.314,28.836 27.414,30.936 30,30.936 C32.586,30.936 34.686,28.836 34.686,26.25 C34.686,23.658 32.586,21.564 30,21.564 L30,21.564 Z M45,21.564 C42.414,21.564 40.314,23.664 40.314,26.25 C40.314,28.836 42.414,30.936 45,30.936 C47.586,30.936 49.686,28.836 49.686,26.25 C49.686,23.658 47.586,21.564 45,21.564 L45,21.564 Z" id="Shape" fill="#BBAA9C"></path>
                    <path d="M30,20.628 C26.892,20.628 24.372,23.148 24.372,26.256 C24.372,29.364 26.892,31.884 30,31.884 C33.108,31.884 35.628,29.364 35.628,26.256 C35.628,23.148 33.108,20.628 30,20.628 Z M30,30 C27.93,30 26.25,28.32 26.25,26.25 C26.25,24.18 27.93,22.5 30,22.5 C32.07,22.5 33.75,24.18 33.75,26.25 C33.75,28.32 32.07,30 30,30 Z M15,20.628 C11.892,20.628 9.372,23.148 9.372,26.256 C9.372,29.364 11.892,31.884 15,31.884 C18.108,31.884 20.628,29.364 20.628,26.256 C20.628,23.148 18.108,20.628 15,20.628 Z M15,30 C12.93,30 11.25,28.32 11.25,26.25 C11.25,24.18 12.93,22.5 15,22.5 C17.07,22.5 18.75,24.18 18.75,26.25 C18.75,28.32 17.07,30 15,30 Z M30,0 C13.434,0 0,11.754 0,26.25 C0,33.21 3.102,39.528 8.148,44.226 L5.628,60 L22.764,51.726 C25.14,52.242 27.57,52.5 30,52.5 C46.566,52.5 60,40.746 60,26.25 C60,11.754 46.566,0 30,0 Z M30,48.75 C27.834,48.75 25.674,48.516 23.556,48.06 C22.74,47.88 21.882,47.982 21.132,48.348 L10.464,53.502 L11.85,44.82 C12.048,43.584 11.616,42.336 10.704,41.484 C6.222,37.308 3.75,31.902 3.75,26.25 C3.75,13.842 15.528,3.75 30,3.75 C44.472,3.75 56.25,13.842 56.25,26.25 C56.25,38.658 44.472,48.75 30,48.75 Z M45,20.628 C41.892,20.628 39.372,23.148 39.372,26.256 C39.372,29.364 41.892,31.884 45,31.884 C48.108,31.884 50.628,29.364 50.628,26.256 C50.628,23.148 48.108,20.628 45,20.628 Z M45,30 C42.93,30 41.25,28.32 41.25,26.25 C41.25,24.18 42.93,22.5 45,22.5 C47.07,22.5 48.75,24.18 48.75,26.25 C48.75,28.32 47.07,30 45,30 Z" id="Shape" fill="#5F4E56"></path>
                </g>
            </g>
        </g>
    </g>
</svg>