<?xml version="1.0" encoding="UTF-8" standalone="no"?>
<svg width="80px" height="80px" viewBox="0 0 80 80" version="1.1" xmlns="http://www.w3.org/2000/svg" xmlns:xlink="http://www.w3.org/1999/xlink">
    <!-- Generator: Sketch 40 (33762) - http://www.bohemiancoding.com/sketch -->
    <title>btn_relation</title>
    <desc>Created with Sketch.</desc>
    <defs></defs>
    <g id="Page-1" stroke="none" stroke-width="1" fill="none" fill-rule="evenodd">
        <g id="btn_relation">
            <g id="Lightning">
                <g id="Group" transform="translate(25.000000, 10.000000)">
                    <polygon id="Shape" fill="#F0EEE2" points="28.1251875 16.872 20.6251875 16.872 26.2471875 1.872 9.3691875 1.872 1.8691875 20.628 9.3691875 20.628 1.8691875 43.128 11.2471875 43.128 11.2471875 58.128 22.4971875 37.5 16.8691875 37.5"></polygon>
                    <polygon id="Shape" fill="#BBAA9C" points="28.1251875 16.872 24.3691875 16.872 4.6831875 43.128 11.2471875 43.128 11.2471875 58.128 22.4971875 37.5 16.8691875 37.5"></polygon>
                    <path d="M24.3691875,37.5 C24.3691875,36.462 23.5291875,35.628 22.4971875,35.628 L20.0311875,35.628 L29.7631875,17.784 C30.2611875,16.878 29.9371875,15.738 29.0251875,15.234 C28.7491875,15.078 28.4371875,15 28.1191875,15 L23.3251875,15 L27.9991875,2.544 C28.3711875,1.578 27.8851875,0.492 26.9131875,0.126 C26.6971875,0.042 26.4751875,0 26.2471875,0 L9.3691875,0 C8.6011875,0 7.9111875,0.468 7.6291875,1.176 L0.1471875,19.89 C0.1411875,19.902 0.1411875,19.908 0.1351875,19.92 L0.1351875,19.926 C-0.2488125,20.886 0.2191875,21.978 1.1791875,22.362 C1.4011875,22.452 1.6351875,22.494 1.8751875,22.494 L6.7771875,22.494 L0.1171875,42.468 C-0.2428125,43.44 0.2551875,44.52 1.2271875,44.88 C1.4371875,44.958 1.6531875,44.994 1.8751875,44.994 L9.3751875,44.994 L9.3751875,58.122 C9.3751875,59.16 10.2151875,60 11.2471875,60 C11.9371875,60 12.5731875,59.616 12.9031875,59.01 L24.1411875,38.412 C24.2911875,38.13 24.3751875,37.818 24.3691875,37.5 L24.3691875,37.5 Z M13.1251875,43.128 C13.1251875,42.09 12.2851875,41.256 11.2531875,41.256 L7.8691875,41.256 L24.1591875,18.756 L24.9631875,18.756 L15.2311875,36.594 C14.7331875,37.5 15.0631875,38.64 15.9691875,39.144 C16.2451875,39.294 16.5571875,39.378 16.8751875,39.378 L19.3411875,39.378 L13.1251875,50.778 L13.1251875,43.128 Z M11.1331875,21.276 C11.4931875,20.304 10.9951875,19.224 10.0231875,18.864 C9.8131875,18.786 9.5971875,18.75 9.3751875,18.75 L4.6471875,18.75 L10.6471875,3.75 L23.5471875,3.75 L18.8731875,16.206 C18.5011875,17.172 18.9871875,18.258 19.9531875,18.624 C20.1691875,18.708 20.3911875,18.75 20.6191875,18.75 L21.8671875,18.75 L5.5771875,41.25 L4.4731875,41.25 L11.1331875,21.276 L11.1331875,21.276 Z" id="Shape" fill="#5F4E56"></path>
                </g>
            </g>
        </g>
    </g>
</svg>