<?xml version="1.0" encoding="UTF-8" standalone="no"?>
<svg width="80px" height="80px" viewBox="0 0 80 80" version="1.1" xmlns="http://www.w3.org/2000/svg" xmlns:xlink="http://www.w3.org/1999/xlink">
    <!-- Generator: Sketch 40 (33762) - http://www.bohemiancoding.com/sketch -->
    <title>btn_feedback</title>
    <desc>Created with Sketch.</desc>
    <defs></defs>
    <g id="Page-1" stroke="none" stroke-width="1" fill="none" fill-rule="evenodd">
        <g id="btn_feedback">
            <g id="Pencil" transform="translate(3.000000, 3.000000)">
                <g id="Group" transform="translate(12.333333, 12.333333)">
                    <path d="M43.1666667,1.5392 C41.9382667,1.53426667 40.7641333,2.02266667 39.8958667,2.89586667 L5.9792,36.8125333 C4.7804,38.0113333 3.16226667,43.0236 2.08186667,47.2465333 C6.3048,46.1661333 11.3170667,44.548 12.5208,43.3492 L46.4374667,9.43253333 C48.2430667,7.62693333 48.2430667,4.69653333 46.4325333,2.89093333 C45.5642667,2.0276 44.3901333,1.54413333 43.1666667,1.5392 L43.1666667,1.5392 Z" id="Shape" fill="#F0EEE2"></path>
                    <path d="M2.31373333,47.0196 C8.4804,47.0196 13.8774667,41.6225333 13.8774667,41.6225333 L7.7108,35.4558667 C7.70586667,35.4608 2.31373333,40.8529333 2.31373333,47.0196 L2.31373333,47.0196 Z M43.1666667,1.5392 C41.9382667,1.5392 40.7641333,2.0276 39.8958667,2.89586667 L37,5.79173333 L43.5416,12.3333333 L46.4374667,9.43746667 C48.2430667,7.63186667 48.2430667,4.70146667 46.4374667,2.89586667 C45.5692,2.0276 44.3950667,1.54413333 43.1666667,1.5392 L43.1666667,1.5392 Z" id="Shape" fill="#BBAA9C"></path>
                    <path d="M43.1666667,0 C41.5288,0 39.96,0.646266667 38.8056,1.8056 L4.88893333,35.7222667 C2.48146667,38.1297333 0,49.3333333 0,49.3333333 C0,49.3333333 11.2036,46.8518667 13.6110667,44.4444 L47.5277333,10.5277333 C49.9352,8.12026667 49.9352,4.21306667 47.5277333,1.8056 C46.3733333,0.6512 44.8045333,0 43.1666667,0 Z M37.3601333,7.61706667 L41.7212,11.9781333 L13.5173333,40.1770667 L9.15626667,35.816 L37.3601333,7.61706667 L37.3601333,7.61706667 Z M4.27226667,45.0610667 C5.29346667,41.5189333 6.4084,38.5984 7.06946667,37.9028 L8.066,36.9062667 L12.4270667,41.2673333 L11.4305333,42.2638667 C10.7349333,42.9249333 7.8144,44.0398667 4.27226667,45.0610667 Z M45.3472,8.3472 L42.8065333,10.8829333 L38.4454667,6.52186667 L40.9861333,3.98613333 C42.1898667,2.7824 44.1434667,2.7824 45.3472,3.98613333 C46.5509333,5.18986667 46.5509333,7.14346667 45.3472,8.3472 Z" id="Shape" fill="#5F4E56"></path>
                </g>
            </g>
        </g>
    </g>
</svg>