<?xml version="1.0" encoding="UTF-8" standalone="no"?>
<svg width="80px" height="80px" viewBox="0 0 80 80" version="1.1" xmlns="http://www.w3.org/2000/svg" xmlns:xlink="http://www.w3.org/1999/xlink">
    <!-- Generator: Sketch 40 (33762) - http://www.bohemiancoding.com/sketch -->
    <title>btn_distribution_market</title>
    <desc>Created with Sketch.</desc>
    <defs></defs>
    <g id="Page-1" stroke="none" stroke-width="1" fill="none" fill-rule="evenodd">
        <g id="btn_distribution_market">
            <g id="Group-11">
                <g id="Group" transform="translate(40.000000, 40.000000) rotate(-45.000000) translate(-40.000000, -40.000000) translate(15.000000, 15.000000)">
                    <path d="M41.8985596,17.9104018 L40.3001406,16.3104218 L42.3631001,15.3854334 C44.0514302,14.6254429 45.539958,13.6654549 46.4590488,12.7504664 C49.0115242,10.1854985 49.0115242,6.03555044 46.4490587,3.48058242 C43.8865933,0.925614404 39.740694,0.925614404 37.1882186,3.49058228 C36.2741227,4.4055708 35.3200663,5.88555229 34.5608173,7.5655313 L33.6317363,9.62550547 L32.0333173,8.02552554 L26.0492361,2.02560063 C25.4448339,1.41560825 24.4608072,1.41560825 23.85141,2.02560063 L17.4777141,8.4105207 C18.4067952,8.95551387 19.2159948,9.55050645 19.7954217,10.1254992 C22.4527933,12.8004657 22.4378081,17.1254116 19.7604563,19.7853783 C17.0980896,22.4353451 12.7923484,22.4303452 10.1349768,19.7753784 C9.56054493,19.2053855 8.97112795,18.4053956 8.42666649,17.4854071 L2.02799537,23.9003268 C1.4185981,24.5103191 1.4185981,25.5003067 2.02799537,26.1102991 L8.00708151,32.105224 L9.60050546,33.705204 L7.54254098,34.6351924 C5.86919605,35.3901829 4.39065849,36.345171 3.48155766,37.2551596 C0.934077366,39.8051276 0.939072439,43.9350759 3.48155766,46.485044 C4.70534722,47.7100287 6.368702,48.40002 8.10198761,48.3950201 C9.83527322,48.4000201 11.498628,47.7100287 12.7224176,46.485044 C13.6265233,45.5800553 14.5805797,44.1050738 15.3298386,42.4450946 L16.2589197,40.3851204 L17.8523436,41.9851003 L23.8464149,47.9900251 C24.4508171,48.6000175 25.4348438,48.6000175 26.044241,47.9950251 L26.0492361,47.9900251 L32.4229319,41.5951052 C31.4938508,41.0501121 30.6896463,40.4601194 30.1152144,39.8851267 C27.4528478,37.2401598 27.4328675,32.9402136 30.075254,30.275247 L30.1152144,30.2352475 C32.7925663,27.5752808 37.1132927,27.5752808 39.7906445,30.2352475 C40.3600813,30.8002404 40.9494983,31.5952304 41.4939598,32.505219 L47.8676556,26.115299 C48.4770529,25.5053066 48.4770529,24.515319 47.8676556,23.9053267 L41.8985596,17.9104018 Z" id="Shape" fill="#F0EEE2"></path>
                    <path d="M4.68536698,37.5001565 C4.15589068,37.5001565 3.63140946,37.5551558 3.11691834,37.6601545 C0.789220634,40.4101201 1.13887483,44.5250686 3.88615746,46.8500395 C5.06499146,47.845027 6.55851424,48.3900202 8.10198761,48.3900202 C9.65545107,48.3950201 11.158964,47.8400271 12.337798,46.8250397 C13.176968,42.5950927 10.4296853,38.4901441 6.2088601,37.6501546 C5.70435907,37.5501559 5.19486302,37.5001565 4.68536698,37.5001565 L4.68536698,37.5001565 Z M46.4190884,3.52058193 C44.0114698,1.11061211 40.1552839,0.960613965 37.562848,3.17058633 C36.7286731,7.4055333 39.4809509,11.5154818 43.7117662,12.3504714 C44.7257633,12.5504689 45.7697307,12.5454689 46.7837277,12.3404715 C48.9815539,9.75550386 48.821712,5.9155519 46.4190884,3.52058193 L46.4190884,3.52058193 Z" id="Shape" fill="#BBAA9C"></path>
                    <path d="M43.0174529,16.8054156 C44.8556348,15.9804259 46.5040044,14.9104393 47.5729471,13.8504526 C50.7398148,10.6904921 50.7448099,5.5655563 47.5879323,2.395596 L47.5729471,2.38059619 C44.4010844,-0.789364111 39.2611682,-0.789364111 36.0893055,2.38059619 C35.0253579,3.44058291 33.9614102,5.0805624 33.1372254,6.9105395 L27.1581393,0.915614551 C25.9443399,-0.304370166 23.9712914,-0.304370166 22.7524969,0.9106146 L22.7475018,0.915614551 L14.855308,8.82551553 C16.4287517,9.49550713 17.8773189,10.4104957 18.6965086,11.2304854 C20.749478,13.2704599 20.7594682,16.5904183 18.721484,18.6453926 L18.6965086,18.6703922 C16.6335491,20.7253665 13.2968494,20.7253665 11.2338899,18.6703922 C10.4147001,17.8554024 9.50559932,16.4204204 8.83626137,14.8654399 L0.914097122,22.7903407 C-0.304697366,24.0103254 -0.304697366,25.9903006 0.914097122,27.2102854 L6.89318322,33.2002104 C5.06499146,34.0252 3.43160702,35.0851868 2.37265449,36.1401735 C-0.784223073,39.2901341 -0.789218098,44.4050701 2.35766932,47.5650305 L2.37265449,47.5800303 C5.53452707,50.7399908 10.659458,50.7399908 13.8213306,47.5800303 C14.8752881,46.5250436 15.9342408,44.9000639 16.7534305,43.0800866 L22.7425068,49.0800115 C23.9563062,50.2999962 25.9293547,50.2999962 27.1481492,49.0850115 L27.1531442,49.0800115 L35.0553282,41.1651106 C33.4818845,40.495119 32.0383123,39.5851304 31.2191226,38.7701406 C29.1661532,36.7351661 29.151168,33.4252075 31.1841572,31.3702333 L31.2191226,31.3352337 C33.2920722,29.2802594 36.628772,29.2802594 38.7017216,31.3352337 C39.5159162,32.1452235 40.4250171,33.5652058 41.094355,35.1151864 L48.9865489,27.2102854 C50.2053434,25.9903006 50.2053434,24.0103254 48.9865489,22.7903407 L43.0174529,16.8054156 Z M45.2752198,4.61056826 C47.1633522,6.51054448 47.2982188,9.53550659 45.5849135,11.5904809 C45.5049925,11.5954809 45.4250716,11.5954809 45.3451506,11.5954808 C41.4639894,11.5954808 38.3220971,8.44552026 38.3220971,4.56556885 C38.3220971,4.47556997 38.3220971,4.39057104 38.3270921,4.30557207 C40.3650764,2.58059365 43.3870873,2.71559199 45.2752198,4.61056826 L45.2752198,4.61056826 Z M11.7034255,45.5900552 C9.57553015,47.4850315 6.31375634,47.2950339 4.41563376,45.1650605 C2.672358,43.2050851 2.672358,40.2451222 4.4256239,38.2851467 C4.5105399,38.2801467 4.60045098,38.2801467 4.68536698,38.2801467 C8.56652815,38.2801467 11.7084205,41.4251074 11.7084205,45.3100587 C11.7084205,45.4050576 11.7034255,45.4950564 11.7034255,45.5900552 L11.7034255,45.5900552 Z M41.6488066,30.1452486 C41.344108,29.7352537 41.0144341,29.3502585 40.6597849,28.990263 C37.4279814,25.7503036 32.1831691,25.7453037 28.9463705,28.9802632 C25.709572,32.2152227 25.704577,37.4651569 28.9363804,40.7051164 C29.3010198,41.0651119 29.6956295,41.4001077 30.1052243,41.7051039 L24.950323,46.8750391 L15.2049621,37.1101614 C15.4197497,39.0701368 14.3607971,41.8501021 13.1370075,43.8000776 C12.502635,40.260122 9.73537205,37.4851567 6.19887,36.8501646 C8.13695307,35.62018 10.9142061,34.5501935 12.8672743,34.7651907 L3.11691834,25.000313 L8.27181966,19.8353776 C8.57651829,20.2503725 8.91118727,20.6453675 9.27582659,21.0103629 C12.50763,24.2403225 17.7474474,24.2403225 20.9742557,21.005363 C24.201064,17.7704036 24.2010641,12.5254692 20.9692607,9.29550962 C20.6046214,8.93551411 20.2100117,8.60051831 19.7954217,8.29552212 L24.950323,3.12558687 L34.695684,12.8904646 C34.4709063,10.8704899 35.6047848,7.97552612 36.8785249,6.02555054 C37.4979122,9.61050566 40.3001406,12.4154706 43.8815982,13.0354628 C41.9435151,14.3104468 39.0513758,15.4554325 37.0383668,15.2354353 L46.7837277,25.000313 L41.6488066,30.1452486 Z" id="Shape" fill="#5F4E56"></path>
                </g>
            </g>
        </g>
    </g>
</svg>