<?xml version="1.0" encoding="UTF-8" standalone="no"?>
<svg width="60px" height="60px" viewBox="0 0 60 60" version="1.1" xmlns="http://www.w3.org/2000/svg" xmlns:xlink="http://www.w3.org/1999/xlink">
    <!-- Generator: Sketch 40 (33762) - http://www.bohemiancoding.com/sketch -->
    <title>icon_push_live</title>
    <desc>Created with Sketch.</desc>
    <defs></defs>
    <g id="Page-1" stroke="none" stroke-width="1" fill="none" fill-rule="evenodd">
        <g id="icon_push_live">
            <g id="Group">
                <polygon id="Shape" fill="#F0EEE2" points="29.857561 9.41438751 13.3736585 25.89829 22.9914661 25.89829 22.9914661 50.6285393 36.7236558 50.6285393 36.7236558 25.89829 46.3414634 25.89829"></polygon>
                <polygon id="Shape" fill="#BBAA9C" points="24.3629268 46.5053659 35.3521951 46.5053659 35.3521951 49.2526829 24.3629268 49.2526829"></polygon>
                <path d="M47.3129147,24.9268386 L30.8290123,8.4429362 C30.292736,7.9066599 29.422386,7.9066599 28.8861097,8.4429362 L12.4022072,24.9268386 C11.8659309,25.4631149 11.8659309,26.333465 12.4022072,26.8697413 C12.661554,27.129088 13.0088148,27.2741463 13.3736585,27.2741463 L21.6156098,27.2741463 L21.6156098,50.6241436 C21.6156098,51.384601 22.2310088,51.9956043 22.9870704,51.9956043 L36.7236558,51.9956043 C37.4841132,51.9956043 38.0951165,51.3802053 38.0951165,50.6241436 L38.0951165,27.2741463 L46.3414634,27.2741463 C47.1019208,27.2741463 47.7173198,26.6587473 47.7173198,25.9026857 C47.7173198,25.537842 47.5722615,25.1861854 47.3129147,24.9268386 Z M24.3629268,46.5053659 L35.3521951,46.5053659 L35.3521951,49.2526829 L24.3629268,49.2526829 L24.3629268,46.5053659 Z M36.7236558,24.5268293 C35.9631984,24.5268293 35.3521951,25.1422283 35.3521951,25.89829 L35.3521951,45.1295095 L24.3629268,45.1295095 L24.3629268,25.89829 C24.3629268,25.1378326 23.7475278,24.5268293 22.9914661,24.5268293 L16.6880219,24.5268293 L29.857561,11.3572901 L43.0271001,24.5268293 L36.7236558,24.5268293 Z" id="Shape" fill="#5F4E56"></path>
            </g>
        </g>
    </g>
</svg>