<?xml version="1.0" encoding="UTF-8" standalone="no"?>
<svg width="80px" height="80px" viewBox="0 0 80 80" version="1.1" xmlns="http://www.w3.org/2000/svg" xmlns:xlink="http://www.w3.org/1999/xlink">
    <!-- Generator: Sketch 40 (33762) - http://www.bohemiancoding.com/sketch -->
    <title>icon_withdrawals</title>
    <desc>Created with Sketch.</desc>
    <defs></defs>
    <g id="Page-1" stroke="none" stroke-width="1" fill="none" fill-rule="evenodd">
        <g id="icon_withdrawals">
            <g id="Pentagram">
                <g id="Key" transform="translate(10.000000, 10.000000)">
                    <g id="Group">
                        <path d="M37.5,1.872 C26.106,1.872 16.872,11.106 16.872,22.5 C16.866,25.428 17.49,28.326 18.696,30.99 L1.872,48.75 L1.872,58.122 L11.25,58.122 L11.25,50.622 L18.75,50.622 L18.75,43.122 L23.886,37.986 C27.648,41.304 32.49,43.128 37.5,43.122 C48.888,43.122 58.128,33.888 58.128,22.494 C58.128,11.1 48.888,1.872 37.5,1.872 Z M41.25,26.25 C37.11,26.25 33.75,22.89 33.75,18.75 C33.75,14.61 37.11,11.25 41.25,11.25 C45.39,11.25 48.75,14.61 48.75,18.75 C48.75,22.89 45.39,26.25 41.25,26.25 Z" id="Shape" fill="#F0EEE2"></path>
                        <path d="M46.26,3.132 L35.946,13.446 C33.018,16.374 33.018,21.126 35.946,24.054 C38.874,26.982 43.626,26.982 46.554,24.054 L56.868,13.74 L46.26,3.132 Z M41.25,21.564 C39.696,21.564 38.436,20.304 38.436,18.75 C38.436,17.196 39.696,15.936 41.25,15.936 C42.804,15.936 44.064,17.196 44.064,18.75 C44.064,20.304 42.804,21.564 41.25,21.564 Z" id="Shape" fill="#BBAA9C"></path>
                        <path d="M41.25,22.5 C43.32,22.5 45,20.82 45,18.75 C45,16.68 43.32,15 41.25,15 C39.18,15 37.5,16.68 37.5,18.75 C37.5,20.82 39.18,22.5 41.25,22.5 Z M41.25,16.872 C42.288,16.872 43.122,17.712 43.122,18.744 C43.122,19.776 42.282,20.616 41.25,20.616 C40.218,20.616 39.378,19.776 39.378,18.744 C39.372,17.712 40.212,16.872 41.25,16.872 Z M37.5,0 C25.074,0 15,10.074 15,22.5 C14.994,25.494 15.594,28.458 16.752,31.218 L0.546,47.424 C0.198,47.778 0,48.252 0,48.75 L0,58.122 C0,59.16 0.84,60 1.872,60 L11.244,60 C12.282,60 13.116,59.16 13.116,58.128 L13.116,52.5 L18.744,52.5 C19.782,52.5 20.616,51.66 20.616,50.628 L20.616,43.908 L24.006,40.518 C27.894,43.44 32.628,45.012 37.494,45.006 C49.92,45.006 59.994,34.932 59.994,22.506 C59.994,10.08 49.926,0 37.5,0 Z M54.564,14.718 L45.888,23.388 C43.326,25.95 39.168,25.95 36.606,23.388 C34.044,20.826 34.044,16.668 36.606,14.106 L45.282,5.436 C49.386,7.314 52.686,10.614 54.564,14.718 Z M37.5,41.25 C32.34,41.256 27.414,39.132 23.874,35.382 L17.244,42.012 C17.004,42.336 16.878,42.726 16.878,43.122 L16.878,48.75 L11.25,48.75 C10.212,48.75 9.378,49.59 9.378,50.622 L9.378,56.25 L3.75,56.25 L3.75,49.524 L18.588,34.686 L18.6,34.704 L21.324,31.974 C19.638,29.1 18.744,25.83 18.75,22.494 C18.75,12.138 27.144,3.744 37.5,3.744 C39.498,3.744 41.478,4.062 43.38,4.686 L35.286,12.786 C31.992,16.08 31.992,21.426 35.286,24.72 C38.58,28.014 43.926,28.014 47.22,24.72 L55.308,16.62 C55.932,18.516 56.25,20.502 56.25,22.5 C56.25,32.856 47.856,41.25 37.5,41.25 Z" id="Shape" fill="#5F4E56"></path>
                    </g>
                </g>
            </g>
        </g>
    </g>
</svg>