<?xml version="1.0" encoding="UTF-8" standalone="no"?>
<svg width="48px" height="48px" viewBox="0 0 48 48" version="1.1" xmlns="http://www.w3.org/2000/svg" xmlns:xlink="http://www.w3.org/1999/xlink">
    <!-- Generator: Sketch 40 (33762) - http://www.bohemiancoding.com/sketch -->
    <title>icon_details_page_find</title>
    <desc>Created with Sketch.</desc>
    <defs></defs>
    <g id="Page-1" stroke="none" stroke-width="1" fill="none" fill-rule="evenodd">
        <g id="icon_details_page_find" stroke="#616161" stroke-width="4">
            <g id="Group-4" transform="translate(5.000000, 5.000000)">
                <circle id="Oval-8-Copy-2" cx="19" cy="19" r="19"></circle>
                <path d="M28.5350679,8.38647688 C28.2061308,7.97423582 27.6304343,7.89180572 27.1369157,8.13909601 L14.7182181,13.9930821 C14.471504,14.0755122 14.2247899,14.3228931 14.1425217,14.570274 L8.13879814,27.1851584 C7.89203883,27.6798295 7.97430699,28.2569761 8.38555745,28.5868323 C8.63227158,28.8341679 8.96125388,28.916598 9.29019099,28.916598 C9.45468214,28.916598 9.61917329,28.8341679 9.78366443,28.7516925 L22.1200939,22.8152763 C22.3668532,22.7328462 22.5313443,22.4855107 22.6957903,22.2381298 L28.781782,9.70567545 C29.0285413,9.37590977 28.9463183,8.79871794 28.5350679,8.38647688 L28.5350679,8.38647688 Z" id="Path"></path>
            </g>
        </g>
    </g>
</svg>