<?xml version="1.0" encoding="UTF-8" standalone="no"?>
<svg width="40px" height="40px" viewBox="0 0 40 40" version="1.1" xmlns="http://www.w3.org/2000/svg" xmlns:xlink="http://www.w3.org/1999/xlink">
    <!-- Generator: Sketch 40 (33762) - http://www.bohemiancoding.com/sketch -->
    <title>icon_room_contact_b</title>
    <desc>Created with Sketch.</desc>
    <defs></defs>
    <g id="Page-1" stroke="none" stroke-width="1" fill="none" fill-rule="evenodd">
        <g id="icon_room_contact_b">
            <g id="Message" transform="translate(0.000000, 1.000000)">
                <g id="Group">
                    <path d="M20,2.1856 C10.177,2.1856 2.1856,9.1092 2.1856,17.6212 C2.1856,21.5352 3.8842,25.2668 6.9698,28.1358 C7.2586,28.4056 7.3954,28.8008 7.3346,29.1922 L6.72608739,32.9963371 C6.37798928,35.1724842 7.71069934,36.1580749 9.70237202,35.1979116 L14.9004,32.692 C15.1398,32.578 15.4096,32.5438 15.668,32.6008 C17.093,32.9086 18.5446,33.0644 20,33.0644 C29.823,33.0644 37.8144,26.1408 37.8144,17.6288 C37.8144,9.1168 29.823,2.1856 20,2.1856 Z" id="Shape" fill="#F0EEE2"></path>
                    <path d="M10.5,14.6572 C8.8622,14.6572 7.5322,15.9872 7.5322,17.625 C7.5322,19.2628 8.8622,20.5928 10.5,20.5928 C12.1378,20.5928 13.4678,19.2628 13.4678,17.625 C13.4678,15.9834 12.1378,14.6572 10.5,14.6572 L10.5,14.6572 Z M20,14.6572 C18.3622,14.6572 17.0322,15.9872 17.0322,17.625 C17.0322,19.2628 18.3622,20.5928 20,20.5928 C21.6378,20.5928 22.9678,19.2628 22.9678,17.625 C22.9678,15.9834 21.6378,14.6572 20,14.6572 L20,14.6572 Z M29.5,14.6572 C27.8622,14.6572 26.5322,15.9872 26.5322,17.625 C26.5322,19.2628 27.8622,20.5928 29.5,20.5928 C31.1378,20.5928 32.4678,19.2628 32.4678,17.625 C32.4678,15.9834 31.1378,14.6572 29.5,14.6572 L29.5,14.6572 Z" id="Shape" fill="#BBAA9C"></path>
                    <path d="M20,14.0644 C18.0316,14.0644 16.4356,15.6604 16.4356,17.6288 C16.4356,19.5972 18.0316,21.1932 20,21.1932 C21.9684,21.1932 23.5644,19.5972 23.5644,17.6288 C23.5644,15.6604 21.9684,14.0644 20,14.0644 Z M20,20 C18.689,20 17.625,18.936 17.625,17.625 C17.625,16.314 18.689,15.25 20,15.25 C21.311,15.25 22.375,16.314 22.375,17.625 C22.375,18.936 21.311,20 20,20 Z M10.5,14.0644 C8.5316,14.0644 6.9356,15.6604 6.9356,17.6288 C6.9356,19.5972 8.5316,21.1932 10.5,21.1932 C12.4684,21.1932 14.0644,19.5972 14.0644,17.6288 C14.0644,15.6604 12.4684,14.0644 10.5,14.0644 Z M10.5,20 C9.189,20 8.125,18.936 8.125,17.625 C8.125,16.314 9.189,15.25 10.5,15.25 C11.811,15.25 12.875,16.314 12.875,17.625 C12.875,18.936 11.811,20 10.5,20 Z M20,1 C9.5082,1 1,8.4442 1,17.625 C1,22.033 2.9646,26.0344 6.1604,29.0098 L5.19518146,35.0516084 C4.84681048,37.2322449 6.17745497,38.2211475 8.16315069,37.2623679 L15.4172,33.7598 C16.922,34.0866 18.461,34.25 20,34.25 C30.4918,34.25 39,26.8058 39,17.625 C39,8.4442 30.4918,1 20,1 Z M20,31.875 C18.6282,31.875 17.2602,31.7268 15.9188,31.438 C15.402,31.324 14.8586,31.3886 14.3836,31.6204 L9.42005282,34.0184242 C8.42988755,34.4967999 7.76823376,34.0011548 7.94162657,32.9150102 L8.505,29.386 C8.6304,28.6032 8.3568,27.8128 7.7792,27.2732 C4.9406,24.6284 3.375,21.2046 3.375,17.625 C3.375,9.7666 10.8344,3.375 20,3.375 C29.1656,3.375 36.625,9.7666 36.625,17.625 C36.625,25.4834 29.1656,31.875 20,31.875 Z M29.5,14.0644 C27.5316,14.0644 25.9356,15.6604 25.9356,17.6288 C25.9356,19.5972 27.5316,21.1932 29.5,21.1932 C31.4684,21.1932 33.0644,19.5972 33.0644,17.6288 C33.0644,15.6604 31.4684,14.0644 29.5,14.0644 Z M29.5,20 C28.189,20 27.125,18.936 27.125,17.625 C27.125,16.314 28.189,15.25 29.5,15.25 C30.811,15.25 31.875,16.314 31.875,17.625 C31.875,18.936 30.811,20 29.5,20 Z" id="Shape" fill="#5F4E56"></path>
                </g>
            </g>
        </g>
    </g>
</svg>