<?xml version="1.0" encoding="UTF-8" standalone="no"?>
<svg width="40px" height="40px" viewBox="0 0 40 40" version="1.1" xmlns="http://www.w3.org/2000/svg" xmlns:xlink="http://www.w3.org/1999/xlink">
    <!-- Generator: Sketch 40 (33762) - http://www.bohemiancoding.com/sketch -->
    <title>icon_room_top</title>
    <desc>Created with Sketch.</desc>
    <defs></defs>
    <g id="Page-1" stroke="none" stroke-width="1" fill="none" fill-rule="evenodd">
        <g id="icon_room_top">
            <g id="Group">
                <polygon id="Shape" fill="#F0EEE2" points="20.422439 2.22151649 6.18634146 16.457614 14.4926299 16.457614 14.4926299 37.8155567 26.3522482 37.8155567 26.3522482 16.457614 34.6585366 16.457614"></polygon>
                <polygon id="Shape" fill="#BBAA9C" points="15.6770732 34.2546341 25.1678049 34.2546341 25.1678049 36.6273171 15.6770732 36.6273171"></polygon>
                <path d="M35.4975173,15.6186334 L21.2614197,1.3825358 C20.798272,0.919388098 20.046606,0.919388098 19.5834583,1.3825358 L5.34736078,15.6186334 C4.88421307,16.0817811 4.88421307,16.833447 5.34736078,17.2965947 C5.57134205,17.520576 5.87124917,17.6458537 6.18634146,17.6458537 L13.3043902,17.6458537 L13.3043902,37.8117604 C13.3043902,38.468519 13.8358712,38.9962037 14.4888336,38.9962037 L26.3522482,38.9962037 C27.0090068,38.9962037 27.5366915,38.4647227 27.5366915,37.8117604 L27.5366915,17.6458537 L34.6585366,17.6458537 C35.3152952,17.6458537 35.8467762,17.1143727 35.8467762,16.4614103 C35.8467762,16.146318 35.7214985,15.8426146 35.4975173,15.6186334 Z M15.6770732,34.2546341 L25.1678049,34.2546341 L25.1678049,36.6273171 L15.6770732,36.6273171 L15.6770732,34.2546341 Z M26.3522482,15.2731707 C25.6954896,15.2731707 25.1678049,15.8046517 25.1678049,16.457614 L25.1678049,33.0663945 L15.6770732,33.0663945 L15.6770732,16.457614 C15.6770732,15.8008554 15.1455922,15.2731707 14.4926299,15.2731707 L9.04874615,15.2731707 L20.422439,3.89947785 L31.7961319,15.2731707 L26.3522482,15.2731707 Z" id="Shape" fill="#5F4E56"></path>
            </g>
        </g>
    </g>
</svg>