<?xml version="1.0" encoding="UTF-8" standalone="no"?>
<svg width="60px" height="60px" viewBox="0 0 60 60" version="1.1" xmlns="http://www.w3.org/2000/svg" xmlns:xlink="http://www.w3.org/1999/xlink">
    <!-- Generator: Sketch 40 (33762) - http://www.bohemiancoding.com/sketch -->
    <title>icon_charge_live</title>
    <desc>Created with Sketch.</desc>
    <defs></defs>
    <g id="Page-1" stroke="none" stroke-width="1" fill="none" fill-rule="evenodd">
        <g id="icon_charge_live">
            <g id="理财，投资" transform="translate(4.000000, 0.000000)">
                <g id="Group">
                    <path d="M44.9146005,15.0867218 L49.3496419,11.2546557 C49.9024743,10.7772869 49.9636497,9.94214382 49.4862809,9.38931136 C49.0089122,8.8364789 48.1737691,8.77530347 47.6209366,9.25267221 L42.9408264,13.2963086 C38.8310743,9.92881543 33.3505234,7.78490362 28.0612672,7.41112952 L28.0612672,2.64462812 L36.8749311,2.64462812 C37.605225,2.64462812 38.1972452,2.05260795 38.1972452,1.32231406 C38.1972452,0.59202017 37.605225,0 36.8749311,0 L15.7179063,0 C14.9876124,0 14.3955923,0.59202017 14.3955923,1.32231406 C14.3955923,2.05260795 14.9876124,2.64462812 15.7179063,2.64462812 L25.4166391,2.64462812 L25.4166391,7.36793393 C11.3119559,7.83691463 0,19.4397796 0,33.6449587 C0,48.1472177 11.797686,59.9449036 26.2990633,59.9449036 C40.8004407,59.9449036 52.5981267,48.1472177 52.5981267,33.6449587 C52.5981267,26.4083747 49.6599449,19.8470524 44.9146005,15.0867218 L44.9146005,15.0867218 Z M26.2990633,57.3002755 C13.2557575,57.3002755 2.64374653,46.689146 2.64374653,33.6449587 C2.64374653,20.6016529 13.2557575,9.99052345 26.2990633,9.99052345 C39.3423691,9.99052345 49.9534986,20.6016529 49.9534986,33.6449587 C49.9534986,46.689146 39.3423691,57.3002755 26.2990633,57.3002755 Z" id="Shape" fill="#5F4E56"></path>
                    <path d="M26.2232507,15 C16.1595592,15 8,23.1586777 8,33.2232507 C8,43.2878237 16.1595592,51.4465014 26.2232507,51.4465014 C36.2887052,51.4465014 44.4473829,43.2878237 44.4473829,33.2232507 C44.4473829,23.1586777 36.2887052,15 26.2232507,15 Z M32.7510744,25.7988981 L28.2164187,30.4067218 L30.6697521,30.4067218 C31.6033058,30.4067218 32.3940496,30.6412121 32.3940496,31.3825895 L32.3940496,31.5615427 C32.3940496,32.3038017 31.6033058,33.0513499 30.6697521,33.0513499 L27.1047934,33.0513499 L27.1047934,35.695978 L30.6697521,35.695978 C31.6033058,35.695978 32.3940496,35.9304684 32.3940496,36.6718458 L32.3940496,36.8507989 C32.3940496,37.5930579 31.6033058,38.3406061 30.6697521,38.3406061 L27.1047934,38.3406061 L27.1047934,41.8306336 C27.1047934,42.7430303 26.7222039,43.6298623 25.9808265,43.6298623 L25.8018733,43.6298623 C25.0596144,43.6298623 24.4601653,42.7430303 24.4601653,41.8306336 L24.4601653,38.3406061 L20.5284848,38.3406061 C19.5949311,38.3406061 19.1709091,37.5930579 19.1709091,36.8516805 L19.1709091,36.6727273 C19.1709091,35.9304684 19.5949311,35.695978 20.5284848,35.695978 L24.4601653,35.695978 L24.4601653,33.0513499 L20.5284848,33.0513499 C19.5949311,33.0513499 19.1709091,32.3038017 19.1709091,31.5624243 L19.1709091,31.3834711 C19.1709091,30.6412121 19.5949311,30.4067218 20.5284848,30.4067218 L23.3820386,30.4067218 L18.9364187,25.8879339 C18.403967,25.3563637 18.3995593,24.4633609 18.9231956,23.938843 L19.0510193,23.7933885 C19.5755372,23.2688706 20.2754821,23.4222589 20.8061708,23.9529477 L25.7992287,28.9415978 L30.8804408,23.8577411 C31.4043539,23.3257159 32.260319,23.3190071 32.7925069,23.8427549 L32.919449,24.0067218 C33.4439669,24.5321212 33.2826447,25.2682094 32.7510744,25.7988981 L32.7510744,25.7988981 Z" id="Shape" fill="#BBAA9C"></path>
                </g>
            </g>
        </g>
    </g>
</svg>