<?xml version="1.0" encoding="UTF-8" standalone="no"?>
<svg width="88px" height="88px" viewBox="0 0 88 88" version="1.1" xmlns="http://www.w3.org/2000/svg" xmlns:xlink="http://www.w3.org/1999/xlink">
    <!-- Generator: Sketch 40 (33762) - http://www.bohemiancoding.com/sketch -->
    <title>icon_life</title>
    <desc>Created with Sketch.</desc>
    <defs>
        <circle id="path-1" cx="44" cy="44" r="40"></circle>
        <filter x="-50%" y="-50%" width="200%" height="200%" filterUnits="objectBoundingBox" id="filter-2">
            <feOffset dx="0" dy="0" in="SourceAlpha" result="shadowOffsetOuter1"></feOffset>
            <feGaussianBlur stdDeviation="0.5" in="shadowOffsetOuter1" result="shadowBlurOuter1"></feGaussianBlur>
            <feColorMatrix values="0 0 0 0 0   0 0 0 0 0   0 0 0 0 0  0 0 0 0.5 0" type="matrix" in="shadowBlurOuter1"></feColorMatrix>
        </filter>
    </defs>
    <g id="Page-1" stroke="none" stroke-width="1" fill="none" fill-rule="evenodd">
        <g id="icon_life">
            <g id="Oval">
                <use fill="black" fill-opacity="1" filter="url(#filter-2)" xlink:href="#path-1"></use>
                <use fill="#FFFFFF" fill-rule="evenodd" xlink:href="#path-1"></use>
            </g>
            <g id="Cup" transform="translate(19.000000, 25.000000)">
                <path d="M1.7784,1.7888 L1.7784,19.7054667 C1.7784,31.5792 11.3487,41.2054667 23.1534,41.2054667 C34.9581,41.2054667 44.5284,31.5792 44.5284,19.7054667 L44.5284,1.7888 L1.7784,1.7888 L1.7784,1.7888 Z" id="Shape" fill="#F0EEE2"></path>
                <polygon id="Shape" fill="#BBAA9C" points="3.5625 3.58333333 42.75 3.58333333 42.75 7.16666667 3.5625 7.16666667"></polygon>
                <path d="M46.3125,7.16666667 L46.3125,3.58333333 C46.3125,1.60533333 44.7165,0 42.75,0 L3.5625,0 C1.596,0 0,1.60533333 0,3.58333333 L0,21.5 C0,33.3737333 9.5703,43 21.375,43 L24.9375,43 C34.2456,43 42.1629,37.0201333 45.0984,28.6666667 L46.3125,28.6666667 C52.212,28.6666667 57,23.8506667 57,17.9166667 C57,11.9826667 52.212,7.16666667 46.3125,7.16666667 Z M42.75,21.5 C42.75,31.3957333 34.7757,39.4166667 24.9375,39.4166667 L21.375,39.4166667 C11.5368,39.4166667 3.5625,31.3957333 3.5625,21.5 L3.5625,8.95546667 L42.75,8.95546667 L42.75,21.5 Z M42.75,7.16666667 L3.5625,7.16666667 L3.5625,3.58333333 L42.75,3.58333333 L42.75,7.16666667 Z M46.3125,25.0833333 L46.0161,25.0833333 C46.2156,23.8965333 46.3125,22.6982667 46.3125,21.5 L46.3125,10.75 C50.2455,10.75 53.4375,13.9606667 53.4375,17.9166667 C53.4375,21.8726667 50.2455,25.0833333 46.3125,25.0833333 Z" id="Shape" fill="#5F4E56"></path>
            </g>
        </g>
    </g>
</svg>