<?xml version="1.0" encoding="UTF-8" standalone="no"?>
<svg width="68px" height="68px" viewBox="0 0 68 68" version="1.1" xmlns="http://www.w3.org/2000/svg" xmlns:xlink="http://www.w3.org/1999/xlink">
    <!-- Generator: Sketch 40 (33762) - http://www.bohemiancoding.com/sketch -->
    <title>icon_room_text</title>
    <desc>Created with Sketch.</desc>
    <defs></defs>
    <g id="Page-1" stroke="none" stroke-width="1" fill="none" fill-rule="evenodd">
        <g id="icon_room_text">
            <g id="Group-2" transform="translate(0.000000, -3.000000)">
                <g id="Error" transform="translate(2.000000, 0.000000)">
                    <g id="Group" transform="translate(32.000000, 32.000000) rotate(45.000000) translate(-32.000000, -32.000000) translate(10.000000, 10.000000)">
                        <path d="M21.9486356,16.2438889 L30.0443422,8.14818224 C31.6125022,6.56711557 31.6028222,4.01159557 30.0185289,2.44343557 C28.4471422,0.88495557 25.9109822,0.88495557 24.3395956,2.44343557 L16.2438889,10.5391422 L15.6040791,11.178952 C14.5115073,12.2715239 14.9403156,11.8169022 13.3786089,13.4044222 C11.8362622,14.9725822 12.1292335,14.6537976 11.0333841,15.749647 L9.68860928,17.0944219 L2.44343557,24.3395956 C0.881728903,25.9271156 0.90431557,28.4826356 2.49183557,30.0443422 C4.05999557,31.5866889 6.57679557,31.5866889 8.14495557,30.0443422 L16.2438889,21.9486356 L35.22904,40.9337867 C36.7972,42.5148533 39.3494933,42.52776 40.9337867,40.9596 C42.51808,39.39144 42.52776,36.8391467 40.9596,35.2548533 L21.9486356,16.2438889 Z" id="Shape" fill="#F0EEE2"></path>
                        <path d="M27.7105139,1.78102054 C26.6392605,1.77779388 25.6131805,2.20371388 24.8581405,2.96198054 L21.6895539,6.13056721 L27.3943005,11.8353139 L30.5628872,8.66672721 C32.1375005,7.09211388 32.1375005,4.53659388 30.5628872,2.96198054 C29.8046205,2.20694054 28.7785405,1.78102054 27.7105139,1.78102054 L27.7105139,1.78102054 Z M3.03942054,24.7807005 C1.46480721,26.3553139 1.46480721,28.9108339 3.03942054,30.4854472 C4.61403388,32.0600605 7.16955388,32.0600605 8.74416721,30.4854472 L11.9127539,27.3168605 L6.20800721,21.6121139 L3.03942054,24.7807005 Z" id="Shape" fill="#BBAA9C"></path>
                        <path d="M23.5781022,16.2438889 L30.8574622,8.9645289 C32.8838089,6.93818224 32.8805822,3.65666224 30.8574622,1.63031557 C28.8343422,-0.396031097 25.5495956,-0.39280443 23.5232489,1.63031557 L16.2438889,8.90967557 L15.1568394,9.99672512 C14.1678912,10.9856732 14.6015156,10.5520489 12.5751689,12.5783956 C10.5488222,14.6047422 11.8356686,13.3178958 10.5391422,14.6144222 L8.90967557,16.2438889 L1.63031557,23.5232489 C-0.396031097,25.5495956 -0.396031097,28.8311156 1.63031557,30.8574622 C3.65666224,32.8838089 6.93818224,32.8838089 8.9645289,30.8574622 L16.2438889,23.5781022 L34.4126933,41.7469067 C36.43904,43.7732533 39.72056,43.7732533 41.7469067,41.7469067 C43.7732533,39.72056 43.7732533,36.43904 41.7469067,34.4126933 L23.5781022,16.2438889 Z M29.2279956,3.22106224 C30.3637822,4.33426224 30.3799156,6.16055557 29.2667156,7.29634224 L29.2312222,7.33183557 L26.4691956,10.0938622 L22.3939156,6.0218089 L25.1527156,3.25978224 C26.2659156,2.12399557 28.0922089,2.10786224 29.2279956,3.22106224 Z M7.33506224,29.2279956 C6.22186224,30.3637822 4.3955689,30.3799156 3.25978224,29.2667156 C2.12399557,28.1535156 2.10786224,26.3272222 3.22106224,25.1914356 L3.25655557,25.1559422 L6.01858224,22.3939156 L10.0938622,26.4691956 L7.33506224,29.2279956 Z M38.0814133,40.9628267 C37.3166933,40.9628267 36.58424,40.65952 36.04216,40.11744 L16.2438889,20.3191689 L10.9102089,25.6528489 L6.8349289,21.5775689 L12.1686089,16.2438889 L13.646031,14.7664668 C13.646031,14.7664668 13.0882089,15.3436489 14.2046356,14.2078622 C15.3210622,13.0720756 16.0301771,12.3823207 16.2438889,12.1686089 L21.5775689,6.8349289 L25.6528489,10.9102089 L20.3191689,16.2438889 L40.11744,36.0453867 C41.2435467,37.1714933 41.2435467,38.99456 40.11744,40.1206667 C39.5785867,40.65952 38.8461333,40.9628267 38.0814133,40.9628267 Z" id="Shape" fill="#5F4E56"></path>
                    </g>
                </g>
            </g>
        </g>
    </g>
</svg>