<?xml version="1.0" encoding="UTF-8" standalone="no"?>
<svg width="40px" height="40px" viewBox="0 0 40 40" version="1.1" xmlns="http://www.w3.org/2000/svg" xmlns:xlink="http://www.w3.org/1999/xlink">
    <!-- Generator: Sketch 40 (33762) - http://www.bohemiancoding.com/sketch -->
    <title>icon_room_end_live_b</title>
    <desc>Created with Sketch.</desc>
    <defs></defs>
    <g id="Page-1" stroke="none" stroke-width="1" fill="none" fill-rule="evenodd">
        <g id="icon_room_end_live_b">
            <g id="Group">
                <path d="M2.1856,20 C2.1856,29.8386214 10.1613786,37.8144 20,37.8144 C29.8386214,37.8144 37.8144,29.8386214 37.8144,20 C37.8144,10.1613786 29.8386214,2.1856 20,2.1856 C10.1613786,2.1856 2.1856,10.1613786 2.1856,20 L2.1856,20 Z" id="Shape" fill="#F0EEE2"></path>
                <polygon id="Shape" fill="#BBAA9C" transform="translate(19.841667, 20.158333) rotate(90.000000) translate(-19.841667, -20.158333) " points="17.4666667 27.2833333 22.2166667 27.2833333 22.2166667 13.0333333 17.4666667 13.0333333"></polygon>
                <path d="M28.0712101,22.4522566 L28.0712101,17.7022566 C28.0712101,17.0448566 27.5392101,16.5166566 26.8856101,16.5166566 L12.6356101,16.5166566 C11.9782101,16.5166566 11.4500101,17.0486566 11.4500101,17.7022566 L11.4500101,22.4522566 C11.4500101,23.1096566 11.9820101,23.6378566 12.6356101,23.6378566 L26.8856101,23.6378566 C27.5392101,23.6416566 28.0712101,23.1096566 28.0712101,22.4522566 Z M12.7166667,22.5333333 L12.7166667,17.7833333 L26.9666667,17.7833333 L26.9666667,22.5333333 L12.7166667,22.5333333 Z M20,1 C9.5082,1 1,9.5082 1,20 C1,30.4918 9.5082,39 20,39 C30.4918,39 39,30.4918 39,20 C39,9.5082 30.4918,1 20,1 Z M20,36.6288 C10.8154,36.6288 3.3712,29.1846 3.3712,20 C3.3712,10.8154 10.8154,3.3712 20,3.3712 C29.1846,3.3712 36.6288,10.8154 36.6288,20 C36.6288,29.1846 29.1846,36.6288 20,36.6288 Z" id="Shape" fill="#5F4E56"></path>
            </g>
        </g>
    </g>
</svg>