<?xml version="1.0" encoding="UTF-8" standalone="no"?>
<svg width="60px" height="60px" viewBox="0 0 60 60" version="1.1" xmlns="http://www.w3.org/2000/svg" xmlns:xlink="http://www.w3.org/1999/xlink">
    <!-- Generator: Sketch 40 (33762) - http://www.bohemiancoding.com/sketch -->
    <title>icon_start_time</title>
    <desc>Created with Sketch.</desc>
    <defs></defs>
    <g id="Page-1" stroke="none" stroke-width="1" fill="none" fill-rule="evenodd">
        <g id="icon_start_time">
            <g id="Time">
                <g id="Group" transform="translate(8.000000, 8.000000)">
                    <path d="M1.3728,22 C1.3728,33.392088 10.607912,42.6272 22,42.6272 C33.392088,42.6272 42.6272,33.392088 42.6272,22 C42.6272,10.607912 33.392088,1.3728 22,1.3728 C10.607912,1.3728 1.3728,10.607912 1.3728,22 L1.3728,22 Z" id="Shape" fill="#F0EEE2"></path>
                    <path d="M18.5636,22 C18.5636,23.8978713 20.1021287,25.4364 22,25.4364 C23.8978713,25.4364 25.4364,23.8978713 25.4364,22 C25.4364,20.1021287 23.8978713,18.5636 22,18.5636 C20.1021287,18.5636 18.5636,20.1021287 18.5636,22 L18.5636,22 Z" id="Shape" fill="#BBAA9C"></path>
                    <path d="M22,36.4364 C21.6216,36.4364 21.3136,36.7444 21.3136,37.1228 C21.3136,37.5012 21.6216,37.8092 22,37.8092 C22.3784,37.8092 22.6864,37.5012 22.6864,37.1228 C22.6864,36.7444 22.3784,36.4364 22,36.4364 L22,36.4364 Z M14.7796,34.5004 C14.4496,34.3112 14.0316,34.4256 13.8424,34.7512 C13.6532,35.0768 13.7676,35.4992 14.0932,35.6884 C14.4232,35.8776 14.8412,35.7676 15.0304,35.4376 C15.224,35.112 15.1096,34.694 14.7796,34.5004 Z M14.0932,8.3072 C13.7632,8.4964 13.6532,8.9188 13.8424,9.2444 C14.0316,9.57 14.454,9.6844 14.7796,9.4952 C15.1096,9.306 15.2196,8.8836 15.0304,8.558 C14.8412,8.228 14.4232,8.118 14.0932,8.3072 L14.0932,8.3072 Z M6.8728,21.3136 C6.4944,21.3136 6.1864,21.6216 6.1864,22 C6.1864,22.3784 6.4944,22.6864 6.8728,22.6864 C7.2512,22.6864 7.5592,22.3784 7.5592,22 C7.5636,21.6216 7.2556,21.3136 6.8728,21.3136 L6.8728,21.3136 Z M8.558,28.9696 C8.228,29.1588 8.118,29.5812 8.3072,29.9068 C8.4964,30.2368 8.9188,30.3468 9.2444,30.1576 C9.5744,29.9684 9.6844,29.546 9.4952,29.2204 C9.306,28.8904 8.888,28.776 8.558,28.9696 Z M9.2444,13.8424 C8.9144,13.6532 8.4964,13.7676 8.3072,14.0932 C8.118,14.4232 8.2324,14.8412 8.558,15.0304 C8.888,15.2196 9.306,15.1096 9.4952,14.7796 C9.6888,14.454 9.5744,14.0316 9.2444,13.8424 L9.2444,13.8424 Z M37.1272,21.3136 C36.7488,21.3136 36.4408,21.6216 36.4408,22 C36.4408,22.3784 36.7488,22.6864 37.1272,22.6864 C37.5056,22.6864 37.8136,22.3784 37.8136,22 C37.8136,21.6216 37.5056,21.3136 37.1272,21.3136 L37.1272,21.3136 Z M35.442,28.9696 C35.112,28.7804 34.694,28.8948 34.5048,29.2204 C34.3156,29.5504 34.43,29.9684 34.7556,30.1576 C35.0856,30.3468 35.5036,30.2368 35.6928,29.9068 C35.8864,29.5768 35.772,29.1588 35.442,28.9696 C35.442,28.9652 35.442,28.9652 35.442,28.9696 Z M22,0 C9.8516,0 0,9.8516 0,22 C0,34.1484 9.8516,44 22,44 C34.1484,44 44,34.1484 44,22 C44,9.8516 34.1484,0 22,0 Z M22,41.25 C11.3696,41.25 2.75,32.6304 2.75,22 C2.75,11.3696 11.3696,2.75 22,2.75 C32.6304,2.75 41.25,11.3696 41.25,22 C41.25,32.6304 32.6304,41.25 22,41.25 Z M30.0344,30.0344 C30.3028,29.766 30.3028,29.3304 30.0344,29.062 L25.3616,24.3892 C26.6816,22.5324 26.246,19.954 24.3892,18.634 C23.8832,18.2732 23.3024,18.0312 22.6864,17.93 L22.6864,6.8728 C22.6864,6.4944 22.3784,6.1864 22,6.1864 C21.6216,6.1864 21.3136,6.4944 21.3136,6.8728 L21.3136,17.93 C19.0696,18.3084 17.556,20.438 17.9344,22.6864 C18.3128,24.9348 20.4424,26.444 22.6908,26.0656 C23.3024,25.96 23.8832,25.7224 24.3892,25.3616 L29.062,30.0344 C29.3304,30.3028 29.766,30.3028 30.0344,30.0344 L30.0344,30.0344 Z M22,24.75 C20.482,24.75 19.25,23.518 19.25,22 C19.25,20.482 20.482,19.25 22,19.25 C23.518,19.25 24.75,20.482 24.75,22 C24.75,23.518 23.518,24.75 22,24.75 Z M29.9068,8.3072 C29.5768,8.118 29.1588,8.2324 28.9696,8.558 C28.7804,8.888 28.8948,9.306 29.2204,9.4952 C29.5504,9.6844 29.9684,9.5744 30.1576,9.2444 C30.3468,8.9144 30.2368,8.4964 29.9068,8.3072 Z M29.2204,34.5048 C28.8904,34.694 28.7804,35.1164 28.9696,35.442 C29.1588,35.772 29.5812,35.882 29.9068,35.6928 C30.2368,35.5036 30.3468,35.0812 30.1576,34.7556 C29.9684,34.4256 29.546,34.3112 29.2204,34.5048 Z M34.7556,13.8424 C34.4256,14.0316 34.3156,14.454 34.5048,14.7796 C34.694,15.1096 35.1164,15.2196 35.442,15.0304 C35.772,14.8412 35.882,14.4188 35.6928,14.0932 C35.5036,13.7632 35.0856,13.6532 34.7556,13.8424 Z" id="Shape" fill="#5F4E56"></path>
                </g>
            </g>
        </g>
    </g>
</svg>