<?xml version="1.0" encoding="UTF-8" standalone="no"?>
<svg width="68px" height="68px" viewBox="0 0 68 68" version="1.1" xmlns="http://www.w3.org/2000/svg" xmlns:xlink="http://www.w3.org/1999/xlink">
    <!-- Generator: Sketch 40 (33762) - http://www.bohemiancoding.com/sketch -->
    <title>icon_room_material</title>
    <desc>Created with Sketch.</desc>
    <defs></defs>
    <g id="Page-1" stroke="none" stroke-width="1" fill="none" fill-rule="evenodd">
        <g id="icon_room_material">
            <g id="Folder">
                <g id="Group" transform="translate(12.000000, 16.000000)">
                    <path d="M41.25,6.875 L27.5,6.875 C24.332,6.875 21.956,5.291 19.8616,3.8918 C17.9168,2.5982 16.082,1.375 13.75,1.375 L2.75,1.375 C1.9932,1.375 1.3772,1.991 1.3772,2.7478 L1.3772,32.9978 C1.3772,33.7546 1.9932,34.3706 2.75,34.3706 L41.25,34.3706 C42.0068,34.3706 42.6228,33.7546 42.6228,32.9978 L42.6228,8.2478 C42.6228,7.491 42.0068,6.875 41.25,6.875 Z" id="Shape" fill="#F0EEE2"></path>
                    <polygon id="Shape" fill="#BBAA9C" points="2.75 30.2478 41.25 30.2478 41.25 32.9978 2.75 32.9978"></polygon>
                    <path d="M41.25,5.5022 L27.5,5.5022 C22,5.5022 19.25,0.0022 13.75,0.0022 L2.75,0.0022 C1.232,0.0022 0,1.2298 0,2.7478 L0,32.9978 C0,34.5158 1.232,35.7478 2.75,35.7478 L41.25,35.7478 C42.768,35.7478 44,34.5158 44,32.9978 L44,8.2478 C44,6.7298 42.768,5.5022 41.25,5.5022 Z M41.25,33.0022 L2.75,33.0022 L2.75,30.2522 L41.25,30.2522 L41.25,33.0022 Z M41.25,28.875 L2.75,28.875 L2.75,2.7478 L13.75,2.7478 C15.6684,2.7478 17.2568,3.8082 19.1004,5.0358 C21.3576,6.5406 23.9184,8.2478 27.5,8.2478 L41.25,8.2478 L41.25,28.875 Z" id="Shape" fill="#5F4E56"></path>
                </g>
            </g>
        </g>
    </g>
</svg>