<?xml version="1.0" encoding="UTF-8" standalone="no"?>
<svg width="60px" height="60px" viewBox="0 0 60 60" version="1.1" xmlns="http://www.w3.org/2000/svg" xmlns:xlink="http://www.w3.org/1999/xlink">
    <!-- Generator: Sketch 40 (33762) - http://www.bohemiancoding.com/sketch -->
    <title>icon_distribution_market</title>
    <desc>Created with Sketch.</desc>
    <defs></defs>
    <g id="Page-1" stroke="none" stroke-width="1" fill="none" fill-rule="evenodd">
        <g id="icon_distribution_market">
            <g id="Puzzle">
                <g id="Group">
                    <g transform="translate(30.000000, 30.000000) rotate(-45.000000) translate(-30.000000, -30.000000) translate(10.000000, 10.000000)">
                        <path d="M33.5188477,14.3283214 L32.2401125,13.0483374 L33.8904801,12.3083467 C35.2411442,11.7003543 36.4319664,10.9323639 37.1672391,10.2003731 C39.2092194,8.14839879 39.2092194,4.82844035 37.159247,2.78446594 C35.1092746,0.740491523 31.7925552,0.740491523 29.7505749,2.79246582 C29.0192982,3.52445664 28.2560531,4.70844184 27.6486539,6.05242504 L26.905389,7.70040437 L25.6266538,6.42042043 L20.8393889,1.62048051 C20.3558671,1.1324866 19.5686458,1.1324866 19.081128,1.62048051 L13.9821713,6.72841656 C14.7254362,7.16441109 15.3727959,7.64040516 15.8363374,8.10039938 C17.9622347,10.2403726 17.9502465,13.7003293 15.808365,15.8283026 C13.6784717,17.9482761 10.2338787,17.9442761 8.10798142,15.8203027 C7.64843594,15.3643084 7.17690236,14.7243164 6.74133319,13.9883257 L1.62239629,19.1202614 C1.13487848,19.6082553 1.13487848,20.4002454 1.62239629,20.8882393 L6.40566521,25.6841792 L7.68040437,26.9641632 L6.03403278,27.7081539 C4.69535684,28.3121463 3.51252679,29.0761368 2.78524613,29.8041277 C0.747261893,31.8441021 0.751257951,35.1480607 2.78524613,37.1880352 C3.76427778,38.1680229 5.0949616,38.720016 6.48159009,38.7160161 C7.86821858,38.7200161 9.1989024,38.168023 10.177934,37.1880352 C10.9012187,36.4640443 11.6644637,35.284059 12.2638709,33.9560757 L13.0071357,32.3080963 L14.2818749,33.5880803 L19.0771319,38.3920201 C19.5606537,38.880014 20.347875,38.880014 20.8353928,38.3960201 L20.8393889,38.3920201 L25.9383455,33.2760842 C25.1950807,32.8400896 24.551717,32.3680955 24.0921716,31.9081013 C21.9622782,29.7921278 21.946294,26.3521709 24.0602032,24.2201976 L24.0921716,24.188198 C26.234053,22.0602246 29.6906341,22.0602246 31.8325156,24.188198 C32.2880651,24.6401923 32.7595987,25.2761843 33.1951678,26.0041752 L38.2941245,20.8922392 C38.7816423,20.4042453 38.7816423,19.6122552 38.2941245,19.1242614 L33.5188477,14.3283214 Z" id="Shape" fill="#F0EEE2"></path>
                        <path d="M3.74829358,30.0001252 C3.32471255,30.0001252 2.90512757,30.0441246 2.49353467,30.1281236 C0.631376507,32.3280961 0.911099863,35.6200548 3.10892597,37.4800316 C4.05199317,38.2760216 5.2468114,38.7120161 6.48159009,38.7120161 C7.72436086,38.7160161 8.92717116,38.2720216 9.8702384,37.4600318 C10.5415744,34.0760742 8.34374825,30.7921153 4.96708808,30.1201237 C4.56348726,30.0401247 4.15589042,30.0001252 3.74829358,30.0001252 L3.74829358,30.0001252 Z M37.1352707,2.81646555 C35.2091758,0.888489687 32.1242271,0.768491172 30.0502784,2.53646906 C29.3829385,5.92442664 31.5847607,9.21238547 34.969413,9.88037711 C35.7806106,10.0403751 36.6157845,10.0363752 37.4269822,9.87237719 C39.1852431,7.80440309 39.0573696,4.73244152 37.1352707,2.81646555 L37.1352707,2.81646555 Z" id="Shape" fill="#BBAA9C"></path>
                        <path d="M34.4139623,13.4443325 C35.8845078,12.7843407 37.2032035,11.9283514 38.0583577,11.0803621 C40.5918518,8.55239371 40.5958479,4.45244504 38.0703458,1.9164768 L38.0583577,1.90447695 C35.5208675,-0.631491289 31.4089346,-0.631491289 28.8714444,1.90447695 C28.0202863,2.75246633 27.1691282,4.06444992 26.5097803,5.5284316 L21.7265114,0.732491641 C20.7554719,-0.243496133 19.1770331,-0.243496133 18.2019975,0.72849168 L18.1980014,0.732491641 L11.8842464,7.06041242 C13.1430013,7.5964057 14.3018551,8.32839656 14.9572069,8.98438832 C16.5995824,10.6163679 16.6075746,13.2723346 14.9771872,14.9163141 L14.9572069,14.9363138 C13.3068393,16.5802932 10.6374795,16.5802932 8.98711188,14.9363138 C8.33176008,14.284322 7.60447945,13.1363363 7.06900909,11.8923519 L0.731277698,18.2322725 C-0.243757893,19.2082603 -0.243757893,20.7922405 0.731277698,21.7682283 L5.51454658,26.5601683 C4.05199317,27.22016 2.74528562,28.0681494 1.89812359,28.9121388 C-0.627378459,31.4321073 -0.631374478,35.5240561 1.88613545,38.0520244 L1.89812359,38.0640243 C4.42762166,40.5919926 8.52756644,40.5919926 11.0570645,38.0640243 C11.9002305,37.2200348 12.7473926,35.9200511 13.4027444,34.4640693 L18.1940054,39.2640092 C19.165045,40.239997 20.7434837,40.239997 21.7185193,39.2680092 L21.7225154,39.2640092 L28.0442626,32.9320885 C26.7855076,32.3960952 25.6306498,31.6681043 24.9752981,31.0161125 C23.3329225,29.3881329 23.3209344,26.740166 24.9473257,25.0961866 L24.9752981,25.068187 C26.6336578,23.4242075 29.3030176,23.4242075 30.9613772,25.068187 C31.612733,25.7161788 32.3400137,26.8521646 32.875484,28.0921491 L39.1892391,21.7682283 C40.1642747,20.7922405 40.1642747,19.2082604 39.1892391,18.2322725 L34.4139623,13.4443325 Z M36.2201758,3.68845461 C37.7306818,5.20843559 37.8385751,7.62840527 36.4679308,9.27238473 C36.403994,9.27638469 36.3400572,9.27638469 36.2761205,9.27638465 C33.1711915,9.27638465 30.6576777,6.75641621 30.6576777,3.65245508 C30.6576777,3.58045598 30.6576777,3.51245684 30.6616737,3.44445766 C32.2920611,2.06447492 34.7096699,2.17247359 36.2201758,3.68845461 L36.2201758,3.68845461 Z M9.36274037,36.4720442 C7.66042412,37.9880252 5.05100507,37.8360271 3.532507,36.1320484 C2.1378864,34.5640681 2.1378864,32.1960977 3.54049912,30.6281173 C3.60843192,30.6241174 3.68036078,30.6241174 3.74829358,30.6241174 C6.85322252,30.6241174 9.36673639,33.1400859 9.36673643,36.248047 C9.36673643,36.3240461 9.36274037,36.3960452 9.36274037,36.4720442 L9.36274037,36.4720442 Z M33.3190453,24.1161989 C33.0752864,23.788203 32.8115473,23.4802068 32.5278279,23.1922104 C29.9423851,20.6002429 25.7465353,20.5962429 23.1570964,23.1842105 C20.5676576,25.7721782 20.5636616,29.9721255 23.1491044,32.5640931 C23.4408158,32.8520895 23.7565036,33.1200861 24.0841795,33.3640831 L19.9602584,37.5000313 L12.1639697,29.6881291 C12.3357997,31.2561095 11.4886377,33.4800816 10.509606,35.0400621 C10.002108,32.2080976 7.78829764,29.9881254 4.959096,29.4801317 C6.50956246,28.496144 8.73136488,27.6401548 10.2938194,27.8121526 L2.49353467,20.0002504 L6.61745573,15.8683021 C6.86121463,16.200298 7.12894981,16.516294 7.42066127,16.8082904 C10.006104,19.392258 14.1979579,19.392258 16.7794046,16.8042904 C19.3608512,14.2163229 19.3608513,10.0203754 16.7754085,7.4364077 C16.4836971,7.14841129 16.1680093,6.88041465 15.8363374,6.6364177 L19.9602584,2.50046949 L27.7565472,10.3123717 C27.576725,8.69639191 28.4838278,6.3804209 29.5028199,4.82044043 C29.9983298,7.68840453 32.2401125,9.93237645 35.1052786,10.4283702 C33.5548121,11.4483575 31.2411006,12.364346 29.6306934,12.1883482 L37.4269822,20.0002504 L33.3190453,24.1161989 Z" id="Shape" fill="#5F4E56"></path>
                    </g>
                </g>
            </g>
        </g>
    </g>
</svg>