<?xml version="1.0" encoding="UTF-8" standalone="no"?>
<svg width="88px" height="88px" viewBox="0 0 88 88" version="1.1" xmlns="http://www.w3.org/2000/svg" xmlns:xlink="http://www.w3.org/1999/xlink">
    <!-- Generator: Sketch 40 (33762) - http://www.bohemiancoding.com/sketch -->
    <title>icon_body_building</title>
    <desc>Created with Sketch.</desc>
    <defs>
        <circle id="path-1" cx="40" cy="40" r="40"></circle>
        <filter x="-50%" y="-50%" width="200%" height="200%" filterUnits="objectBoundingBox" id="filter-2">
            <feOffset dx="0" dy="0" in="SourceAlpha" result="shadowOffsetOuter1"></feOffset>
            <feGaussianBlur stdDeviation="0.5" in="shadowOffsetOuter1" result="shadowBlurOuter1"></feGaussianBlur>
            <feColorMatrix values="0 0 0 0 0   0 0 0 0 0   0 0 0 0 0  0 0 0 0.5 0" type="matrix" in="shadowBlurOuter1"></feColorMatrix>
        </filter>
    </defs>
    <g id="Page-1" stroke="none" stroke-width="1" fill="none" fill-rule="evenodd">
        <g id="icon_body_building">
            <g id="健身" transform="translate(4.000000, 4.000000)">
                <g id="Oval">
                    <use fill="black" fill-opacity="1" filter="url(#filter-2)" xlink:href="#path-1"></use>
                    <use fill="#FFFFFF" fill-rule="evenodd" xlink:href="#path-1"></use>
                </g>
                <g id="健身-2" transform="translate(11.000000, 21.000000)">
                    <path d="M53.9530782,4.87281434 L53.1518024,4.87281434 C52.6578262,4.87281434 52.185027,4.94842112 51.7481425,5.08579667 L51.7481425,4.48998184 C51.7481425,2.01420896 49.3517504,5.58361834e-05 46.4062818,5.58361834e-05 C43.3272452,5.58361834e-05 40.9308531,2.01420896 40.9308531,4.48998184 L40.9308531,15.9853909 L17.0257494,15.9853909 L17.0257494,4.489926 C17.0257494,2.01415312 14.6294236,0 11.6838887,0 C8.60478572,0 6.20845995,2.01415312 6.20845995,4.489926 L6.20845995,5.08479221 C5.77237211,4.94797464 5.30056866,4.87275845 4.807721,4.87275845 L4.00644527,4.87275851 C1.79374244,4.87275851 0,6.38042995 0,8.24024483 L0,30.3532434 C0,32.2130582 1.79374244,33.7207297 4.00644527,33.7207297 L4.80772106,33.7207297 C5.30056872,33.7207297 5.77237211,33.6455135 6.20846001,33.5086959 L6.20846001,34.3481821 C6.20846001,36.8238992 8.60478578,38.8381081 11.5503207,38.8381081 C14.6294237,38.8381081 17.0257495,36.8238992 17.0257495,34.3481821 L17.0257494,22.9448404 L40.9307203,22.9448404 L40.9307203,34.3481822 C40.9307203,36.8238993 43.3271125,38.8381082 46.272581,38.8381082 C49.3516176,38.8381082 51.7480098,36.8238993 51.7480098,34.3481822 L51.7480098,33.5077474 C52.1848943,33.6451787 52.6577598,33.7207297 53.1516697,33.7207297 L53.9529455,33.7207297 C56.1656483,33.7207297 57.9593907,32.2130583 57.9593907,30.3532434 L57.9593907,8.24024489 C57.9594571,6.38043001 56.1657147,4.87281434 53.9530782,4.87281434 Z M6.14320278,30.3532434 C6.14320278,30.9731631 5.54526649,31.4757389 4.807721,31.4757389 L4.00644527,31.4757389 C3.26889978,31.4757389 2.67096349,30.9731631 2.67096349,30.3532434 L2.67096349,8.24024489 C2.67096349,7.62032519 3.26889978,7.11774943 4.00644527,7.11774943 L4.80772106,7.11774943 C5.54526655,7.11774943 6.14320284,7.62032519 6.14320284,8.24024489 L6.14320278,30.3532434 Z M11.6838887,36.5931173 L11.5503206,36.5931173 C10.0775532,36.5931173 8.87935708,35.5860687 8.87935708,34.3481264 L8.87935714,4.489926 C8.87935714,3.25203956 10.0775532,2.24493508 11.5503207,2.24493508 L11.6838888,2.24493508 C13.1565899,2.24493508 14.3548523,3.25203956 14.3548523,4.489926 L14.3548523,34.3481264 C14.3548523,35.5860686 13.1566562,36.5931173 11.6838887,36.5931173 Z M17.0257494,20.6998495 L17.0257494,18.2303819 L40.8653967,18.2303819 L40.8653967,20.6998495 L17.0257494,20.6998495 Z M49.0771126,34.3481264 C49.0771126,35.5860128 47.8789829,36.5931173 46.406149,36.5931173 L46.2725809,36.5931173 C44.7998135,36.5931173 43.6016174,35.5860687 43.6016174,34.3481264 L43.6016174,4.489926 C43.6016174,3.25203956 44.7997471,2.24493508 46.272581,2.24493508 L46.4061491,2.24493508 C47.8789165,2.24493508 49.0771126,3.25203956 49.0771126,4.489926 L49.0771126,34.3481264 Z M55.28856,30.3532434 C55.28856,30.9731631 54.6906237,31.4757389 53.9530782,31.4757389 L53.1518024,31.4757389 C52.4142569,31.4757389 51.8163206,30.9731631 51.8163206,30.3532434 L51.8163207,8.24024489 C51.8163207,7.62032519 52.414257,7.11774943 53.1518025,7.11774943 L53.9530783,7.11774943 C54.6906237,7.11774943 55.28856,7.62032519 55.28856,8.24024489 L55.28856,30.3532434 Z" id="Shape" fill="#5F4E56"></path>
                    <path d="M55.28856,30.3532434 C55.28856,30.9731631 54.6906237,31.4757389 53.9530782,31.4757389 L53.1518024,31.4757389 C52.4142569,31.4757389 51.8163206,30.9731631 51.8163206,30.3532434 L51.8163207,8.24024489 C51.8163207,7.62032519 52.414257,7.11774943 53.1518025,7.11774943 L53.9530783,7.11774943 C54.6906237,7.11774943 55.28856,7.62032519 55.28856,8.24024489 L55.28856,30.3532434 Z" id="Path" fill="#BBAA9C"></path>
                    <path d="M49.0771126,34.3481264 C49.0771126,35.5860128 47.8789829,36.5931173 46.406149,36.5931173 L46.2725809,36.5931173 C44.7998135,36.5931173 43.6016174,35.5860687 43.6016174,34.3481264 L43.6016174,4.489926 C43.6016174,3.25203956 44.7997471,2.24493508 46.272581,2.24493508 L46.4061491,2.24493508 C47.8789165,2.24493508 49.0771126,3.25203956 49.0771126,4.489926 L49.0771126,34.3481264 Z" id="Path" fill="#F0EEE2"></path>
                    <polygon id="Path" fill="#F0EEE2" points="40.8654631 20.6998495 17.0257494 20.6998495 17.0257494 18.2303819 40.8653967 18.2303819 40.8653967 20.6998495"></polygon>
                    <path d="M11.6838887,36.5931173 L11.5503206,36.5931173 C10.0775532,36.5931173 8.87935708,35.5860687 8.87935708,34.3481264 L8.87935714,4.489926 C8.87935714,3.25203956 10.0775532,2.24493508 11.5503207,2.24493508 L11.6838888,2.24493508 C13.1565899,2.24493508 14.3548523,3.25203956 14.3548523,4.489926 L14.3548523,34.3481264 C14.3548523,35.5860686 13.1566562,36.5931173 11.6838887,36.5931173 Z" id="Path" fill="#F0EEE2"></path>
                    <path d="M6.14320278,30.3532434 C6.14320278,30.9731631 5.54526649,31.4757389 4.807721,31.4757389 L4.00644527,31.4757389 C3.26889978,31.4757389 2.67096349,30.9731631 2.67096349,30.3532434 L2.67096349,8.24024489 C2.67096349,7.62032519 3.26889978,7.11774943 4.00644527,7.11774943 L4.80772106,7.11774943 C5.54526655,7.11774943 6.14320284,7.62032519 6.14320284,8.24024489 L6.14320278,30.3532434 Z" id="Path" fill="#BBAA9C"></path>
                </g>
            </g>
        </g>
    </g>
</svg>