<?xml version="1.0" encoding="UTF-8" standalone="no"?>
<svg width="88px" height="88px" viewBox="0 0 88 88" version="1.1" xmlns="http://www.w3.org/2000/svg" xmlns:xlink="http://www.w3.org/1999/xlink">
    <!-- Generator: Sketch 40 (33762) - http://www.bohemiancoding.com/sketch -->
    <title>icon_baby</title>
    <desc>Created with Sketch.</desc>
    <defs>
        <circle id="path-1" cx="40" cy="40" r="40"></circle>
        <filter x="-50%" y="-50%" width="200%" height="200%" filterUnits="objectBoundingBox" id="filter-2">
            <feOffset dx="0" dy="0" in="SourceAlpha" result="shadowOffsetOuter1"></feOffset>
            <feGaussianBlur stdDeviation="0.5" in="shadowOffsetOuter1" result="shadowBlurOuter1"></feGaussianBlur>
            <feColorMatrix values="0 0 0 0 0   0 0 0 0 0   0 0 0 0 0  0 0 0 0.5 0" type="matrix" in="shadowBlurOuter1"></feColorMatrix>
        </filter>
    </defs>
    <g id="Page-1" stroke="none" stroke-width="1" fill="none" fill-rule="evenodd">
        <g id="icon_baby">
            <g id="Group-5" transform="translate(4.000000, 4.000000)">
                <g id="Oval">
                    <use fill="black" fill-opacity="1" filter="url(#filter-2)" xlink:href="#path-1"></use>
                    <use fill="#FFFFFF" fill-rule="evenodd" xlink:href="#path-1"></use>
                </g>
                <g id="奶瓶" transform="translate(18.000000, 12.000000)">
                    <g id="Group">
                        <path d="M39.7170638,47.2033508 C39.7170638,48.9336126 38.31794,50.3246073 36.6028849,50.3246073 L6.72482103,50.3246073 C4.99848274,50.3246073 3.61064216,48.9223037 3.61064216,47.2033508 L3.61064216,27.0961257 C3.61064216,25.3658639 5.009766,23.9748691 6.72482103,23.9748691 L36.6028849,23.9748691 C38.3292232,23.9748691 39.7170638,25.3771728 39.7170638,27.0961257 L39.7170638,47.2033508 L39.7170638,47.2033508 Z" id="Path" fill="#F0EEE2"></path>
                        <path d="M11.7120205,10.2910995 L17.1505503,10.2910995 C18.1434769,10.2910995 18.9558714,9.47685864 18.9558714,8.48167539 L18.9558714,6.27643979 C18.9558714,4.84020942 20.1744631,3.63015707 21.6187199,3.61884817 C23.0742601,3.63015707 24.259002,4.81759162 24.259002,6.27643979 L24.259002,8.48167539 C24.259002,9.47685864 25.0713965,10.2910995 26.0643231,10.2910995 L31.5367026,10.2910995 C34.3011005,10.2910995 36.5577519,12.5189529 36.5577519,15.2670157 C36.5577519,18.0150785 34.3011005,20.2429319 31.5367026,20.2429319 L11.7120205,20.2429319 C8.9250561,20.2429319 6.65712149,18.0150785 6.65712149,15.2670157 C6.65712149,12.5189529 8.9250561,10.2910995 11.7120205,10.2910995 Z" id="Path" fill="#BBAA9C"></path>
                        <path d="M38.3066567,20.5595812 C39.4575489,19.100733 40.1683941,17.2686911 40.1683941,15.2783246 C40.1683941,10.5398953 36.298237,6.68356021 31.5367026,6.68356021 L27.8696442,6.68356021 L27.8696442,6.28774869 C27.8696442,2.84984293 25.093963,0.0565445026 21.6751362,0.0113089005 L21.5735869,0.0113089005 C18.1321936,0.0339267016 15.3452292,2.83853403 15.3452292,6.27643979 L15.3452292,6.67225131 L11.7120205,6.67225131 C6.93920291,6.67225131 3.04647932,10.5285864 3.04647932,15.2670157 C3.04647932,17.2573822 3.74604124,19.100733 4.90821669,20.5595812 C2.07611924,21.3512042 0,23.9635602 0,27.0508901 L0,47.180733 C0,50.8900524 2.99006304,53.9434555 6.70225451,53.9434555 L36.5464686,53.9434555 C40.2586601,53.9434555 43.2148734,50.8900524 43.2148734,47.180733 L43.2148734,27.0508901 C43.2148734,23.9522513 41.1500374,21.3398953 38.3066567,20.5595812 L38.3066567,20.5595812 Z M11.7120205,10.2910995 L17.1505503,10.2910995 C18.1434769,10.2910995 18.9558714,9.47685864 18.9558714,8.48167539 L18.9558714,6.27643979 C18.9558714,4.84020942 20.1744631,3.63015707 21.6187199,3.61884817 C23.0742601,3.63015707 24.259002,4.81759162 24.259002,6.27643979 L24.259002,8.48167539 C24.259002,9.47685864 25.0713965,10.2910995 26.0643231,10.2910995 L31.5367026,10.2910995 C34.3011005,10.2910995 36.5577519,12.5189529 36.5577519,15.2670157 C36.5577519,18.0150785 34.3011005,20.2429319 31.5367026,20.2429319 L11.7120205,20.2429319 C8.9250561,20.2429319 6.65712149,18.0150785 6.65712149,15.2670157 C6.65712149,12.5189529 8.9250561,10.2910995 11.7120205,10.2910995 Z M39.7170638,47.2033508 C39.7170638,48.9336126 38.31794,50.3246073 36.6028849,50.3246073 L6.72482103,50.3246073 C4.99848274,50.3246073 3.61064216,48.9223037 3.61064216,47.2033508 L3.61064216,27.0961257 C3.61064216,25.3658639 5.009766,23.9748691 6.72482103,23.9748691 L36.6028849,23.9748691 C38.3292232,23.9748691 39.7170638,25.3771728 39.7170638,27.0961257 L39.7170638,47.2033508 L39.7170638,47.2033508 Z" id="Shape" fill="#5F4E56"></path>
                        <path d="M9.82771664,31.5518325 L14.8938989,31.5518325 C15.8868255,31.5518325 16.69922,30.7375916 16.69922,29.7424084 C16.69922,28.7472251 15.8868255,27.9329843 14.8938989,27.9329843 L9.82771664,27.9329843 C8.83479004,27.9329843 8.02239556,28.7472251 8.02239556,29.7424084 C8.02239556,30.7375916 8.83479004,31.5518325 9.82771664,31.5518325 Z M20.1970296,34.9445026 L9.83899989,34.9445026 C8.8460733,34.9445026 8.03367881,35.7587435 8.03367881,36.7539267 C8.03367881,37.7491099 8.8460733,38.5633508 9.83899989,38.5633508 L20.1970296,38.5633508 C21.1899562,38.5633508 22.0023507,37.7491099 22.0023507,36.7539267 C22.0023507,35.7587435 21.1899562,34.9445026 20.1970296,34.9445026 Z M14.9051822,42.182199 L9.83899989,42.182199 C8.8460733,42.182199 8.03367881,42.9964398 8.03367881,43.991623 C8.03367881,44.9868063 8.8460733,45.8010471 9.83899989,45.8010471 L14.9051822,45.8010471 C15.8981088,45.8010471 16.7105033,44.9868063 16.7105033,43.991623 C16.7105033,42.9964398 15.8981088,42.182199 14.9051822,42.182199 Z" id="Shape" fill="#5F4E56"></path>
                    </g>
                </g>
            </g>
        </g>
    </g>
</svg>