<?xml version="1.0" encoding="UTF-8" standalone="no"?>
<svg width="28px" height="28px" viewBox="0 0 28 28" version="1.1" xmlns="http://www.w3.org/2000/svg" xmlns:xlink="http://www.w3.org/1999/xlink">
    <!-- Generator: Sketch 40 (33762) - http://www.bohemiancoding.com/sketch -->
    <title>icon_edit</title>
    <desc>Created with Sketch.</desc>
    <defs></defs>
    <g id="Page-1" stroke="none" stroke-width="1" fill="none" fill-rule="evenodd">
        <g id="icon_edit" fill="#616161">
            <g id="编辑-2-copy">
                <path d="M25.2156205,23.4394464 L4.78437954,23.4394464 C4.354838,23.4394464 4.0186763,23.902861 4.0186763,24.4394463 C4.0186763,24.9760318 4.3735143,25.4394464 4.78437954,25.4394464 L25.2342951,25.4394464 C25.6638366,25.4394464 26,24.9760318 26,24.4394463 C26,23.902861 25.645162,23.4394464 25.2156205,23.4394464 L25.2156205,23.4394464 Z M4.0186763,16.5311418 L4,20.2422145 C4,20.451557 4.07470354,20.6608997 4.22410893,20.8131489 C4.3735143,20.965398 4.5602723,21.0415226 4.76570493,21.0415226 L8.38879523,21.0224914 C8.59422784,21.0224914 8.78098416,20.9463668 8.93039123,20.7941177 L21.4431248,8.04325259 C21.7419355,7.73875431 21.7419355,7.2439447 21.4431248,6.92041524 L17.8573854,3.22837371 C17.5585746,2.92387543 17.0730058,2.92387543 16.7555171,3.22837371 L14.2529714,5.79757788 L4.24278354,15.9792388 C4.11205446,16.1314879 4.0186763,16.3217993 4.0186763,16.5311418 L4.0186763,16.5311418 Z M17.3157894,4.90311424 L19.8370114,7.47231841 L18.4176577,8.91868506 L15.896434,6.34948106 L17.3157894,4.90311424 Z M5.56876077,16.8737025 L14.7945674,7.47231841 L17.3157894,10.0415226 L8.08998277,19.4238754 L5.55008446,19.4429066 L5.56876077,16.8737025 L5.56876077,16.8737025 Z" id="Shape"></path>
            </g>
        </g>
    </g>
</svg>