<?xml version="1.0" encoding="UTF-8" standalone="no"?>
<svg width="40px" height="40px" viewBox="0 0 40 40" version="1.1" xmlns="http://www.w3.org/2000/svg" xmlns:xlink="http://www.w3.org/1999/xlink">
    <!-- Generator: Sketch 40 (33762) - http://www.bohemiancoding.com/sketch -->
    <title>icon_forward</title>
    <desc>Created with Sketch.</desc>
    <defs></defs>
    <g id="Page-1" stroke="none" stroke-width="1" fill="none" fill-rule="evenodd">
        <g id="icon_forward" fill="#9DDA63">
            <g id="转发">
                <g id="Group" transform="translate(2.727273, 3.636364)">
                    <path d="M29.6816283,31.2782856 L4.86441802,31.2782856 C2.19805332,31.2782856 0.0288061668,29.1096302 0.0288061668,26.4426737 L0.0288061668,16.0778527 L1.90065081,16.0778527 L1.90065081,26.4426737 C1.90065081,28.077993 3.2297694,29.4076245 4.86441802,29.4076245 L29.6816283,29.4076245 C31.3155667,29.4076245 32.6452772,28.077993 32.6452772,26.4426737 L32.6452772,16.0778527 L34.5165695,16.0778527 L34.5165695,26.4426737 C34.5165695,29.1096696 32.3473223,31.2782856 29.6816283,31.2782856 Z" id="Shape"></path>
                    <path d="M24.0541004,8.28979693 C23.3047155,8.99597997 22.4971363,8.75558814 22.2585593,7.75389638 L20.7441264,1.39331742 C20.5055494,0.391625664 21.1179509,-0.186924414 22.1051237,0.103613153 L28.3969347,1.96930304 C29.3842653,2.26228674 29.5789302,3.08111029 28.8296242,3.78725385 L24.0541004,8.28979693 Z" id="Shape"></path>
                    <path d="M13.4487693,24.1964128 L11.5775559,24.1714385 C11.7089764,14.3375075 15.6130848,7.3107122 22.8663841,3.84986694 L23.672109,5.53765977 C17.0116814,8.71546367 13.5721017,14.9935054 13.4487693,24.1964128 Z" id="Shape"></path>
                </g>
            </g>
        </g>
    </g>
</svg>