<?xml version="1.0" encoding="UTF-8" standalone="no"?>
<svg width="40px" height="40px" viewBox="0 0 40 40" version="1.1" xmlns="http://www.w3.org/2000/svg" xmlns:xlink="http://www.w3.org/1999/xlink">
    <!-- Generator: Sketch 40 (33762) - http://www.bohemiancoding.com/sketch -->
    <title>icon_friends</title>
    <desc>Created with Sketch.</desc>
    <defs></defs>
    <g id="Page-1" stroke="none" stroke-width="1" fill="none" fill-rule="evenodd">
        <g id="icon_friends">
            <g id="朋友圈">
                <g id="Group" transform="translate(1.818182, 1.818182)">
                    <path d="M31.0018889,5.33180025 C29.897455,4.22174011 28.653305,3.26037346 27.3008231,2.47195124 L25.465313,20.4348652 L34.9842904,11.3249064 C34.0750354,9.07836419 32.7202925,7.03961494 31.0018889,5.33180025 L31.0018889,5.33180025 Z M25.2167543,1.43026626 C21.5195254,-0.132988172 17.4080085,-0.421527466 13.5290344,0.610041868 L24.9190302,14.6112721 L25.2167543,1.43026626 Z M11.3138577,1.34550973 C7.59592354,2.85869333 4.48443893,5.56358795 2.46680816,9.03648036 L20.4149287,10.873783 L11.3138577,1.34550973 Z M1.42887088,11.1280526 C-0.132858408,14.8288921 -0.421116187,18.9444241 0.609446741,22.8271863 L14.5942858,11.4233333 L1.42887088,11.1280526 Z M5.32659849,31.0321642 C6.43316286,32.1401775 7.67805951,33.1004927 9.03039571,33.8892792 L10.8686372,15.9263652 L1.34692846,25.0390581 C2.25564358,27.2852246 3.60941172,29.3239053 5.32659849,31.0321642 L5.32659849,31.0321642 Z M11.1199273,34.9309641 C13.348142,35.8770271 15.7438657,36.3642644 18.1642437,36.3636227 C19.7315746,36.3631014 21.2922786,36.1600117 22.8076473,35.7593907 L11.4121886,21.7581605 L11.1199273,34.9309641 Z M25.0200926,35.0129865 C27.2614968,34.1028095 29.2961204,32.7487889 31.0018889,31.0321642 C32.1094668,29.9250873 33.0689128,28.6788869 33.8562164,27.32475 L15.9162901,25.4929156 L25.0200926,35.0129865 Z M35.7245035,13.5340441 L21.7369331,24.9433652 L34.902348,25.238646 C36.464382,21.5360531 36.7535726,17.418997 35.7245035,13.5340441 L35.7245035,13.5340441 Z" id="Shape" fill="#ECC804"></path>
                    <path d="M27.3008231,2.47195124 C30.7710703,4.48940098 33.4736784,7.60336864 34.9842904,11.3249064 L25.465313,20.4321311 L27.3008231,2.46921715 L27.3008231,2.47195124 Z" id="Shape" fill="#FE5D62"></path>
                    <path d="M13.5208401,0.607307812 C17.3998143,-0.424261533 21.5113312,-0.135722251 25.2085601,1.42753217 L24.910836,14.6058039 L13.5208401,0.607307812 L13.5208401,0.607307812 Z" id="Shape" fill="#ECC804"></path>
                    <path d="M2.46680816,9.03648036 C4.48443893,5.56358795 7.59592354,2.85869333 11.3138577,1.34550973 L20.4149287,10.873783 L2.46680816,9.03648036 L2.46680816,9.03648036 Z" id="Shape" fill="#F5DE36"></path>
                    <path d="M0.606715317,22.8299204 C-0.423847619,18.9471582 -0.135589839,14.8316261 1.42613946,11.1307866 L14.5915544,11.4260674 L0.606715317,22.8299204 Z" id="Shape" fill="#AEF348"></path>
                    <path d="M9.02766428,33.9248222 C7.67628729,33.1358399 6.43231831,32.1755322 5.32659849,31.0677073 C3.60879908,29.3578446 2.25499578,27.3172508 1.34692846,25.069133 L10.8659058,15.9619082 L9.02766428,33.9248222 L9.02766428,33.9248222 Z" id="Shape" fill="#35F432"></path>
                    <path d="M18.1642437,36.3636227 C15.7424008,36.3667287 13.3447615,35.8813393 11.1144645,34.9364323 L11.4121886,21.7581605 L22.8076473,35.7593907 C21.2922786,36.1600117 19.7315746,36.3631014 18.1642437,36.3636227 L18.1642437,36.3636227 Z" id="Shape" fill="#6AD4FE"></path>
                    <path d="M15.9162901,25.4929156 L33.8644107,27.3302182 C33.0741758,28.6829115 32.1119729,29.9272769 31.0018889,31.0321642 C29.2931652,32.7509956 27.2547023,34.106028 25.0091669,35.0157206 L15.9162901,25.4929156 Z" id="Shape" fill="#24BBF4"></path>
                    <path d="M21.7369331,24.9433652 L35.7245035,13.5340441 C36.7531865,17.4169851 36.4649721,21.5318987 34.9050794,25.2331778 L21.7396645,24.9378971 L21.7369331,24.9433652 Z" id="Shape" fill="#615DFC"></path>
                </g>
            </g>
        </g>
    </g>
</svg>