<?xml version="1.0" encoding="UTF-8" standalone="no"?>
<svg width="60px" height="60px" viewBox="0 0 60 60" version="1.1" xmlns="http://www.w3.org/2000/svg" xmlns:xlink="http://www.w3.org/1999/xlink">
    <!-- Generator: Sketch 40 (33762) - http://www.bohemiancoding.com/sketch -->
    <title>icon_contact</title>
    <desc>Created with Sketch.</desc>
    <defs></defs>
    <g id="Page-1" stroke="none" stroke-width="1" fill="none" fill-rule="evenodd">
        <g id="icon_contact">
            <g id="Message">
                <g id="Group" transform="translate(10.000000, 10.000000)">
                    <path d="M20,1.248 C9.66,1.248 1.248,8.536 1.248,17.496 C1.248,21.616 3.036,25.544 6.284,28.564 C6.588,28.848 6.732,29.264 6.668,29.676 L5.364,37.828 L14.632,33.36 C14.884,33.24 15.168,33.204 15.44,33.264 C16.94,33.588 18.468,33.752 20,33.752 C30.34,33.752 38.752,26.464 38.752,17.504 C38.752,8.544 30.34,1.248 20,1.248 Z" id="Shape" fill="#F0EEE2"></path>
                    <path d="M10,14.376 C8.276,14.376 6.876,15.776 6.876,17.5 C6.876,19.224 8.276,20.624 10,20.624 C11.724,20.624 13.124,19.224 13.124,17.5 C13.124,15.772 11.724,14.376 10,14.376 L10,14.376 Z M20,14.376 C18.276,14.376 16.876,15.776 16.876,17.5 C16.876,19.224 18.276,20.624 20,20.624 C21.724,20.624 23.124,19.224 23.124,17.5 C23.124,15.772 21.724,14.376 20,14.376 L20,14.376 Z M30,14.376 C28.276,14.376 26.876,15.776 26.876,17.5 C26.876,19.224 28.276,20.624 30,20.624 C31.724,20.624 33.124,19.224 33.124,17.5 C33.124,15.772 31.724,14.376 30,14.376 L30,14.376 Z" id="Shape" fill="#BBAA9C"></path>
                    <path d="M20,13.752 C17.928,13.752 16.248,15.432 16.248,17.504 C16.248,19.576 17.928,21.256 20,21.256 C22.072,21.256 23.752,19.576 23.752,17.504 C23.752,15.432 22.072,13.752 20,13.752 Z M20,20 C18.62,20 17.5,18.88 17.5,17.5 C17.5,16.12 18.62,15 20,15 C21.38,15 22.5,16.12 22.5,17.5 C22.5,18.88 21.38,20 20,20 Z M10,13.752 C7.928,13.752 6.248,15.432 6.248,17.504 C6.248,19.576 7.928,21.256 10,21.256 C12.072,21.256 13.752,19.576 13.752,17.504 C13.752,15.432 12.072,13.752 10,13.752 Z M10,20 C8.62,20 7.5,18.88 7.5,17.5 C7.5,16.12 8.62,15 10,15 C11.38,15 12.5,16.12 12.5,17.5 C12.5,18.88 11.38,20 10,20 Z M20,0 C8.956,0 0,7.836 0,17.5 C0,22.14 2.068,26.352 5.432,29.484 L3.752,40 L15.176,34.484 C16.76,34.828 18.38,35 20,35 C31.044,35 40,27.164 40,17.5 C40,7.836 31.044,0 20,0 Z M20,32.5 C18.556,32.5 17.116,32.344 15.704,32.04 C15.16,31.92 14.588,31.988 14.088,32.232 L6.976,35.668 L7.9,29.88 C8.032,29.056 7.744,28.224 7.136,27.656 C4.148,24.872 2.5,21.268 2.5,17.5 C2.5,9.228 10.352,2.5 20,2.5 C29.648,2.5 37.5,9.228 37.5,17.5 C37.5,25.772 29.648,32.5 20,32.5 Z M30,13.752 C27.928,13.752 26.248,15.432 26.248,17.504 C26.248,19.576 27.928,21.256 30,21.256 C32.072,21.256 33.752,19.576 33.752,17.504 C33.752,15.432 32.072,13.752 30,13.752 Z M30,20 C28.62,20 27.5,18.88 27.5,17.5 C27.5,16.12 28.62,15 30,15 C31.38,15 32.5,16.12 32.5,17.5 C32.5,18.88 31.38,20 30,20 Z" id="Shape" fill="#5F4E56"></path>
                </g>
            </g>
        </g>
    </g>
</svg>