<?xml version="1.0" encoding="UTF-8" standalone="no"?>
<svg width="60px" height="60px" viewBox="0 0 60 60" version="1.1" xmlns="http://www.w3.org/2000/svg" xmlns:xlink="http://www.w3.org/1999/xlink">
    <!-- Generator: Sketch 40 (33762) - http://www.bohemiancoding.com/sketch -->
    <title>icon_end_live</title>
    <desc>Created with Sketch.</desc>
    <defs></defs>
    <g id="Page-1" stroke="none" stroke-width="1" fill="none" fill-rule="evenodd">
        <g id="icon_end_live">
            <g id="Group" transform="translate(8.000000, 8.000000)">
                <path d="M1.3728,22 C1.3728,33.392088 10.607912,42.6272 22,42.6272 C33.392088,42.6272 42.6272,33.392088 42.6272,22 C42.6272,10.607912 33.392088,1.3728 22,1.3728 C10.607912,1.3728 1.3728,10.607912 1.3728,22 L1.3728,22 Z" id="Shape" fill="#F0EEE2"></path>
                <polygon id="Shape" fill="#BBAA9C" transform="translate(21.816667, 22.183333) rotate(90.000000) translate(-21.816667, -22.183333) " points="19.0666667 30.4333333 24.5666667 30.4333333 24.5666667 13.9333333 19.0666667 13.9333333"></polygon>
                <path d="M31.3456117,24.839455 L31.3456117,19.339455 C31.3456117,18.578255 30.7296117,17.966655 29.9728117,17.966655 L13.4728117,17.966655 C12.7116117,17.966655 12.1000117,18.582655 12.1000117,19.339455 L12.1000117,24.839455 C12.1000117,25.600655 12.7160117,26.212255 13.4728117,26.212255 L29.9728117,26.212255 C30.7296117,26.216655 31.3456117,25.600655 31.3456117,24.839455 Z M13.5666667,24.9333333 L13.5666667,19.4333333 L30.0666667,19.4333333 L30.0666667,24.9333333 L13.5666667,24.9333333 Z M22,0 C9.8516,0 0,9.8516 0,22 C0,34.1484 9.8516,44 22,44 C34.1484,44 44,34.1484 44,22 C44,9.8516 34.1484,0 22,0 Z M22,41.2544 C11.3652,41.2544 2.7456,32.6348 2.7456,22 C2.7456,11.3652 11.3652,2.7456 22,2.7456 C32.6348,2.7456 41.2544,11.3652 41.2544,22 C41.2544,32.6348 32.6348,41.2544 22,41.2544 Z" id="Shape" fill="#5F4E56"></path>
            </g>
        </g>
    </g>
</svg>