<?xml version="1.0" encoding="UTF-8" standalone="no"?>
<svg width="68px" height="68px" viewBox="0 0 68 68" version="1.1" xmlns="http://www.w3.org/2000/svg" xmlns:xlink="http://www.w3.org/1999/xlink">
    <!-- Generator: Sketch 40 (33762) - http://www.bohemiancoding.com/sketch -->
    <title>icon_room_picture</title>
    <desc>Created with Sketch.</desc>
    <defs></defs>
    <g id="Page-1" stroke="none" stroke-width="1" fill="none" fill-rule="evenodd">
        <g id="icon_room_picture">
            <g id="home">
                <g id="Picture" transform="translate(12.000000, 16.000000)">
                    <g id="Group">
                        <path d="M2.72683038,1.36341519 L40.9024557,1.36341519 C41.6572424,1.36341519 42.2636894,1.9742252 42.2636894,2.72464892 L42.2636894,32.7197831 C42.2636894,33.4745697 41.6528794,34.0810168 40.9024557,34.0810168 L2.72683038,34.0810168 C1.97204373,34.0810168 1.36559665,33.4702068 1.36559665,32.7197831 L1.36559665,2.72464892 C1.36123373,1.9742252 1.97204373,1.36341519 2.72683038,1.36341519 Z" id="Shape" fill="#F0EEE2"></path>
                        <path d="M10.9073215,14.3169502 C12.7877438,14.3169502 14.3147688,12.7899252 14.3147688,10.909503 C14.3147688,9.02908076 12.7877438,7.50205574 10.9073215,7.50205574 C9.02689929,7.50205574 7.49987428,9.02908076 7.49987428,10.909503 C7.49987428,12.7899252 9.02253636,14.3169502 10.9073215,14.3169502 Z M28.6295375,13.6319704 L18.4071958,25.2242717 L12.953535,20.4512279 L2.04621352,27.9511021 L2.04621352,33.4047629 L41.5830726,33.4047629 L41.5830726,23.8586751 L28.6295375,13.6319704 Z" id="Shape" fill="#BBAA9C"></path>
                        <path d="M40.9024557,0.0021814643 L2.72683038,0.0021814643 C1.22162001,0.0021814643 0,1.21943855 0,2.72464892 L0,32.7197831 C0,34.2249935 1.22162001,35.4466135 2.72683038,35.4466135 L40.9024557,35.4466135 C42.4076661,35.4466135 43.6292861,34.2249935 43.6292861,32.7197831 L43.6292861,2.72464892 C43.6292861,1.21943855 42.4076661,0.0021814643 40.9024557,0.0021814643 L40.9024557,0.0021814643 Z M40.9024557,32.724146 L2.72683038,32.724146 L2.72683038,28.3088623 L12.9011799,21.3150877 L17.9578142,25.7390973 C18.2414045,25.9877843 18.6689715,25.9616067 18.9176584,25.6780163 L28.7167961,14.574363 L40.9024557,24.1946206 L40.9024557,32.724146 L40.9024557,32.724146 Z M40.9024557,22.4538121 L29.0527416,13.0996931 C28.7691512,12.8728209 28.359036,12.9120872 28.1190749,13.1825888 L18.3417519,24.2644275 L13.3985538,19.9364023 C13.1629556,19.7313446 12.8182843,19.70953 12.5608715,19.8884101 L2.72246745,26.6509494 L2.72246745,2.72464892 L40.8980928,2.72464892 L40.8980928,22.4538121 L40.9024557,22.4538121 Z M10.9073215,14.9975671 C13.1673185,14.9975671 14.9997486,13.1651371 14.9997486,10.9051401 C14.9997486,8.64514304 13.1673185,6.81707595 10.9073215,6.81707595 C8.6473245,6.81707595 6.81489449,8.64950597 6.81489449,10.909503 C6.81489449,13.1695 8.6473245,14.9975671 10.9073215,14.9975671 Z M10.9073215,8.17830968 C12.4125319,8.17830968 13.6341519,9.39992969 13.6341519,10.9051401 C13.6341519,12.4103504 12.4125319,13.6319704 10.9073215,13.6319704 C9.40211115,13.6319704 8.18049114,12.4103504 8.18049114,10.9051401 C8.18049114,9.39992969 9.40211115,8.17830968 10.9073215,8.17830968 Z" id="Shape" fill="#5F4E56"></path>
                    </g>
                </g>
            </g>
        </g>
    </g>
</svg>