<?xml version="1.0" encoding="UTF-8" standalone="no"?>
<svg width="60px" height="60px" viewBox="0 0 60 60" version="1.1" xmlns="http://www.w3.org/2000/svg" xmlns:xlink="http://www.w3.org/1999/xlink">
    <!-- Generator: Sketch 40 (33762) - http://www.bohemiancoding.com/sketch -->
    <title>icon_proportion</title>
    <desc>Created with Sketch.</desc>
    <defs></defs>
    <g id="Page-1" stroke="none" stroke-width="1" fill="none" fill-rule="evenodd">
        <g id="icon_proportion">
            <g id="Linegraph">
                <g id="Group" transform="translate(8.000000, 14.000000)">
                    <path d="M4.8093486,23.3939888 C2.91462351,23.3939888 1.37598365,24.9326286 1.37598365,26.8273537 C1.37598365,28.7220788 2.91462351,30.2607187 4.8093486,30.2607187 C6.70407368,30.2607187 8.24271355,28.7220788 8.24271355,26.8273537 C8.24271355,24.9370247 6.70407368,23.3983849 4.8093486,23.3939888 Z M17.1712209,13.7796877 C15.2764958,13.7796877 13.7378559,15.3183275 13.7378559,17.2130526 C13.7378559,19.1077777 15.2764958,20.6464176 17.1712209,20.6464176 C19.0659459,20.6464176 20.6045858,19.1077777 20.6045858,17.2130526 C20.6045858,15.3183275 19.0703421,13.7796877 17.1712209,13.7796877 L17.1712209,13.7796877 Z M25.4139344,1.41781542 C23.5192093,1.41781542 21.9805695,2.95645528 21.9805695,4.85118037 C21.9805695,6.74590545 23.5192093,8.28454532 25.4139344,8.28454532 C27.3086595,8.28454532 28.8472994,6.74590545 28.8472994,4.85118037 C28.8472994,2.95645528 27.3086595,1.41781542 25.4139344,1.41781542 Z M39.1517903,9.66052896 C37.2570652,9.66052896 35.7184254,11.1991688 35.7184254,13.0938939 C35.7184254,14.988619 37.2570652,16.5272589 39.1517903,16.5272589 C41.0465154,16.5272589 42.5851553,14.988619 42.5851553,13.0938939 C42.5851553,11.1947727 41.0465154,9.66052896 39.1517903,9.66052896 Z" id="Shape" fill="#F0EEE2"></path>
                    <path d="M17.1712209,13.7796877 C15.2764958,13.7796877 13.7378559,15.3183275 13.7378559,17.2130526 C13.7378559,19.1077777 15.2764958,20.6464176 17.1712209,20.6464176 C19.0659459,20.6464176 20.6045858,19.1077777 20.6045858,17.2130526 C20.6045858,15.3183275 19.0703421,13.7796877 17.1712209,13.7796877 L17.1712209,13.7796877 Z M39.1517903,9.66052896 C37.2570652,9.66052896 35.7184254,11.1991688 35.7184254,13.0938939 C35.7184254,14.988619 37.2570652,16.5272589 39.1517903,16.5272589 C41.0465154,16.5272589 42.5851553,14.988619 42.5851553,13.0938939 C42.5851553,11.1947727 41.0509115,9.66052896 39.1517903,9.66052896 L39.1517903,9.66052896 Z" id="Shape" fill="#BBAA9C"></path>
                    <path d="M39.1517903,8.28454532 C37.9516512,8.28454532 36.7954733,8.73294893 35.9074583,9.54183389 L30.0738151,6.04252723 C30.7332322,3.47080061 29.1858001,0.846320613 26.6140735,0.18690353 C24.0423469,-0.472513554 21.4178669,1.07491854 20.7584498,3.64664516 C20.3759879,5.14132388 20.7320731,6.728321 21.7168026,7.91527175 L18.5823734,12.6103214 C16.0458157,11.8410015 13.355394,13.2653424 12.5728857,15.8062962 C12.2563655,16.8393829 12.2959306,17.9515998 12.6871847,18.9583098 L7.60088092,22.9192085 C5.442389,21.3849647 2.44423932,21.8905178 0.909995575,24.0490097 C-0.624248172,26.2075016 -0.118695075,29.2056513 2.03979685,30.7398951 C4.19828877,32.2741388 7.19643844,31.7685857 8.73068219,29.6100938 C9.66705445,28.2912596 9.87806791,26.5943597 9.29338477,25.0864926 L14.3796885,21.1299901 C16.5381805,22.6730261 19.5451224,22.1762652 21.0881583,20.0133772 C22.3586352,18.2373472 22.270713,15.8238806 20.8727488,14.1445651 L24.0027818,9.4495155 C25.6337401,9.95067248 27.405374,9.55062612 28.6626626,8.40324039 L34.4963057,11.902547 C33.8368886,14.4742737 35.3843207,17.0987537 37.9560473,17.7581708 C40.527774,18.4175878 43.152254,16.8701557 43.811671,14.2984291 C44.4710881,11.7267025 42.923656,9.1022225 40.3519294,8.44280542 C39.9606753,8.3416948 39.5562328,8.28894143 39.1517903,8.28454532 L39.1517903,8.28454532 Z M4.8093486,28.8891311 C3.67515121,28.884735 2.75636341,27.957155 2.76515564,26.8229576 C2.76955175,25.6887602 3.69713178,24.7699724 4.83132917,24.7787646 C5.96113044,24.7831607 6.87552213,25.7019486 6.87552213,26.8361459 C6.87112601,27.9703433 5.94794209,28.8891311 4.8093486,28.8891311 L4.8093486,28.8891311 Z M17.1712209,19.2704339 C16.0370235,19.2660378 15.1182357,18.3384578 15.1270279,17.2042604 C15.131424,16.070063 16.059004,15.1512752 17.1932014,15.1600674 C18.3230027,15.1644636 19.2373944,16.0832514 19.2373944,17.2174487 C19.2373944,18.3516461 18.3098144,19.27483 17.1712209,19.2704339 L17.1712209,19.2704339 Z M25.4139344,6.90856167 C24.279737,6.90416555 23.3609492,5.97658552 23.3697414,4.84238814 C23.3741376,3.70819076 24.3017176,2.78940295 25.435915,2.79819518 C26.5657162,2.80259129 27.4801079,3.7213791 27.4801079,4.85557648 C27.4801079,5.98977387 26.5525279,6.90856167 25.4139344,6.90856167 L25.4139344,6.90856167 Z M39.1517903,15.1512752 C38.0175929,15.1468791 37.0988051,14.2192991 37.1075974,13.0851017 C37.1119935,11.9509043 38.0395735,11.0321165 39.1737709,11.0409087 C40.3035722,11.0453048 41.2179638,11.9640926 41.2179638,13.09829 C41.2135677,14.2324874 40.2903838,15.1512752 39.1517903,15.1512752 Z" id="Shape" fill="#5F4E56"></path>
                </g>
            </g>
        </g>
    </g>
</svg>