<?xml version="1.0" encoding="UTF-8" standalone="no"?>
<svg width="88px" height="88px" viewBox="0 0 88 88" version="1.1" xmlns="http://www.w3.org/2000/svg" xmlns:xlink="http://www.w3.org/1999/xlink">
    <!-- Generator: Sketch 40 (33762) - http://www.bohemiancoding.com/sketch -->
    <title>icon_fashion</title>
    <desc>Created with Sketch.</desc>
    <defs>
        <circle id="path-1" cx="40" cy="40" r="40"></circle>
        <filter x="-50%" y="-50%" width="200%" height="200%" filterUnits="objectBoundingBox" id="filter-2">
            <feOffset dx="0" dy="0" in="SourceAlpha" result="shadowOffsetOuter1"></feOffset>
            <feGaussianBlur stdDeviation="0.5" in="shadowOffsetOuter1" result="shadowBlurOuter1"></feGaussianBlur>
            <feColorMatrix values="0 0 0 0 0   0 0 0 0 0   0 0 0 0 0  0 0 0 0.5 0" type="matrix" in="shadowBlurOuter1"></feColorMatrix>
        </filter>
    </defs>
    <g id="Page-1" stroke="none" stroke-width="1" fill="none" fill-rule="evenodd">
        <g id="icon_fashion">
            <g id="Group-6" transform="translate(4.000000, 4.000000)">
                <g id="Oval">
                    <use fill="black" fill-opacity="1" filter="url(#filter-2)" xlink:href="#path-1"></use>
                    <use fill="#FFFFFF" fill-rule="evenodd" xlink:href="#path-1"></use>
                </g>
                <g id="鞋" transform="translate(15.000000, 18.000000)">
                    <path d="M40.9122721,20.854022 L35.4319734,20.854022 C32.3808151,20.854022 30.0779191,20.0547617 28.5888877,18.4776778 C26.4270059,16.1893793 26.5837874,12.8930299 26.58822,12.7553407 L26.58822,1.78025047 C26.58822,0.823016491 25.8127501,0.0463027779 24.8569743,0.0463027779 L1.77248159,0.0463027779 C0.816705777,0.0463027779 0.0411303306,0.823011226 0.0411303306,1.78025047 L0.0411303306,36.459845 C0.0411303306,36.5591903 0.0546813613,36.6539957 0.0705014526,36.748801 C0.0546813613,36.8436592 0.0411303306,36.9385174 0.0411303306,37.0378099 L0.0411303306,41.6618404 C0.0411303306,42.2894489 0.37710435,42.8335623 0.875295074,43.1383105 C1.17962886,43.6372621 1.7228578,43.973753 2.34966734,43.973753 L50.2497357,43.973753 C51.2056171,43.973753 51.981087,43.1970974 51.981087,42.2397524 L51.9810869,36.459845 L51.9810869,32.3551003 C51.9810874,23.8365327 44.8156315,21.110284 40.9122721,20.854022 Z" id="Path" fill="#BBAA9C"></path>
                    <path d="M3.5038847,3.51430185 L23.1266745,3.51430185 L23.1289963,12.6413608 C23.1165534,12.8355643 22.855089,17.4188735 26.0393515,20.8247052 C28.2091961,23.1457506 31.3686731,24.3220125 35.4319748,24.3220125 L40.7973111,24.31863 C41.1128794,24.3389621 48.5184388,24.916927 48.5184388,32.3551472 L48.5184388,34.7258936 L3.50388563,34.7258936 L3.50388563,3.51430149 L3.5038847,3.51430185 Z" id="Path" fill="#F0EEE2"></path>
                    <path d="M40.9122721,20.854022 L35.4319734,20.854022 C32.3808151,20.854022 30.0779191,20.0547617 28.5888877,18.4776778 C26.4270059,16.1893793 26.5837874,12.8930299 26.58822,12.7553407 L26.58822,1.78025047 C26.58822,0.823016491 25.8127501,0.0463027779 24.8569743,0.0463027779 L1.77248159,0.0463027779 C0.816705777,0.0463027779 0.0411303306,0.823011226 0.0411303306,1.78025047 L0.0411303306,36.459845 C0.0411303306,36.5591903 0.0546813613,36.6539957 0.0705014526,36.748801 C0.0546813613,36.8436592 0.0411303306,36.9385174 0.0411303306,37.0378099 L0.0411303306,41.6618404 C0.0411303306,42.2894489 0.37710435,42.8335623 0.875295074,43.1383105 C1.17962886,43.6372621 1.7228578,43.973753 2.34966734,43.973753 L50.2497357,43.973753 C51.2056171,43.973753 51.981087,43.1970974 51.981087,42.2397524 L51.9810869,36.459845 L51.9810869,32.3551003 C51.9810874,23.8365327 44.8156315,21.110284 40.9122721,20.854022 Z M3.5038847,3.51430185 L23.1266745,3.51430185 L23.1289963,12.6413608 C23.1165534,12.8355643 22.855089,17.4188735 26.0393515,20.8247052 C28.2091961,23.1457506 31.3686731,24.3220125 35.4319748,24.3220125 L40.7973111,24.31863 C41.1128794,24.3389621 48.5184388,24.916927 48.5184388,32.3551472 L48.5184388,34.7258936 L3.50388563,34.7258936 L3.50388563,3.51430149 L3.5038847,3.51430185 Z M48.5184904,40.5057552 L3.50388563,40.5057552 L3.50388563,38.1937928 L48.5184389,38.1937928 L48.5184388,40.5057528 L48.5184904,40.5057552 Z M18.4873414,5.5360957 C17.6137267,5.5360957 16.9058114,6.24504301 16.9058114,7.11988647 C16.9058114,7.99594552 17.6137319,8.70373009 18.4873414,8.70373009 C19.3619007,8.70373009 20.0687658,7.99594552 20.0687658,7.11988647 C20.0687711,6.24504301 19.3619587,5.5360957 18.4873414,5.5360957 Z M18.4873414,10.7628584 C17.6137267,10.7628584 16.9058114,11.4706958 16.9058114,12.346702 C16.9058114,13.2215983 17.6137319,13.9293301 18.4873414,13.9293301 C19.3619007,13.9293301 20.0687658,13.2215983 20.0687658,12.346702 C20.0687711,11.4706958 19.3619587,10.7628584 18.4873414,10.7628584 Z M18.4873414,15.9884636 C17.6137267,15.9884636 16.9058114,16.6974638 16.9058114,17.57347 C16.9058114,18.4472036 17.6137319,19.1562037 18.4873414,19.1562037 C19.3619007,19.1562037 20.0687658,18.4472036 20.0687658,17.57347 C20.0687711,16.6974637 19.3619587,15.9884636 18.4873414,15.9884636 Z" id="Shape" fill="#5F4E56"></path>
                </g>
            </g>
        </g>
    </g>
</svg>