<?xml version="1.0" encoding="UTF-8" standalone="no"?>
<svg width="88px" height="88px" viewBox="0 0 88 88" version="1.1" xmlns="http://www.w3.org/2000/svg" xmlns:xlink="http://www.w3.org/1999/xlink">
    <!-- Generator: Sketch 40 (33762) - http://www.bohemiancoding.com/sketch -->
    <title>icon_financing</title>
    <desc>Created with Sketch.</desc>
    <defs>
        <circle id="path-1" cx="40" cy="40" r="40"></circle>
        <filter x="-50%" y="-50%" width="200%" height="200%" filterUnits="objectBoundingBox" id="filter-2">
            <feOffset dx="0" dy="0" in="SourceAlpha" result="shadowOffsetOuter1"></feOffset>
            <feGaussianBlur stdDeviation="0.5" in="shadowOffsetOuter1" result="shadowBlurOuter1"></feGaussianBlur>
            <feColorMatrix values="0 0 0 0 0   0 0 0 0 0   0 0 0 0 0  0 0 0 0.5 0" type="matrix" in="shadowBlurOuter1"></feColorMatrix>
        </filter>
    </defs>
    <g id="Page-1" stroke="none" stroke-width="1" fill="none" fill-rule="evenodd">
        <g id="icon_financing">
            <g id="Group-11" transform="translate(4.000000, 4.000000)">
                <g id="Oval">
                    <use fill="black" fill-opacity="1" filter="url(#filter-2)" xlink:href="#path-1"></use>
                    <use fill="#FFFFFF" fill-rule="evenodd" xlink:href="#path-1"></use>
                </g>
                <g id="Bargraph" transform="translate(16.000000, 14.000000)">
                    <g id="Group" transform="translate(-1.000000, 1.000000)">
                        <path d="M9,22.5024 L3,22.5024 C2.1696,22.5024 1.5024,23.1744 1.5024,24 L1.5024,45 C1.5024,45.8304 2.1744,46.4976 3,46.4976 L9,46.4976 C9.8304,46.4976 10.4976,45.8256 10.4976,45 L10.4976,24 C10.5024,23.1696 9.8304,22.5024 9,22.5024 Z M27,1.4976 L21,1.4976 C20.1696,1.4976 19.5024,2.1696 19.5024,2.9952 L19.5024,44.9952 C19.5024,45.8256 20.1744,46.4928 21,46.4928 L27,46.4928 C27.8304,46.4928 28.4976,45.8208 28.4976,44.9952 L28.4976,2.9952 C28.5024,2.1696 27.8304,1.4976 27,1.4976 L27,1.4976 Z M45,10.5024 L39,10.5024 C38.1696,10.5024 37.5024,11.1744 37.5024,12 L37.5024,45 C37.5024,45.8304 38.1744,46.4976 39,46.4976 L45,46.4976 C45.8304,46.4976 46.4976,45.8256 46.4976,45 L46.4976,12 C46.5024,11.1696 45.8304,10.5024 45,10.5024 Z" id="Shape" fill="#F0EEE2"></path>
                        <path d="M3,28.5024 L9,28.5024 L9,24 L3,24 L3,28.5024 Z M21,7.4976 L27,7.4976 L27,3 L21,3 L21,7.4976 Z M39,12 L39,16.5024 L45,16.5024 L45,12 L39,12 Z" id="Shape" fill="#BBAA9C"></path>
                        <path d="M45,9 L39,9 C37.344,9 36,10.344 36,12 L36,45 C36,46.656 37.344,48 39,48 L45,48 C46.656,48 48,46.656 48,45 L48,12 C48,10.344 46.656,9 45,9 Z M45,16.5024 L39,16.5024 L39,18 L45,18 L45,45 L39,45 L39,12 L45,12 L45,16.5024 Z M27,0 L21,0 C19.344,0 18,1.344 18,3 L18,45 C18,46.656 19.344,48 21,48 L27,48 C28.656,48 30,46.656 30,45 L30,3 C30,1.344 28.656,0 27,0 Z M27,45 L21,45 L21,9 L27,9 L27,7.5024 L21,7.5024 L21,3 L27,3 L27,45 Z M9,21 L3,21 C1.344,21 0,22.344 0,24 L0,45 C0,46.656 1.344,48 3,48 L9,48 C10.656,48 12,46.656 12,45 L12,24 C12,22.344 10.656,21 9,21 Z M9,45 L3,45 L3,30 L9,30 L9,45 Z M9,28.5024 L3,28.5024 L3,24 L9,24 L9,28.5024 Z" id="Shape" fill="#5F4E56"></path>
                    </g>
                </g>
            </g>
        </g>
    </g>
</svg>