<?xml version="1.0" encoding="UTF-8" standalone="no"?>
<svg width="40px" height="40px" viewBox="0 0 40 40" version="1.1" xmlns="http://www.w3.org/2000/svg" xmlns:xlink="http://www.w3.org/1999/xlink">
    <!-- Generator: Sketch 40 (33762) - http://www.bohemiancoding.com/sketch -->
    <title>icon_room_refresh</title>
    <desc>Created with Sketch.</desc>
    <defs></defs>
    <g id="Page-1" stroke="none" stroke-width="1" fill="none" fill-rule="evenodd" stroke-linecap="round" stroke-linejoin="round">
        <g id="icon_room_refresh" stroke="#5F4E56" stroke-width="2" fill="#F0EEE2">
            <path d="M5.77366662,16.1612903 C7.49640055,8.62129384 14.1840726,3 22.1714286,3 C31.4655919,3 39,10.6111593 39,20 C39,29.3888407 31.4655919,37 22.1714286,37 C18.9084861,37 15.7755508,36.0569204 13.08585,34.3114989 C11.5723533,33.3293489 11.1335829,31.2937291 12.1058289,29.7648148 C13.0780748,28.2359005 15.0931674,27.7926604 16.6066641,28.7748104 C18.2537274,29.8436355 20.1662823,30.4193548 22.1714286,30.4193548 C27.8678513,30.4193548 32.4857143,25.7544508 32.4857143,20 C32.4857143,14.2455492 27.8678513,9.58064516 22.1714286,9.58064516 C17.8169529,9.58064516 14.0927252,12.3065459 12.579698,16.1612903 L17.2857143,16.1612903 L9.14285714,26.0322581 L1,16.1612903 L5.77366662,16.1612903 Z" id="Combined-Shape"></path>
        </g>
    </g>
</svg>