<?xml version="1.0" encoding="UTF-8" standalone="no"?>
<svg width="60px" height="60px" viewBox="0 0 60 60" version="1.1" xmlns="http://www.w3.org/2000/svg" xmlns:xlink="http://www.w3.org/1999/xlink">
    <!-- Generator: Sketch 40 (33762) - http://www.bohemiancoding.com/sketch -->
    <title>icon_establish_live</title>
    <desc>Created with Sketch.</desc>
    <defs></defs>
    <g id="Page-1" stroke="none" stroke-width="1" fill="none" fill-rule="evenodd">
        <g id="icon_establish_live">
            <g id="Microphone">
                <g id="Group" transform="translate(16.000000, 8.000000)">
                    <path d="M13.3474632,1.40895116 C9.72634609,1.62894613 6.90161076,4.63407734 6.90161076,8.26399423 L6.90161076,21.99168 C6.90161076,25.6215969 9.72634609,28.6223282 13.3474632,28.8423232 C17.3073726,29.0799178 20.6292965,25.881191 20.6292965,21.9124818 L20.6292965,8.33879252 C20.6292965,4.37008335 17.3073726,1.17135657 13.3474632,1.40895116 Z" id="Shape" fill="#F0EEE2"></path>
                    <path d="M6.90161076,17.8645745 L6.90161076,21.99168 C6.90161076,25.6963952 9.8231439,28.7147261 13.4838601,28.8599228 C17.3953705,29.0183192 20.6292965,25.8415919 20.6292965,21.9300814 L20.6292965,17.8645745 L6.90161076,17.8645745 Z" id="Shape" fill="#BBAA9C"></path>
                    <path d="M27.5151389,17.8645745 C27.5151389,17.1033919 26.899153,16.487406 26.1379704,16.487406 C25.3767878,16.4874059 24.7652019,17.1033919 24.7652019,17.8645745 L24.7652019,21.99168 C24.7652019,28.1119399 19.7669163,33.0662265 13.6290568,32.9914282 C7.65399353,32.9166299 2.76570542,27.8831451 2.76570542,21.903682 L2.76570542,17.8645745 C2.76130551,17.1033919 2.14091973,16.4962058 1.37973713,16.5006057 C0.618554535,16.5050056 0.011368457,17.1253914 0.0157683711,17.886574 C0.0157683711,17.9657722 0.0245681562,18.0449704 0.0377678555,18.1197686 L0.0377678555,21.99168 C0.0377678555,29.1019172 5.43644428,34.9493834 12.3574859,35.666567 L12.3574859,41.2720387 L5.51564247,41.2720387 C4.75885979,41.2676388 4.14287388,41.8792248 4.14287388,42.6360075 L4.14287388,42.6712067 C4.1604735,43.4147896 4.79405897,43.9999762 5.53764196,43.9999762 L22.0152648,43.9999762 C22.7720475,44.0043762 23.3880334,43.3927901 23.3880334,42.6360075 L23.3880334,42.6008083 C23.3704338,41.8572253 22.7368483,41.2720387 21.9932653,41.2720387 L15.1294224,41.2720387 L15.1294224,35.6709669 C22.0592638,34.9801827 27.5371384,28.9919198 27.5371384,21.8992821 L27.5371384,17.8645745 L27.5151389,17.8645745 L27.5151389,17.8645745 Z M13.9194501,30.250291 C18.3853479,30.1798926 22.0372643,26.3959792 22.0372643,21.9300814 L22.0372643,8.32119295 C22.0372643,3.85529517 18.3853479,0.07138175 13.92385,0.000983382813 C9.30395576,-0.0694150273 5.53764196,3.64849989 5.53764196,8.25079454 L5.53764196,22.0004798 C5.53764196,26.6027744 9.30395576,30.3206894 13.9194501,30.250291 L13.9194501,30.250291 Z M8.26557952,8.25079454 C8.26557952,5.21486402 10.7295231,2.75092043 13.7654536,2.75092043 C16.8013841,2.75092043 19.2653277,5.21486402 19.2653278,8.25079454 L19.2653278,17.2045896 L8.26557952,17.2045896 L8.26557952,8.25079454 Z M8.26557952,18.5685584 L19.2653278,18.5685584 L19.2653278,22.0004798 C19.2653278,25.0364103 16.8013842,27.5003539 13.7654536,27.5003539 C10.7295231,27.500354 8.26557952,25.0364104 8.26557952,22.0004798 L8.26557952,18.5685584 Z" id="Shape" fill="#5F4E56"></path>
                </g>
            </g>
        </g>
    </g>
</svg>