<?xml version="1.0" encoding="UTF-8" standalone="no"?>
<svg width="24px" height="24px" viewBox="0 0 24 24" version="1.1" xmlns="http://www.w3.org/2000/svg" xmlns:xlink="http://www.w3.org/1999/xlink">
    <!-- Generator: Sketch 40 (33762) - http://www.bohemiancoding.com/sketch -->
    <title>icon_lower</title>
    <desc>Created with Sketch.</desc>
    <defs></defs>
    <g id="Page-1" stroke="none" stroke-width="1" fill="none" fill-rule="evenodd">
        <g id="icon_lower" fill="#616161">
            <path d="M19.0164983,0.520821247 C19.0150589,0.52081727 19.013619,0.52081528 19.0121787,0.52081528 L5.02945187,0.52081528 C4.18723543,0.52081528 3.52081528,1.19238816 3.52081528,2.02081528 C3.52081528,2.85501805 4.19625489,3.52081528 5.02945187,3.52081528 L17.5208153,3.52081528 L17.5208153,16.0121787 C17.5208153,16.8453757 18.1866125,17.5208153 19.0208153,17.5208153 C19.8492424,17.5208153 20.5208153,16.8543951 20.5208153,16.0121787 L20.5208153,2.02945187 C20.5208153,2.02801152 20.5208133,2.02657163 20.5208093,2.02513222 C20.5208133,2.02369553 20.5208153,2.02225564 20.5208153,2.02081528 C20.5208153,1.60515507 20.3531203,1.2313058 20.081772,0.960799201 C19.8103289,0.68851218 19.4364778,0.52081528 19.0208153,0.52081528 C19.0193749,0.52081528 19.017935,0.520817295 19.0164956,0.520821321 Z" id="Combined-Shape" transform="translate(12.020815, 9.020815) rotate(-225.000000) translate(-12.020815, -9.020815) "></path>
        </g>
    </g>
</svg>