<?xml version="1.0" encoding="UTF-8" standalone="no"?>
<svg width="60px" height="60px" viewBox="0 0 60 60" version="1.1" xmlns="http://www.w3.org/2000/svg" xmlns:xlink="http://www.w3.org/1999/xlink">
    <!-- Generator: Sketch 40 (33762) - http://www.bohemiancoding.com/sketch -->
    <title>icon_public_live</title>
    <desc>Created with Sketch.</desc>
    <defs></defs>
    <g id="Page-1" stroke="none" stroke-width="1" fill="none" fill-rule="evenodd">
        <g id="icon_public_live">
            <g id="金币">
                <g id="Group">
                    <path d="M29.8436528,8 C18.3327922,8 9,17.3318302 9,28.8446148 C9,40.3564374 18.3327922,49.6882676 29.8436528,49.6882676 C41.3564374,49.6882676 50.6882676,40.3564374 50.6882676,28.8446148 C50.6882676,17.3318302 41.3564374,8 29.8436528,8 L29.8436528,8 Z M40.9543029,26.6857874 L35.8698986,31.6191507 L37.0176175,38.415994 C37.0589854,38.5227809 37.0811124,38.8681548 37.0811124,38.9903345 C37.0811124,39.522345 36.6510786,40.1803834 36.1190681,40.1803834 L36.0998271,40.1803834 C35.9459,40.1803834 35.791973,39.9158212 35.6495904,39.8398196 L29.391492,36.4120556 L23.1131905,39.6339421 C22.7889816,39.8032619 22.3955054,39.7426531 22.1001578,39.5290793 C21.8040348,39.306874 21.6569858,38.937766 21.7191883,38.5728072 L22.9342503,31.5912515 L17.8767832,26.6309508 C17.6158677,26.3739154 17.5229656,25.9913198 17.6369494,25.6432511 C17.7509332,25.2951825 18.052151,25.0416513 18.414566,24.9887411 L25.423059,23.989177 L28.5727922,17.6358362 C28.7363397,17.3087411 29.0692071,17.0922811 29.434784,17.0922811 L29.436708,17.0922811 C29.8032469,17.0922811 30.1380384,17.3125893 30.2986998,17.6406464 L33.4137994,24.0045697 L40.4213303,25.0416536 C40.7841809,25.0948435 41.0854211,25.3493148 41.1985086,25.6981714 C41.3115961,26.0470279 41.2169401,26.4298355 40.9543029,26.6857874 L40.9543029,26.6857874 Z" id="Shape" fill="#BBAA9C"></path>
                    <path d="M53.5050582,56.2584292 C51.0855167,55.7937618 48.6563547,55.430109 46.2416235,55.1453439 C54.692221,49.67997 59.9507554,40.2528974 59.9507554,29.9744156 C59.9507554,13.4464938 46.5032995,-3.55271368e-15 29.9753777,-3.55271368e-15 C13.4474558,-3.55271368e-15 0,13.4464938 0,29.9744156 C0,40.2403908 5.3268395,49.7655919 13.8380459,55.2261556 C9.22985351,55.7264187 6.39086063,56.2420745 6.31004888,56.2565051 C5.80325534,56.3506803 5.38520069,56.708073 5.21336208,57.1940567 C5.04152348,57.6800404 5.14200729,58.2207827 5.47696225,58.6125911 C5.8119172,59.0043996 6.33045566,59.1877491 6.8372492,59.0935738 C7.03158216,59.0570162 23.1140775,56.1400977 41.3380834,57.5610372 C41.3592484,57.5619992 41.3804134,57.5706576 41.4015784,57.5706576 L41.4246674,57.5677715 C45.2189703,57.8679294 49.1046674,58.3499136 52.9595791,59.0916498 C53.7319818,59.2206719 54.466325,58.7101087 54.6143769,57.9411267 C54.7624288,57.1721447 54.2701508,56.4254206 53.5050582,56.2584292 Z M18.8714618,54.7634123 C18.7721224,54.6734571 18.6603386,54.5982865 18.5395566,54.5402179 C9.03071026,50.1042315 2.88613306,40.460699 2.88613306,29.9744156 C2.88613306,15.0377152 15.0386772,2.88613306 29.9753777,2.88613306 C44.9120782,2.88613306 57.0646224,15.0377152 57.0646224,29.9744156 C57.0613449,40.6147951 50.8307098,50.2683845 41.1360541,54.6537392 C32.8364976,54.0380309 25.0035325,54.2910485 18.8714618,54.7634123 L18.8714618,54.7634123 Z" id="Shape" fill="#5F4E56"></path>
                </g>
            </g>
        </g>
    </g>
</svg>