<?xml version="1.0" encoding="UTF-8" standalone="no"?>
<svg width="60px" height="60px" viewBox="0 0 60 60" version="1.1" xmlns="http://www.w3.org/2000/svg" xmlns:xlink="http://www.w3.org/1999/xlink">
    <!-- Generator: Sketch 40 (33762) - http://www.bohemiancoding.com/sketch -->
    <title>icon_create_course_title</title>
    <desc>Created with Sketch.</desc>
    <defs></defs>
    <g id="Page-1" stroke="none" stroke-width="1" fill="none" fill-rule="evenodd">
        <g id="icon_create_course_title">
            <g id="Label">
                <g id="Group" transform="translate(8.000000, 8.000000)">
                    <path d="M41.816334,22.1176941 L21.8809308,2.1822909 C21.3661565,1.66311686 20.6665915,1.37273138 19.936228,1.37713116 L4.12781845,1.37713116 C2.60989433,1.37713116 1.37795595,2.60906955 1.37795591,4.12699366 L1.37795591,19.939803 C1.37795591,20.6701665 1.6639416,21.3697315 2.18311564,21.8845058 L22.1185189,41.819909 C23.1920652,42.8934553 24.9343781,42.8934553 26.0079244,41.819909 L41.8207338,26.0070996 C42.8898803,24.9335533 42.8898803,23.1912404 41.816334,22.1176941 L41.816334,22.1176941 Z M11.6866405,14.4356782 C9.79033533,14.4356782 8.25041233,12.8957552 8.25041229,10.99945 C8.25041224,9.10314488 9.79033529,7.56322188 11.6866405,7.56322183 C13.5829457,7.56322183 15.1228687,9.10314483 15.1228687,10.99945 C15.1272684,12.8957552 13.5873454,14.4356782 11.6866405,14.4356782 Z" id="Shape" fill="#F0EEE2"></path>
                    <polygon id="Shape" fill="#BBAA9C" points="38.7276884 20.1641918 20.1650166 38.7268637 23.6056445 42.1630918 24.9783759 42.1630918 42.1639166 24.9775511 42.1639166 23.6048198"></polygon>
                    <path d="M42.7886854,21.1453428 L22.8532822,1.2099395 C22.0833207,0.435578215 21.0317733,0 19.936228,0 L4.12781845,0 C1.8487324,0 0.000824785156,1.84790762 0.000824785156,4.12699366 L0.000824785156,19.939803 C0.000824785156,21.0353482 0.436403,22.0824959 1.21076429,22.8568572 L21.1461675,42.7922604 C22.756487,44.4025798 25.3699563,44.4025798 26.9802758,42.7922604 L42.7930852,26.979451 C44.3990048,25.3691316 44.3990048,22.7556622 42.7886854,21.1453428 L42.7886854,21.1453428 Z M20.195815,37.9525024 L3.15546705,20.9077546 C2.89588002,20.6525674 2.75068729,20.300585 2.75068729,19.9354032 L2.75068729,4.12699366 C2.75068729,3.36583173 3.36665648,2.75426229 4.12341866,2.75426229 L19.936228,2.75426229 C20.3014097,2.75426229 20.6489924,2.89945502 20.9085794,3.15904205 L37.9533272,20.1949902 L20.195815,37.9525024 Z M40.8439826,25.0347483 L25.0355731,40.8431578 C24.4987999,41.379931 23.6276434,41.379931 23.0908703,40.8431578 L21.1725662,38.9248538 L38.9256786,21.1673416 L40.8439826,23.0856457 C41.3851555,23.6268187 41.3851555,24.4979751 40.8439826,25.0347483 L40.8439826,25.0347483 Z M11.6866405,6.87245638 C9.40755445,6.87245638 7.56404662,8.720364 7.56404662,10.99945 C7.56404662,13.2785361 9.41195423,15.1220439 11.6910403,15.1220439 C13.9701263,15.1220438 15.8136342,13.2741363 15.8136342,10.9950503 C15.8136342,8.720364 13.9657265,6.87245638 11.6866405,6.87245638 L11.6866405,6.87245638 Z M11.6866405,13.7493125 C10.1687164,13.7493125 8.936778,12.5173742 8.936778,10.99945 C8.936778,9.48152593 10.1687164,8.24958754 11.6866405,8.2495875 C13.2045646,8.24958746 14.436503,9.48152588 14.436503,10.99945 C14.436503,12.5173742 13.2045646,13.7493125 11.6866405,13.7493125 Z" id="Shape" fill="#5F4E56"></path>
                </g>
            </g>
        </g>
    </g>
</svg>