<?xml version="1.0" encoding="UTF-8" standalone="no"?>
<svg width="60px" height="60px" viewBox="0 0 60 60" version="1.1" xmlns="http://www.w3.org/2000/svg" xmlns:xlink="http://www.w3.org/1999/xlink">
    <!-- Generator: Sketch 40 (33762) - http://www.bohemiancoding.com/sketch -->
    <title>icon_share_ranking_list</title>
    <desc>Created with Sketch.</desc>
    <defs></defs>
    <g id="Page-1" stroke="none" stroke-width="1" fill="none" fill-rule="evenodd">
        <g id="icon_share_ranking_list">
            <g id="Lightbulb">
                <g id="Group" transform="translate(15.000000, 8.000000)">
                    <path d="M28.9159063,15.1272 C28.9159063,7.5328 22.7603063,1.3772 15.1659063,1.3772 C7.57150625,1.3772 1.41590625,7.5328 1.41590625,15.1272 C1.41590625,21.2828 5.46390625,26.4968 11.0431063,28.248 L11.0431063,37.1272 C11.0431063,39.4064 12.8911063,41.2544 15.1703063,41.2544 C17.4495063,41.2544 19.2975063,39.4064 19.2975063,37.1272 L19.2975063,28.2436 C24.8679063,26.4924 28.9159063,21.2828 28.9159063,15.1272 L28.9159063,15.1272 Z" id="Shape" fill="#F0EEE2"></path>
                    <path d="M12.4159063,30.9364 L12.4159063,32.3092 L17.9159063,32.3092 L17.9159063,30.9364 L12.4159063,30.9364 Z M12.4159063,37.1272 C12.4159063,38.6452 13.6479063,39.8772 15.1659063,39.8772 C16.6839063,39.8772 17.9159063,38.6452 17.9159063,37.1272 L17.9159063,36.4408 L12.4159063,36.4408 L12.4159063,37.1272 Z" id="Shape" fill="#BBAA9C"></path>
                    <path d="M15.1659063,0 C6.81030625,0 0.03870625,6.7716 0.03870625,15.1272 C0.03870625,21.538 4.03390625,27.016 9.66590625,29.216 L9.66590625,37.1272 C9.66590625,39.6352 11.3643063,41.8264 13.7931063,42.4556 L13.7931063,42.6272 C13.7931063,43.3884 14.4091063,44 15.1659063,44 C15.9227063,44 16.5387063,43.384 16.5387063,42.6272 L16.5387063,42.4556 C18.9675063,41.8264 20.6615063,39.6352 20.6659063,37.1272 L20.6659063,29.216 C26.2979063,27.016 30.2931063,21.538 30.2931063,15.1272 C30.2931063,6.7716 23.5171063,0 15.1659063,0 Z M17.9159062,37.1272 C17.9159062,38.6452 16.6839062,39.8772 15.1659063,39.8772 C13.6479063,39.8772 12.4159063,38.6452 12.4159063,37.1272 L12.4159063,36.4408 L17.9159062,36.4408 L17.9159062,37.1272 Z M17.9159062,35.0636 L12.4159063,35.0636 L12.4159063,33.6908 L17.9159062,33.6908 L17.9159062,35.0636 Z M17.9159062,32.3136 L12.4159063,32.3136 L12.4159063,30.9408 L17.9159062,30.9408 L17.9159062,32.3136 Z M17.9159063,27.192 L17.9159063,29.5592 L15.8523063,29.5592 L15.8523063,22.286 L19.7771063,18.3612 L18.8047063,17.3888 L15.1659063,21.0276 L11.5271063,17.3888 L10.5547063,18.3612 L14.4795063,22.286 L14.4795063,29.5636 L12.4159063,29.5636 L12.4159063,27.192 C6.90710625,25.9424 2.78870625,21.0144 2.78870625,15.1272 C2.78870625,8.294 8.32830625,2.7544 15.1615063,2.7544 C21.9947063,2.7544 27.5343063,8.294 27.5343063,15.1272 C27.5387063,21.0144 23.4291063,25.9424 17.9159063,27.192 L17.9159063,27.192 Z" id="Shape" fill="#5F4E56"></path>
                </g>
            </g>
        </g>
    </g>
</svg>