<?xml version="1.0" encoding="UTF-8" standalone="no"?>
<svg width="40px" height="40px" viewBox="0 0 40 40" version="1.1" xmlns="http://www.w3.org/2000/svg" xmlns:xlink="http://www.w3.org/1999/xlink">
    <!-- Generator: Sketch 40 (33762) - http://www.bohemiancoding.com/sketch -->
    <title>icon_room_bottom</title>
    <desc>Created with Sketch.</desc>
    <defs></defs>
    <g id="Page-1" stroke="none" stroke-width="1" fill="none" fill-rule="evenodd">
        <g id="icon_room_bottom">
            <g id="Lower">
                <g id="Group" transform="translate(5.000000, 1.000000)">
                    <polygon id="Shape" fill="#F0EEE2" points="21.4102094 22.5644 21.4102094 1.1856 9.53900938 1.1856 9.53900938 22.5644 1.22460938 22.5644 15.4746094 36.8144 29.7246094 22.5644"></polygon>
                    <polygon id="Shape" fill="#BBAA9C" points="10.7246094 2.375 20.2246094 2.375 20.2246094 4.75 10.7246094 4.75"></polygon>
                    <path d="M30.9102094,22.5644 C30.9102094,21.907 30.3782094,21.3788 29.7246094,21.3788 L22.5996094,21.3788 L22.5996094,1.1856 C22.5996094,0.5282 22.0676094,0 21.4140094,0 L9.53900937,0 C8.88160937,0 8.35340937,0.532 8.35340937,1.1856 L8.35340937,21.3712 L1.22460937,21.3712 C0.567209375,21.3712 0.035209375,21.9032 0.035209375,22.5568 C0.035209375,22.8722 0.160609375,23.1724 0.384809375,23.3966 L14.6348094,37.6466 C15.0984094,38.1102 15.8508094,38.1102 16.3144094,37.6466 L30.5644094,23.3966 C30.7886094,23.18 30.9140094,22.876 30.9102094,22.5644 Z M15.4746094,35.1348 L4.08980937,23.75 L9.53520937,23.75 C10.1926094,23.75 10.7208094,23.218 10.7208094,22.5644 L10.7208094,5.9356 L20.2208094,5.9356 L20.2208094,22.5606 C20.2208094,23.218 20.7528094,23.7462 21.4064094,23.7462 L26.8518094,23.7462 L15.4746094,35.1348 Z M20.2246094,4.75 L10.7246094,4.75 L10.7246094,2.375 L20.2246094,2.375 L20.2246094,4.75 Z" id="Shape" fill="#5F4E56"></path>
                </g>
            </g>
        </g>
    </g>
</svg>