<?xml version="1.0" encoding="UTF-8" standalone="no"?>
<svg width="88px" height="88px" viewBox="0 0 88 88" version="1.1" xmlns="http://www.w3.org/2000/svg" xmlns:xlink="http://www.w3.org/1999/xlink">
    <!-- Generator: Sketch 40 (33762) - http://www.bohemiancoding.com/sketch -->
    <title>icon_internet</title>
    <desc>Created with Sketch.</desc>
    <defs>
        <circle id="path-1" cx="40" cy="40" r="40"></circle>
        <filter x="-50%" y="-50%" width="200%" height="200%" filterUnits="objectBoundingBox" id="filter-2">
            <feOffset dx="0" dy="0" in="SourceAlpha" result="shadowOffsetOuter1"></feOffset>
            <feGaussianBlur stdDeviation="0.5" in="shadowOffsetOuter1" result="shadowBlurOuter1"></feGaussianBlur>
            <feColorMatrix values="0 0 0 0 0   0 0 0 0 0   0 0 0 0 0  0 0 0 0.5 0" type="matrix" in="shadowBlurOuter1"></feColorMatrix>
        </filter>
        <circle id="path-3" cx="40" cy="40" r="40"></circle>
        <filter x="-50%" y="-50%" width="200%" height="200%" filterUnits="objectBoundingBox" id="filter-4">
            <feOffset dx="0" dy="0" in="SourceAlpha" result="shadowOffsetOuter1"></feOffset>
            <feGaussianBlur stdDeviation="0.5" in="shadowOffsetOuter1" result="shadowBlurOuter1"></feGaussianBlur>
            <feColorMatrix values="0 0 0 0 0   0 0 0 0 0   0 0 0 0 0  0 0 0 0.5 0" type="matrix" in="shadowBlurOuter1"></feColorMatrix>
        </filter>
    </defs>
    <g id="Page-1" stroke="none" stroke-width="1" fill="none" fill-rule="evenodd">
        <g id="icon_internet">
            <g id="Group-4" transform="translate(4.000000, 4.000000)">
                <g id="Oval">
                    <use fill="black" fill-opacity="1" filter="url(#filter-2)" xlink:href="#path-1"></use>
                    <use fill="#FFFFFF" fill-rule="evenodd" xlink:href="#path-1"></use>
                </g>
                <g id="Global" transform="translate(13.000000, 13.000000)">
                    <g id="Group">
                        <path d="M1.6848,27 C1.6848,40.9811989 13.0188011,52.3152 27,52.3152 C40.9811989,52.3152 52.3152,40.9811989 52.3152,27 C52.3152,13.0188011 40.9811989,1.6848 27,1.6848 C13.0188011,1.6848 1.6848,13.0188011 1.6848,27 L1.6848,27 Z" id="Shape" fill="#F0EEE2"></path>
                        <path d="M27,38.8152 C18.657,38.8152 11.5992,41.445 9.261,45.0576 C19.1106,54.7344 34.8894,54.7344 44.739,45.0576 C42.4008,41.4396 35.343,38.8152 27,38.8152 Z M27,15.1848 C35.343,15.1848 42.4008,12.555 44.739,8.9424 C34.8894,-0.7344 19.1106,-0.7344 9.261,8.9424 C11.5992,12.5604 18.657,15.1848 27,15.1848 Z" id="Shape" fill="#BBAA9C"></path>
                        <path d="M27,0 C12.0906,0 0,12.0906 0,27 C0,41.9094 12.0906,54 27,54 C41.9094,54 54,41.9094 54,27 C54,12.0906 41.9094,0 27,0 Z M50.6088,26.1576 L40.4946,26.1576 C40.419,21.6918 39.7224,17.5176 38.5668,13.932 C40.6674,13.1112 42.5844,12.0798 44.2638,10.8702 C48.1572,15.0282 50.4144,20.4606 50.6088,26.1576 Z M27.8424,27.8424 L38.8044,27.8424 C38.7288,32.1192 38.0862,36.1098 37.017,39.5172 C34.2036,38.5992 31.104,38.0592 27.8424,37.9782 L27.8424,27.8424 Z M27.8424,26.1576 L27.8424,16.0218 C31.104,15.9408 34.2036,15.4008 37.017,14.4828 C38.0862,17.8902 38.7288,21.8808 38.8044,26.1576 L27.8424,26.1576 L27.8424,26.1576 Z M43.0596,9.6768 C41.4882,10.7676 39.7926,11.664 38.0052,12.3498 C36.666,8.8074 34.8462,5.94 32.7294,4.077 C36.5904,5.0382 40.1436,6.966 43.0596,9.6768 L43.0596,9.6768 Z M36.4716,12.8952 C33.8256,13.7484 30.9096,14.256 27.837,14.337 L27.837,3.4344 C31.374,3.9312 34.479,7.5384 36.4716,12.8952 L36.4716,12.8952 Z M26.1576,3.4344 L26.1576,14.3316 C23.085,14.2506 20.169,13.743 17.523,12.8952 C19.521,7.5384 22.626,3.9312 26.1576,3.4344 Z M15.9894,12.3498 C14.202,11.664 12.5064,10.7676 10.935,9.6768 C13.851,6.966 17.4042,5.0436 21.2652,4.077 C19.1484,5.94 17.334,8.8074 15.9894,12.3498 L15.9894,12.3498 Z M9.7416,10.8648 C11.4156,12.0744 13.338,13.1058 15.4332,13.9266 C14.2776,17.5176 13.581,21.6864 13.5054,26.1522 L3.3912,26.1522 C3.5856,20.4606 5.8428,15.0282 9.7416,10.8648 L9.7416,10.8648 Z M3.3912,27.8424 L13.5054,27.8424 C13.581,32.3082 14.2776,36.4824 15.4332,40.068 C13.3326,40.8888 11.4156,41.9202 9.7416,43.1298 C5.8428,38.9718 3.5856,33.5394 3.3912,27.8424 L3.3912,27.8424 Z M10.9404,44.3232 C12.5118,43.2324 14.2074,42.336 15.9948,41.6502 C17.3394,45.1926 19.1538,48.06 21.2706,49.923 C17.4096,48.9618 13.8564,47.034 10.9404,44.3232 L10.9404,44.3232 Z M26.1576,50.5656 C22.626,50.0688 19.521,46.4616 17.523,41.1048 C20.169,40.2516 23.085,39.744 26.1576,39.663 L26.1576,50.5656 L26.1576,50.5656 Z M26.1576,37.9782 C22.896,38.0592 19.7964,38.5992 16.983,39.5172 C15.9138,36.1098 15.2712,32.1192 15.1956,27.8424 L26.1576,27.8424 L26.1576,37.9782 Z M15.1956,26.1576 C15.2712,21.8808 15.9138,17.8902 16.983,14.4828 C19.7964,15.4008 22.896,15.9408 26.1576,16.0218 L26.1576,26.1576 L15.1956,26.1576 Z M27.8424,50.5656 L27.8424,39.6684 C30.915,39.7494 33.831,40.2516 36.477,41.1102 C34.479,46.4616 31.374,50.0688 27.8424,50.5656 L27.8424,50.5656 Z M32.7294,49.923 C34.8462,48.06 36.666,45.1926 38.0106,41.6502 C39.798,42.336 41.4936,43.2324 43.065,44.3232 C40.1436,47.034 36.5904,48.9618 32.7294,49.923 Z M44.2584,43.1352 C42.5844,41.9256 40.6674,40.8942 38.5614,40.0734 C39.717,36.4824 40.4136,32.3136 40.4892,27.8478 L50.6034,27.8478 C50.4144,33.5394 48.1572,38.9718 44.2584,43.1352 L44.2584,43.1352 Z" id="Shape" fill="#5F4E56"></path>
                    </g>
                </g>
            </g>
            <g id="Group-4" transform="translate(4.000000, 4.000000)">
                <g id="Oval">
                    <use fill="black" fill-opacity="1" filter="url(#filter-4)" xlink:href="#path-3"></use>
                    <use fill="#FFFFFF" fill-rule="evenodd" xlink:href="#path-3"></use>
                </g>
                <g id="Global" transform="translate(13.000000, 13.000000)">
                    <g id="Group">
                        <path d="M1.6848,27 C1.6848,40.9811989 13.0188011,52.3152 27,52.3152 C40.9811989,52.3152 52.3152,40.9811989 52.3152,27 C52.3152,13.0188011 40.9811989,1.6848 27,1.6848 C13.0188011,1.6848 1.6848,13.0188011 1.6848,27 L1.6848,27 Z" id="Shape" fill="#F0EEE2"></path>
                        <path d="M27,38.8152 C18.657,38.8152 11.5992,41.445 9.261,45.0576 C19.1106,54.7344 34.8894,54.7344 44.739,45.0576 C42.4008,41.4396 35.343,38.8152 27,38.8152 Z M27,15.1848 C35.343,15.1848 42.4008,12.555 44.739,8.9424 C34.8894,-0.7344 19.1106,-0.7344 9.261,8.9424 C11.5992,12.5604 18.657,15.1848 27,15.1848 Z" id="Shape" fill="#BBAA9C"></path>
                        <path d="M27,0 C12.0906,0 0,12.0906 0,27 C0,41.9094 12.0906,54 27,54 C41.9094,54 54,41.9094 54,27 C54,12.0906 41.9094,0 27,0 Z M50.6088,26.1576 L40.4946,26.1576 C40.419,21.6918 39.7224,17.5176 38.5668,13.932 C40.6674,13.1112 42.5844,12.0798 44.2638,10.8702 C48.1572,15.0282 50.4144,20.4606 50.6088,26.1576 Z M27.8424,27.8424 L38.8044,27.8424 C38.7288,32.1192 38.0862,36.1098 37.017,39.5172 C34.2036,38.5992 31.104,38.0592 27.8424,37.9782 L27.8424,27.8424 Z M27.8424,26.1576 L27.8424,16.0218 C31.104,15.9408 34.2036,15.4008 37.017,14.4828 C38.0862,17.8902 38.7288,21.8808 38.8044,26.1576 L27.8424,26.1576 L27.8424,26.1576 Z M43.0596,9.6768 C41.4882,10.7676 39.7926,11.664 38.0052,12.3498 C36.666,8.8074 34.8462,5.94 32.7294,4.077 C36.5904,5.0382 40.1436,6.966 43.0596,9.6768 L43.0596,9.6768 Z M36.4716,12.8952 C33.8256,13.7484 30.9096,14.256 27.837,14.337 L27.837,3.4344 C31.374,3.9312 34.479,7.5384 36.4716,12.8952 L36.4716,12.8952 Z M26.1576,3.4344 L26.1576,14.3316 C23.085,14.2506 20.169,13.743 17.523,12.8952 C19.521,7.5384 22.626,3.9312 26.1576,3.4344 Z M15.9894,12.3498 C14.202,11.664 12.5064,10.7676 10.935,9.6768 C13.851,6.966 17.4042,5.0436 21.2652,4.077 C19.1484,5.94 17.334,8.8074 15.9894,12.3498 L15.9894,12.3498 Z M9.7416,10.8648 C11.4156,12.0744 13.338,13.1058 15.4332,13.9266 C14.2776,17.5176 13.581,21.6864 13.5054,26.1522 L3.3912,26.1522 C3.5856,20.4606 5.8428,15.0282 9.7416,10.8648 L9.7416,10.8648 Z M3.3912,27.8424 L13.5054,27.8424 C13.581,32.3082 14.2776,36.4824 15.4332,40.068 C13.3326,40.8888 11.4156,41.9202 9.7416,43.1298 C5.8428,38.9718 3.5856,33.5394 3.3912,27.8424 L3.3912,27.8424 Z M10.9404,44.3232 C12.5118,43.2324 14.2074,42.336 15.9948,41.6502 C17.3394,45.1926 19.1538,48.06 21.2706,49.923 C17.4096,48.9618 13.8564,47.034 10.9404,44.3232 L10.9404,44.3232 Z M26.1576,50.5656 C22.626,50.0688 19.521,46.4616 17.523,41.1048 C20.169,40.2516 23.085,39.744 26.1576,39.663 L26.1576,50.5656 L26.1576,50.5656 Z M26.1576,37.9782 C22.896,38.0592 19.7964,38.5992 16.983,39.5172 C15.9138,36.1098 15.2712,32.1192 15.1956,27.8424 L26.1576,27.8424 L26.1576,37.9782 Z M15.1956,26.1576 C15.2712,21.8808 15.9138,17.8902 16.983,14.4828 C19.7964,15.4008 22.896,15.9408 26.1576,16.0218 L26.1576,26.1576 L15.1956,26.1576 Z M27.8424,50.5656 L27.8424,39.6684 C30.915,39.7494 33.831,40.2516 36.477,41.1102 C34.479,46.4616 31.374,50.0688 27.8424,50.5656 L27.8424,50.5656 Z M32.7294,49.923 C34.8462,48.06 36.666,45.1926 38.0106,41.6502 C39.798,42.336 41.4936,43.2324 43.065,44.3232 C40.1436,47.034 36.5904,48.9618 32.7294,49.923 Z M44.2584,43.1352 C42.5844,41.9256 40.6674,40.8942 38.5614,40.0734 C39.717,36.4824 40.4136,32.3136 40.4892,27.8478 L50.6034,27.8478 C50.4144,33.5394 48.1572,38.9718 44.2584,43.1352 L44.2584,43.1352 Z" id="Shape" fill="#5F4E56"></path>
                    </g>
                </g>
            </g>
        </g>
    </g>
</svg>