<?xml version="1.0" encoding="UTF-8" standalone="no"?>
<svg width="28px" height="28px" viewBox="0 0 28 28" version="1.1" xmlns="http://www.w3.org/2000/svg" xmlns:xlink="http://www.w3.org/1999/xlink">
    <!-- Generator: Sketch 40 (33762) - http://www.bohemiancoding.com/sketch -->
    <title>icon_join</title>
    <desc>Created with Sketch.</desc>
    <defs>
        <ellipse id="path-1" cx="14" cy="14" rx="14" ry="14"></ellipse>
        <mask id="mask-2" maskContentUnits="userSpaceOnUse" maskUnits="objectBoundingBox" x="0" y="0" width="28" height="28" fill="white">
            <use xlink:href="#path-1"></use>
        </mask>
    </defs>
    <g id="Page-1" stroke="none" stroke-width="1" fill="none" fill-rule="evenodd">
        <g id="icon_join">
            <g id="Group-2">
                <use id="Oval-3" stroke="#616161" mask="url(#mask-2)" stroke-width="4" xlink:href="#path-1"></use>
                <path d="M16.1075923,8.00000389 C16.1066534,8.0000013 16.1057142,8 16.1047747,8 L6.98406011,8 C6.43469546,8 6,8.43805651 6,8.9784266 C6,9.52256405 6.44057872,9.95685319 6.98406011,9.95685319 L15.1319816,9.95685319 L15.1319816,18.1047747 C15.1319816,18.648256 15.5662707,19.0888348 16.1104082,19.0888348 C16.6507783,19.0888348 17.0888348,18.6541393 17.0888348,18.1047747 L17.0888348,8.98406011 C17.0888348,8.98312059 17.0888335,8.98218138 17.0888309,8.98124247 C17.0888335,8.98030534 17.0888348,8.97936612 17.0888348,8.9784266 C17.0888348,8.70729792 16.9794499,8.46344188 16.8024537,8.28699465 C16.6253956,8.10938607 16.3815384,8 16.1104082,8 C16.1094686,8 16.1085294,8.00000131 16.1075905,8.00000394 Z" id="Combined-Shape" fill="#616161" transform="translate(11.544417, 13.544417) rotate(-315.000000) translate(-11.544417, -13.544417) "></path>
            </g>
        </g>
    </g>
</svg>