<?xml version="1.0" encoding="UTF-8" standalone="no"?>
<svg width="60px" height="60px" viewBox="0 0 60 60" version="1.1" xmlns="http://www.w3.org/2000/svg" xmlns:xlink="http://www.w3.org/1999/xlink">
    <!-- Generator: Sketch 40 (33762) - http://www.bohemiancoding.com/sketch -->
    <title>icon_number_people</title>
    <desc>Created with Sketch.</desc>
    <defs></defs>
    <g id="Page-1" stroke="none" stroke-width="1" fill="none" fill-rule="evenodd">
        <g id="icon_number_people" fill="#616161">
            <g id="人数">
                <g id="人数-2" transform="translate(4.000000, 14.000000)">
                    <path d="M11.7926246,32.9710896 C21.3821138,32.9669728 30.971306,32.9673905 40.5607952,32.9673905 L40.7563015,32.9673905 C40.7624779,32.9125007 40.768298,32.878135 40.7700202,32.8437693 C40.8490067,31.1986889 40.7059996,29.5737148 40.3058412,27.975589 C39.7500855,25.7566128 38.74963,23.7705002 37.1808286,22.0974976 C34.8889151,19.6534736 32.0051971,18.4224525 28.7403843,17.9904347 C27.4659707,17.8219471 26.1864496,17.8040483 24.9046124,17.8801779 C23.3843312,17.9706266 21.8916061,18.2179286 20.4451445,18.7042993 C16.3984847,20.0650271 13.674165,22.7655412 12.3334146,26.8447416 C11.7027701,28.763853 11.503463,30.744059 11.5709281,32.7573778 C11.5766887,32.928908 11.624912,32.9712089 11.7926246,32.9710896 L11.7926246,32.9710896 Z" id="Shape"></path>
                    <path d="M21.3511131,13.3611438 C23.0809163,14.8768158 25.1061169,15.4521435 27.3744533,15.0379649 C29.2982781,14.6866707 30.8651197,13.6961501 32.0354851,12.1390125 C33.8356634,9.74337495 34.232793,7.1198258 32.9832037,4.3584557 C31.5418495,1.17318195 27.9890629,-0.548266781 24.5861723,0.204378562 C21.1110656,0.973073157 18.6667023,3.9712446 18.6668211,7.75058016 C18.7219334,9.81646178 19.58247,11.8112851 21.3511131,13.3611438 L21.3511131,13.3611438 Z" id="Shape"></path>
                    <path d="M10.0701855,28.5079595 C10.7992958,24.5492181 12.6289307,21.2852492 15.9960101,18.9631161 C15.8093527,18.8819151 15.6437781,18.8053082 15.4749371,18.7371733 C14.1970789,18.2212697 12.8644053,17.9667485 11.492773,17.9044606 C9.68493355,17.8226033 7.90726341,17.9946706 6.19028806,18.6007246 C4.00390755,19.3725217 2.29946316,20.7328319 1.20303625,22.8084386 C0.38911954,24.3495269 0.0601677143,26.0102986 0.0448455312,27.7429042 C0.0427075536,27.9956355 0.0446079911,28.2484862 0.0446079911,28.5079594 L10.0701855,28.5079595 L10.0701855,28.5079595 Z" id="Shape"></path>
                    <path d="M10.5699381,16.0054556 C13.5154794,16.0232948 15.97855,13.5731852 15.9892993,10.6146895 C15.9997516,7.69831562 13.6594367,5.39336538 10.6757088,5.3813732 C7.72226888,5.36950031 5.3728675,7.66323394 5.35974272,10.571613 C5.34584578,13.5827908 7.6519531,15.9877358 10.5699381,16.0054556 L10.5699381,16.0054556 Z" id="Shape"></path>
                    <path d="M41.9296957,28.5079595 L51.9552138,28.5079595 C51.9552138,28.2484266 51.9570548,27.9956356 51.9549168,27.7429043 C51.9395946,26.0102987 51.6106428,24.349527 50.7966667,22.8084387 C49.7002991,20.732832 47.9959142,19.3724621 45.8094743,18.6007247 C44.0924989,17.9946707 42.3148288,17.8226034 40.5069894,17.9044607 C39.135357,17.9667486 37.8027428,18.2212698 36.5248847,18.7371734 C36.3559843,18.8053679 36.1904097,18.8819152 36.0037523,18.9631162 C39.3708911,21.2852492 41.2005854,24.5492181 41.9296957,28.5079595 L41.9296957,28.5079595 Z" id="Shape"></path>
                    <path d="M41.4299431,16.0054556 C44.3479281,15.9877358 46.6540948,13.5828505 46.6400792,10.5715533 C46.6269543,7.66317423 44.2774936,5.36944061 41.3241131,5.3813135 C38.3403852,5.39330573 36.0000703,7.69825592 36.0105226,10.6146298 C36.0213312,13.5731852 38.4844018,16.0232948 41.4299431,16.0054556 L41.4299431,16.0054556 Z" id="Shape"></path>
                </g>
            </g>
        </g>
    </g>
</svg>