<?xml version="1.0" encoding="UTF-8" standalone="no"?>
<svg width="32px" height="32px" viewBox="0 0 32 32" version="1.1" xmlns="http://www.w3.org/2000/svg" xmlns:xlink="http://www.w3.org/1999/xlink">
    <!-- Generator: Sketch 40 (33762) - http://www.bohemiancoding.com/sketch -->
    <title>icon_more_black</title>
    <desc>Created with Sketch.</desc>
    <defs>
        <ellipse id="path-1" cx="16" cy="16" rx="16" ry="16"></ellipse>
        <mask id="mask-2" maskContentUnits="userSpaceOnUse" maskUnits="objectBoundingBox" x="0" y="0" width="32" height="32" fill="white">
            <use xlink:href="#path-1"></use>
        </mask>
    </defs>
    <g id="Page-1" stroke="none" stroke-width="1" fill="none" fill-rule="evenodd">
        <g id="icon_more_black">
            <g id="Group-3">
                <use id="Oval-3" stroke="#616161" mask="url(#mask-2)" stroke-width="6" xlink:href="#path-1"></use>
                <path d="M19.1119031,9.61275696 C19.110835,9.61275401 19.1097664,9.61275253 19.1086976,9.61275253 L8.73229269,9.61275253 C8.1072945,9.61275253 7.61275253,10.1111183 7.61275253,10.7258836 C7.61275253,11.3449349 8.11398773,11.8390146 8.73229269,11.8390146 L18.0019756,11.8390146 L18.0019756,21.1086976 C18.0019756,21.7270025 18.4960553,22.2282377 19.1151067,22.2282377 C19.729872,22.2282377 20.2282377,21.7336958 20.2282377,21.1086976 L20.2282377,10.7322927 C20.2282377,10.7312238 20.2282362,10.7301553 20.2282333,10.7290871 C20.2282362,10.728021 20.2282377,10.7269525 20.2282377,10.7258836 C20.2282377,10.4174274 20.1037934,10.1399986 19.9024293,9.93925904 C19.7009948,9.73719828 19.4235646,9.61275253 19.1151067,9.61275253 C19.1140378,9.61275253 19.1129693,9.61275403 19.1119011,9.61275701 Z" id="Combined-Shape" fill="#616161" transform="translate(13.920495, 15.920495) rotate(-315.000000) translate(-13.920495, -15.920495) "></path>
            </g>
        </g>
    </g>
</svg>