<?xml version="1.0" encoding="UTF-8" standalone="no"?>
<svg width="32px" height="32px" viewBox="0 0 32 32" version="1.1" xmlns="http://www.w3.org/2000/svg" xmlns:xlink="http://www.w3.org/1999/xlink">
    <!-- Generator: Sketch 40 (33762) - http://www.bohemiancoding.com/sketch -->
    <title>icon_mine_personal_homepage</title>
    <desc>Created with Sketch.</desc>
    <defs></defs>
    <g id="Page-1" stroke="none" stroke-width="1" fill="none" fill-rule="evenodd">
        <g id="icon_mine_personal_homepage" fill="#616161" stroke="#616161">
            <g id="home">
                <path d="M29.6474681,12.9544157 L17.8174916,3.60449655 C16.7991466,2.79803452 15.201157,2.79896792 14.1837454,3.60449655 L2.35470225,12.9544157 C1.95053783,13.2745736 1.88146585,13.8616855 2.20069041,14.2658499 C2.51991496,14.6700143 3.09395911,14.7390863 3.49812353,14.4198617 L3.86681856,14.1174385 L3.86681856,25.4228414 C3.86681856,27.025498 5.55534843,28.2230567 7.04039598,28.2230567 L25.7084985,28.2230567 C27.1758114,28.2230567 28.1353518,27.0973702 28.1353518,25.4228414 L28.1353518,14.1613085 L28.4760447,14.4198617 C28.6477912,14.5552055 28.8587408,14.6205438 29.0612897,14.6205438 C29.3366442,14.6205438 29.6129321,14.4992012 29.796813,14.2658499 C30.1169709,13.8616855 30.052566,13.2745736 29.6474681,12.9544157 Z M15.0676801,26.3562465 L15.0676801,21.1814485 C15.0676801,20.9238287 15.5343826,20.7950187 16.0010852,20.7950187 C16.4677878,20.7950187 16.9344903,20.9238287 16.9344903,21.1814485 L16.9344903,26.3562465 L15.0676801,26.3562465 Z M26.2685416,25.4228414 C26.2685416,26.041689 26.0977284,26.3562465 25.7084985,26.3562465 L18.8199687,26.3562465 C18.8199687,26.3422454 18.8013006,26.3310445 18.8013006,26.3170435 L18.8013006,21.1814485 C18.8013006,20.0958983 17.9257666,18.9272751 16.0010852,18.9272751 C14.0764038,18.9272751 13.2008698,20.0958983 13.2008698,21.1814485 L13.2008698,26.3170435 C13.2008698,26.3310445 13.2260718,26.3422454 13.2260718,26.3562465 L7.04039598,26.3562465 C6.45515097,26.3562465 5.73362881,25.8503409 5.73362881,25.4228414 L5.73362881,12.641725 L15.3281001,5.06900919 C15.6725266,4.79645489 16.2941744,4.79645489 16.6395343,5.06900919 L26.2685416,12.685595 L26.2685416,25.4228414 Z" id="Shape"></path>
            </g>
        </g>
    </g>
</svg>