<?xml version="1.0" encoding="UTF-8" standalone="no"?>
<svg width="32px" height="32px" viewBox="0 0 32 32" version="1.1" xmlns="http://www.w3.org/2000/svg" xmlns:xlink="http://www.w3.org/1999/xlink">
    <!-- Generator: Sketch 40 (33762) - http://www.bohemiancoding.com/sketch -->
    <title>icon_details_page_picture</title>
    <desc>Created with Sketch.</desc>
    <defs></defs>
    <g id="Page-1" stroke="none" stroke-width="1" fill="none" fill-rule="evenodd">
        <g id="icon_details_page_picture">
            <g id="home">
                <g id="Picture" transform="translate(0.000000, 5.000000)">
                    <g id="Group">
                        <path d="M1.75,0.875 L26.25,0.875 C26.7344,0.875 27.1236,1.267 27.1236,1.7486 L27.1236,20.9986 C27.1236,21.483 26.7316,21.8722 26.25,21.8722 L1.75,21.8722 C1.2656,21.8722 0.8764,21.4802 0.8764,20.9986 L0.8764,1.7486 C0.8736,1.267 1.2656,0.875 1.75,0.875 Z" id="Shape" fill="#F0EEE2"></path>
                        <path d="M7,9.1882 C8.2068,9.1882 9.1868,8.2082 9.1868,7.0014 C9.1868,5.7946 8.2068,4.8146 7,4.8146 C5.7932,4.8146 4.8132,5.7946 4.8132,7.0014 C4.8132,8.2082 5.7904,9.1882 7,9.1882 Z M18.3736,8.7486 L11.8132,16.1882 L8.3132,13.125 L1.3132,17.9382 L1.3132,21.4382 L26.6868,21.4382 L26.6868,15.3118 L18.3736,8.7486 Z" id="Shape" fill="#BBAA9C"></path>
                        <path d="M26.25,0.0014 L1.75,0.0014 C0.784,0.0014 0,0.7826 0,1.7486 L0,20.9986 C0,21.9646 0.784,22.7486 1.75,22.7486 L26.25,22.7486 C27.216,22.7486 28,21.9646 28,20.9986 L28,1.7486 C28,0.7826 27.216,0.0014 26.25,0.0014 L26.25,0.0014 Z M26.25,21.0014 L1.75,21.0014 L1.75,18.1678 L8.2796,13.6794 L11.5248,16.5186 C11.7068,16.6782 11.9812,16.6614 12.1408,16.4794 L18.4296,9.3534 L26.25,15.5274 L26.25,21.0014 L26.25,21.0014 Z M26.25,14.4102 L18.6452,8.407 C18.4632,8.2614 18.2,8.2866 18.046,8.4602 L11.7712,15.5722 L8.5988,12.7946 C8.4476,12.663 8.2264,12.649 8.0612,12.7638 L1.7472,17.1038 L1.7472,1.7486 L26.2472,1.7486 L26.2472,14.4102 L26.25,14.4102 Z M7,9.625 C8.4504,9.625 9.6264,8.449 9.6264,6.9986 C9.6264,5.5482 8.4504,4.375 7,4.375 C5.5496,4.375 4.3736,5.551 4.3736,7.0014 C4.3736,8.4518 5.5496,9.625 7,9.625 Z M7,5.2486 C7.966,5.2486 8.75,6.0326 8.75,6.9986 C8.75,7.9646 7.966,8.7486 7,8.7486 C6.034,8.7486 5.25,7.9646 5.25,6.9986 C5.25,6.0326 6.034,5.2486 7,5.2486 Z" id="Shape" fill="#5F4E56"></path>
                    </g>
                </g>
            </g>
        </g>
    </g>
</svg>