<?xml version="1.0" encoding="UTF-8" standalone="no"?>
<svg width="88px" height="88px" viewBox="0 0 88 88" version="1.1" xmlns="http://www.w3.org/2000/svg" xmlns:xlink="http://www.w3.org/1999/xlink">
    <!-- Generator: Sketch 40 (33762) - http://www.bohemiancoding.com/sketch -->
    <title>icon_work</title>
    <desc>Created with Sketch.</desc>
    <defs>
        <circle id="path-1" cx="44" cy="44" r="40"></circle>
        <filter x="-50%" y="-50%" width="200%" height="200%" filterUnits="objectBoundingBox" id="filter-2">
            <feOffset dx="0" dy="0" in="SourceAlpha" result="shadowOffsetOuter1"></feOffset>
            <feGaussianBlur stdDeviation="0.5" in="shadowOffsetOuter1" result="shadowBlurOuter1"></feGaussianBlur>
            <feColorMatrix values="0 0 0 0 0   0 0 0 0 0   0 0 0 0 0  0 0 0 0.5 0" type="matrix" in="shadowBlurOuter1"></feColorMatrix>
        </filter>
    </defs>
    <g id="Page-1" stroke="none" stroke-width="1" fill="none" fill-rule="evenodd">
        <g id="icon_work">
            <g id="Oval">
                <use fill="black" fill-opacity="1" filter="url(#filter-2)" xlink:href="#path-1"></use>
                <use fill="#FFFFFF" fill-rule="evenodd" xlink:href="#path-1"></use>
            </g>
            <g id="Toolbox" transform="translate(19.000000, 21.000000)">
                <path d="M3.12477844,9.92444337 L46.8716766,9.92444337 C47.7366153,9.92444337 48.431566,10.6655673 48.431566,11.576091 L48.431566,41.3533914 C48.431566,42.2692088 47.7316156,43.005039 46.8716766,43.005039 L3.12477844,43.005039 C2.25983977,43.005039 1.56488904,42.2639151 1.56488904,41.3533914 L1.56488904,11.5813847 C1.5598894,10.6655673 2.25983977,9.92444337 3.12477844,9.92444337 Z" id="Shape" fill="#F0EEE2"></path>
                <polygon id="Shape" fill="#BBAA9C" points="3.12477844 11.5813847 3.12477844 23.9846229 21.8734491 23.9846229 21.8734491 23.1587991 28.1230059 23.1587991 28.1230059 23.9846229 46.8716766 23.9846229 46.8716766 11.5813847"></polygon>
                <path d="M46.8716766,8.27279577 L35.9374519,8.27279577 L35.9374519,3.31255924 C35.9374519,1.48621815 34.5375511,0.00397030672 32.8126734,0.00397030672 L17.1887812,0.00397030672 C15.4639035,0.00397030672 14.0640028,1.48621815 14.0640028,3.31255924 L14.0640028,8.27808952 L3.12477844,8.27808952 C1.39990074,8.27279577 0,9.75504362 0,11.5813847 L0,41.3586851 C0,43.1850262 1.39990074,44.6672741 3.12477844,44.6672741 L46.8716766,44.6672741 C48.5965543,44.6672741 49.996455,43.1850262 49.996455,41.3586851 L49.996455,11.5813847 C49.996455,9.75504362 48.5965543,8.27279577 46.8716766,8.27279577 Z M17.1887812,3.3072655 L32.8126734,3.3072655 L32.8126734,8.27279577 L17.1887812,8.27279577 L17.1887812,3.3072655 Z M46.8766762,41.3533914 L3.11977879,41.3533914 L3.11977879,25.6415642 L20.3135597,25.6415642 L20.3135597,26.4726818 C20.3135597,27.3884992 21.01351,28.1243294 21.8734491,28.1243294 L28.1230059,28.1243294 C28.9879446,28.1243294 29.6828953,27.3832055 29.6828953,26.4726818 L29.6828953,25.6415642 L46.8766762,25.6415642 L46.8766762,41.3533914 Z M21.8784487,26.4620943 L21.8784487,23.1482116 L28.1180063,23.1482116 L28.1180063,26.4620943 L21.8784487,26.4620943 Z M46.8766762,23.9793292 L29.687895,23.9793292 L29.687895,23.1587991 C29.687895,22.2429817 28.9879446,21.5071515 28.1280056,21.5071515 L21.8784487,21.5071515 C21.01351,21.5071515 20.3185593,22.2482754 20.3185593,23.1587991 L20.3185593,23.9793292 L3.11977879,23.9793292 L3.11977879,11.576091 L46.8766762,11.576091 L46.8766762,23.9793292 L46.8766762,23.9793292 Z" id="Shape" fill="#5F4E56"></path>
            </g>
        </g>
    </g>
</svg>