<?xml version="1.0" encoding="UTF-8" standalone="no"?>
<svg width="32px" height="32px" viewBox="0 0 32 32" version="1.1" xmlns="http://www.w3.org/2000/svg" xmlns:xlink="http://www.w3.org/1999/xlink">
    <!-- Generator: Sketch 40 (33762) - http://www.bohemiancoding.com/sketch -->
    <title>icon_remind_red</title>
    <desc>Created with Sketch.</desc>
    <defs></defs>
    <g id="Page-1" stroke="none" stroke-width="1" fill="none" fill-rule="evenodd">
        <g id="icon_remind_red" fill="#EE6E66">
            <g id="Group">
                <path d="M17.6686078,29.0315398 C17.6686078,32.2572408 15.1988209,30.5919056 15.1988209,30.5919056 L4.50408591,21.5784576 L2.85234019,21.5784576 C1.82890109,21.5784576 1,20.7327408 1,19.6894808 L1,12.135195 C1,11.0917259 1.82890109,10.2464275 2.85234019,10.2464275 L4.82795045,10.2464275 L15.1988209,1.43318993 C15.1988209,1.43318993 17.6688167,-0.245691333 17.6688167,3.00684039 L17.6688167,29.031749 L17.6686078,29.031749 L17.6686078,29.0315398 M23.2244798,20.9484849 C26.311609,18.4304768 26.1055846,13.6562301 23.2244798,11.5054315 C22.0930684,10.8237325 21.3727139,13.0794481 21.3727139,13.0794481 C21.3727139,13.0794481 24.2534532,16.6993462 21.3727139,19.3747821 C20.8065383,20.1093057 21.8870962,21.6307592 23.2244798,20.9484849 M24.7680444,6.15455971 C24.3564132,5.78703639 22.3503118,7.15132355 23.5334642,8.35765988 C29.6553029,13.5516269 29.7579496,18.4304768 23.5334642,23.7815578 C22.6070853,24.6733 23.8416132,26.3525997 24.7680444,25.9846057 C33.2560312,22.0497996 32.8966633,9.82675945 24.7680444,6.15455971" id="iconfont-laba1"></path>
            </g>
        </g>
    </g>
</svg>