<?xml version="1.0" encoding="UTF-8" standalone="no"?>
<svg width="60px" height="60px" viewBox="0 0 60 60" version="1.1" xmlns="http://www.w3.org/2000/svg" xmlns:xlink="http://www.w3.org/1999/xlink">
    <!-- Generator: Sketch 40 (33762) - http://www.bohemiancoding.com/sketch -->
    <title>icon_purchase</title>
    <desc>Created with Sketch.</desc>
    <defs></defs>
    <g id="Page-1" stroke="none" stroke-width="1" fill="none" fill-rule="evenodd">
        <g id="icon_purchase">
            <g id="Lifesaver">
                <g id="Compass" transform="translate(11.000000, 8.000000)">
                    <g id="Group">
                        <path d="M1.3772,24.75 C1.3772,34.6208749 9.37912512,42.6228 19.25,42.6228 C29.1208749,42.6228 37.1228,34.6208749 37.1228,24.75 C37.1228,14.8791251 29.1208749,6.8772 19.25,6.8772 C9.37912512,6.8772 1.3772,14.8791251 1.3772,24.75 L1.3772,24.75 Z" id="Shape" fill="#F0EEE2"></path>
                        <path d="M16.742,22.3432 C15.664,23.4124 13.09,29.0004 11.6116,32.3796 C15.0128,30.9144 20.6404,28.358 21.7184,27.2888 C22.7964,26.2196 25.3704,20.6316 26.8444,17.2524 C23.4476,18.7176 17.82,21.274 16.742,22.3432 L16.742,22.3432 Z" id="Shape" fill="#BBAA9C"></path>
                        <path d="M10.3048,33.6952 C10.3048,33.6952 20.5832,29.3788 22.2288,27.7332 C23.8744,26.0876 28.1908,15.8092 28.1908,15.8092 C28.1908,15.8092 17.9124,20.1256 16.2668,21.7712 C14.6212,23.4168 10.3048,33.6952 10.3048,33.6952 Z M25.4848,18.5152 C23.8656,22.1408 21.9956,25.9776 21.2344,26.7388 C20.4732,27.5 16.6364,29.37 13.0108,30.9892 C14.63,27.3636 16.5,23.5268 17.2612,22.7656 C18.0224,22.0044 21.8636,20.13 25.4848,18.5152 Z M32.8768,11.154 C32.8724,11.1496 32.868,11.1408 32.8636,11.1364 C32.8592,11.132 32.8504,11.1276 32.846,11.1188 C30.1532,8.4304 26.7212,6.6 22.99,5.8652 C23.9492,3.7972 23.0516,1.3464 20.988,0.3872 C18.92,-0.572 16.4692,0.3256 15.51,2.3892 C14.9996,3.4892 14.9996,4.7608 15.51,5.8652 C11.7788,6.6044 8.3512,8.4348 5.6584,11.1232 C5.654,11.1276 5.6452,11.132 5.6408,11.1408 C5.6364,11.1496 5.632,11.1496 5.6276,11.1584 C2.0196,14.762 -0.0044,19.6548 0.0044,24.7544 C4.44956572e-16,35.3804 8.6196,44 19.25,44 C29.8804,44 38.5,35.3804 38.5,24.75 C38.5044,19.6504 36.4848,14.7576 32.8768,11.154 L32.8768,11.154 Z M19.25,2.75 C20.0112,2.75 20.6228,3.366 20.6228,4.1228 C20.6228,4.8796 20.0112,5.5 19.25,5.5 C18.4888,5.5 17.8772,4.884 17.8772,4.1272 C17.8772,3.3704 18.4888,2.75 19.25,2.75 L19.25,2.75 Z M31.394,35.9216 L30.9188,35.4464 C30.6504,35.178 30.2148,35.178 29.9464,35.4464 C29.678,35.7148 29.678,36.1504 29.9464,36.4188 L30.4216,36.894 C27.5528,39.5384 23.8392,41.0784 19.9408,41.2368 L19.9408,40.5636 C19.932,40.1852 19.6152,39.886 19.2368,39.8948 C18.8716,39.9036 18.5768,40.1984 18.568,40.5636 L18.568,41.2368 C14.6696,41.0784 10.9516,39.5384 8.0872,36.894 L8.5624,36.4188 C8.8308,36.1504 8.8308,35.7148 8.5624,35.4464 C8.294,35.178 7.8584,35.178 7.59,35.4464 L7.106,35.9216 C4.4616,33.0528 2.9216,29.3392 2.7632,25.4408 L3.4364,25.4408 C3.8148,25.4408 4.1228,25.1328 4.1228,24.7544 C4.1228,24.376 3.8148,24.068 3.4364,24.068 L2.7632,24.068 C2.9216,20.1696 4.4616,16.4516 7.106,13.5872 L7.5812,14.0624 C7.8496,14.3308 8.2852,14.3308 8.5536,14.0624 C8.822,13.794 8.822,13.3584 8.5536,13.09 L8.0784,12.6148 C10.9472,9.9704 14.6608,8.4304 18.5592,8.272 L18.5592,8.9452 C18.568,9.3236 18.8848,9.6228 19.2632,9.614 C19.6284,9.6052 19.9232,9.3104 19.932,8.9452 L19.932,8.272 C23.8304,8.4304 27.5484,9.9704 30.4128,12.6148 L29.942,13.0812 C29.6736,13.3496 29.6736,13.7852 29.942,14.0536 C30.2104,14.322 30.646,14.322 30.9144,14.0536 L31.394,13.5784 C34.0384,16.4472 35.5784,20.1608 35.7368,24.0592 L35.0636,24.0592 C34.6852,24.0592 34.3772,24.3672 34.3772,24.7456 C34.3772,25.124 34.6852,25.432 35.0636,25.432 L35.7368,25.432 C35.5784,29.3348 34.0384,33.0528 31.394,35.9216 Z" id="Shape" fill="#5F4E56"></path>
                    </g>
                </g>
            </g>
        </g>
    </g>
</svg>