<?xml version="1.0" encoding="UTF-8" standalone="no"?>
<svg width="60px" height="60px" viewBox="0 0 60 60" version="1.1" xmlns="http://www.w3.org/2000/svg" xmlns:xlink="http://www.w3.org/1999/xlink">
    <!-- Generator: Sketch 40 (33762) - http://www.bohemiancoding.com/sketch -->
    <title>icon_feedback</title>
    <desc>Created with Sketch.</desc>
    <defs></defs>
    <g id="Page-1" stroke="none" stroke-width="1" fill="none" fill-rule="evenodd">
        <g id="icon_feedback">
            <g id="Pencil">
                <g id="Group" transform="translate(10.000000, 10.000000)">
                    <path d="M35,1.248 C34.004,1.244 33.052,1.64 32.348,2.348 L4.848,29.848 C3.876,30.82 2.564,34.884 1.688,38.308 C5.112,37.432 9.176,36.12 10.152,35.148 L37.652,7.648 C39.116,6.184 39.116,3.808 37.648,2.344 C36.944,1.644 35.992,1.252 35,1.248 L35,1.248 Z" id="Shape" fill="#F0EEE2"></path>
                    <path d="M1.876,38.124 C6.876,38.124 11.252,33.748 11.252,33.748 L6.252,28.748 C6.248,28.752 1.876,33.124 1.876,38.124 L1.876,38.124 Z M35,1.248 C34.004,1.248 33.052,1.644 32.348,2.348 L30,4.696 L35.304,10 L37.652,7.652 C39.116,6.188 39.116,3.812 37.652,2.348 C36.948,1.644 35.996,1.252 35,1.248 L35,1.248 Z" id="Shape" fill="#BBAA9C"></path>
                    <path d="M35,0 C33.672,0 32.4,0.524 31.464,1.464 L3.964,28.964 C2.012,30.916 0,40 0,40 C0,40 9.084,37.988 11.036,36.036 L38.536,8.536 C40.488,6.584 40.488,3.416 38.536,1.464 C37.6,0.528 36.328,0 35,0 Z M30.292,6.176 L33.828,9.712 L10.96,32.576 L7.424,29.04 L30.292,6.176 L30.292,6.176 Z M3.464,36.536 C4.292,33.664 5.196,31.296 5.732,30.732 L6.54,29.924 L10.076,33.46 L9.268,34.268 C8.704,34.804 6.336,35.708 3.464,36.536 Z M36.768,6.768 L34.708,8.824 L31.172,5.288 L33.232,3.232 C34.208,2.256 35.792,2.256 36.768,3.232 C37.744,4.208 37.744,5.792 36.768,6.768 Z" id="Shape" fill="#5F4E56"></path>
                </g>
            </g>
        </g>
    </g>
</svg>