<?xml version="1.0" encoding="UTF-8" standalone="no"?>
<svg width="60px" height="60px" viewBox="0 0 60 60" version="1.1" xmlns="http://www.w3.org/2000/svg" xmlns:xlink="http://www.w3.org/1999/xlink">
    <!-- Generator: Sketch 40 (33762) - http://www.bohemiancoding.com/sketch -->
    <title>icon_create_course_introduction</title>
    <desc>Created with Sketch.</desc>
    <defs></defs>
    <g id="Page-1" stroke="none" stroke-width="1" fill="none" fill-rule="evenodd">
        <g id="icon_create_course_introduction">
            <g id="Window">
                <g id="Group" transform="translate(8.000000, 11.000000)">
                    <path d="M2.74978825,1.38018747 L41.2468237,1.38018747 C42.0079651,1.38018747 42.619518,1.99614003 42.619518,2.75288176 L42.619518,35.7503407 C42.619518,36.5114821 42.0035654,37.123035 41.2468237,37.123035 L2.74978825,37.123035 C1.98864686,37.123035 1.37709395,36.5070825 1.37709395,35.7503407 L1.37709395,2.75288176 C1.37269429,1.99174037 1.98864686,1.38018747 2.74978825,1.38018747 Z" id="Shape" fill="#F0EEE2"></path>
                    <path d="M6.87227079,31.6234585 L23.3710003,31.6234585 L23.3710003,12.3793405 L6.87227079,12.3793405 L6.87227079,31.6234585 Z M28.8705768,12.3793405 L28.8705768,26.1282817 L37.1199415,26.1282817 L37.1199415,12.3793405 L28.8705768,12.3793405 Z" id="Shape" fill="#BBAA9C"></path>
                    <path d="M38.4970355,11.0022465 L27.4978825,11.0022465 L27.4978825,27.500976 L38.4970355,27.500976 L38.4970355,11.0022465 Z M37.1243412,26.123882 L28.8705768,26.123882 L28.8705768,12.3793405 L37.1199415,12.3793405 L37.1199415,26.123882 L37.1243412,26.123882 Z M10.3128058,5.50267001 C10.6911767,5.50267001 10.999153,5.19469372 10.999153,4.81632286 C10.999153,4.437952 10.6911767,4.12997571 10.3128058,4.12997571 C9.93443498,4.12997571 9.6264587,4.437952 9.6264587,4.81632286 C9.6264587,5.19469372 9.93443498,5.50267001 10.3128058,5.50267001 Z M41.2468237,0.00309351178 L2.74978825,0.00309351178 C1.23190514,0.00309351178 0,1.23499865 0,2.75288176 L0,35.7503407 C0,37.2682239 1.23190514,38.500129 2.74978825,38.500129 L41.2468237,38.500129 C42.7647068,38.500129 43.996612,37.2682239 43.996612,35.7503407 L43.996612,2.75288176 C43.996612,1.23499865 42.7647068,0.00309351178 41.2468237,0.00309351178 Z M41.2468237,35.7503407 L2.74978825,35.7503407 L2.74978825,8.25245826 L41.2468237,8.25245826 L41.2468237,35.7503407 Z M41.2468237,6.87976396 L2.74978825,6.87976396 L2.74978825,2.75288176 L41.2468237,2.75288176 L41.2468237,6.87976396 Z M24.7480942,11.0022465 L5.4995765,11.0022465 L5.4995765,33.0005525 L24.7480942,33.0005525 L24.7480942,11.0022465 Z M23.3710003,31.6234585 L6.87227079,31.6234585 L6.87227079,12.3793405 L23.3710003,12.3793405 L23.3710003,31.6234585 Z M7.5630176,5.50267001 C7.94138846,5.50267001 8.24936474,5.19469372 8.24936474,4.81632286 C8.24936474,4.437952 7.94138846,4.12997571 7.5630176,4.12997571 C7.18464673,4.12997571 6.87667045,4.437952 6.87667045,4.81632286 C6.87667045,5.19469372 7.18464673,5.50267001 7.5630176,5.50267001 Z M4.81322935,5.50267001 C5.19160021,5.50267001 5.4995765,5.19469372 5.4995765,4.81632286 C5.4995765,4.437952 5.19160021,4.12997571 4.81322935,4.12997571 C4.43485849,4.12997571 4.1268822,4.437952 4.1268822,4.81632286 C4.1268822,5.19469372 4.43485849,5.50267001 4.81322935,5.50267001 Z M14.4352884,5.50267001 L35.0609001,5.50267001 C35.4392709,5.49387069 35.7384479,5.17709508 35.7296486,4.79872422 C35.7208493,4.43355234 35.426072,4.13877504 35.0609001,4.12997571 L14.4352884,4.12997571 C14.0569175,4.13877504 13.7577406,4.45555064 13.7665399,4.83392151 C13.7753392,5.19909339 14.0701165,5.49387069 14.4352884,5.50267001 Z M37.8106883,5.50267001 L39.1833826,5.50267001 C39.5617535,5.49387069 39.8609304,5.17709508 39.8521311,4.79872422 C39.8433318,4.43355234 39.5485545,4.13877504 39.1833826,4.12997571 L37.8106883,4.12997571 C37.4323175,4.13877504 37.1331405,4.45555064 37.1419398,4.83392151 C37.1507391,5.19909339 37.4455164,5.49387069 37.8106883,5.50267001 Z" id="Shape" fill="#5F4E56"></path>
                </g>
            </g>
        </g>
    </g>
</svg>