<?xml version="1.0" encoding="UTF-8" standalone="no"?>
<svg width="32px" height="32px" viewBox="0 0 32 32" version="1.1" xmlns="http://www.w3.org/2000/svg" xmlns:xlink="http://www.w3.org/1999/xlink">
    <!-- Generator: Sketch 40 (33762) - http://www.bohemiancoding.com/sketch -->
    <title>icon_room_home</title>
    <desc>Created with Sketch.</desc>
    <defs></defs>
    <g id="Page-1" stroke="none" stroke-width="1" fill="none" fill-rule="evenodd">
        <g id="icon_room_home">
            <g id="面包live"></g>
            <path d="M4.30892648,27.9902327 C4.30892648,28.5479118 4.75686644,29 5.31377114,29 L10.6414481,29 C11.1964084,29 11.6462927,28.5527284 11.6462927,27.9972336 L11.6462927,23.4651791 C11.6462927,21.2539662 13.4280834,19.4614239 15.636523,19.4614239 L16.4609019,19.4614239 C18.6646453,19.4614239 20.4511322,21.2555571 20.4511322,23.4651791 L20.4511322,27.9972336 C20.4511322,28.5510462 20.8990722,29 21.4559769,29 L26.7836538,29 C27.3386142,29 27.7884985,28.5514173 27.7884985,27.9902327 L27.7884985,13.8675615 C27.7884985,13.3098824 27.4865024,12.5369234 27.1065744,12.1332499 L20.1547199,4.74690452 C17.8870346,2.3374889 14.2143709,2.33325952 11.942705,4.74690452 L4.9908506,12.1332499 C4.61423431,12.5334047 4.30892648,13.3063769 4.30892648,13.8675615 L4.30892648,27.9902327 Z" id="Path-6-Copy" stroke="#616161" stroke-width="2" stroke-linecap="round" stroke-linejoin="round"></path>
        </g>
    </g>
</svg>