<?xml version="1.0" encoding="UTF-8" standalone="no"?>
<svg width="80px" height="80px" viewBox="0 0 80 80" version="1.1" xmlns="http://www.w3.org/2000/svg" xmlns:xlink="http://www.w3.org/1999/xlink">
    <!-- Generator: Sketch 40 (33762) - http://www.bohemiancoding.com/sketch -->
    <title>nav_internet</title>
    <desc>Created with Sketch.</desc>
    <defs></defs>
    <g id="Page-1" stroke="none" stroke-width="1" fill="none" fill-rule="evenodd">
        <g id="nav_internet">
            <g id="互联网">
                <g id="Global" transform="translate(11.000000, 11.000000)">
                    <g id="Group">
                        <path d="M1.8096,29 C1.8096,44.0168433 13.9831567,56.1904 29,56.1904 C44.0168433,56.1904 56.1904,44.0168433 56.1904,29 C56.1904,13.9831567 44.0168433,1.8096 29,1.8096 C13.9831567,1.8096 1.8096,13.9831567 1.8096,29 L1.8096,29 Z" id="Shape" fill="#F0EEE2"></path>
                        <path d="M29,41.6904 C20.039,41.6904 12.4584,44.515 9.947,48.3952 C20.5262,58.7888 37.4738,58.7888 48.053,48.3952 C45.5416,44.5092 37.961,41.6904 29,41.6904 Z M29,16.3096 C37.961,16.3096 45.5416,13.485 48.053,9.6048 C37.4738,-0.7888 20.5262,-0.7888 9.947,9.6048 C12.4584,13.4908 20.039,16.3096 29,16.3096 Z" id="Shape" fill="#BBAA9C"></path>
                        <path d="M29,0 C12.9862,0 0,12.9862 0,29 C0,45.0138 12.9862,58 29,58 C45.0138,58 58,45.0138 58,29 C58,12.9862 45.0138,0 29,0 Z M54.3576,28.0952 L43.4942,28.0952 C43.413,23.2986 42.6648,18.8152 41.4236,14.964 C43.6798,14.0824 45.7388,12.9746 47.5426,11.6754 C51.7244,16.1414 54.1488,21.9762 54.3576,28.0952 Z M29.9048,29.9048 L41.6788,29.9048 C41.5976,34.4984 40.9074,38.7846 39.759,42.4444 C36.7372,41.4584 33.408,40.8784 29.9048,40.7914 L29.9048,29.9048 Z M29.9048,28.0952 L29.9048,17.2086 C33.408,17.1216 36.7372,16.5416 39.759,15.5556 C40.9074,19.2154 41.5976,23.5016 41.6788,28.0952 L29.9048,28.0952 L29.9048,28.0952 Z M46.2492,10.3936 C44.5614,11.5652 42.7402,12.528 40.8204,13.2646 C39.382,9.4598 37.4274,6.38 35.1538,4.379 C39.3008,5.4114 43.1172,7.482 46.2492,10.3936 L46.2492,10.3936 Z M39.1732,13.8504 C36.3312,14.7668 33.1992,15.312 29.899,15.399 L29.899,3.6888 C33.698,4.2224 37.033,8.0968 39.1732,13.8504 L39.1732,13.8504 Z M28.0952,3.6888 L28.0952,15.3932 C24.795,15.3062 21.663,14.761 18.821,13.8504 C20.967,8.0968 24.302,4.2224 28.0952,3.6888 Z M17.1738,13.2646 C15.254,12.528 13.4328,11.5652 11.745,10.3936 C14.877,7.482 18.6934,5.4172 22.8404,4.379 C20.5668,6.38 18.618,9.4598 17.1738,13.2646 L17.1738,13.2646 Z M10.4632,11.6696 C12.2612,12.9688 14.326,14.0766 16.5764,14.9582 C15.3352,18.8152 14.587,23.2928 14.5058,28.0894 L3.6424,28.0894 C3.8512,21.9762 6.2756,16.1414 10.4632,11.6696 L10.4632,11.6696 Z M3.6424,29.9048 L14.5058,29.9048 C14.587,34.7014 15.3352,39.1848 16.5764,43.036 C14.3202,43.9176 12.2612,45.0254 10.4632,46.3246 C6.2756,41.8586 3.8512,36.0238 3.6424,29.9048 L3.6424,29.9048 Z M11.7508,47.6064 C13.4386,46.4348 15.2598,45.472 17.1796,44.7354 C18.6238,48.5402 20.5726,51.62 22.8462,53.621 C18.6992,52.5886 14.8828,50.518 11.7508,47.6064 L11.7508,47.6064 Z M28.0952,54.3112 C24.302,53.7776 20.967,49.9032 18.821,44.1496 C21.663,43.2332 24.795,42.688 28.0952,42.601 L28.0952,54.3112 L28.0952,54.3112 Z M28.0952,40.7914 C24.592,40.8784 21.2628,41.4584 18.241,42.4444 C17.0926,38.7846 16.4024,34.4984 16.3212,29.9048 L28.0952,29.9048 L28.0952,40.7914 Z M16.3212,28.0952 C16.4024,23.5016 17.0926,19.2154 18.241,15.5556 C21.2628,16.5416 24.592,17.1216 28.0952,17.2086 L28.0952,28.0952 L16.3212,28.0952 Z M29.9048,54.3112 L29.9048,42.6068 C33.205,42.6938 36.337,43.2332 39.179,44.1554 C37.033,49.9032 33.698,53.7776 29.9048,54.3112 L29.9048,54.3112 Z M35.1538,53.621 C37.4274,51.62 39.382,48.5402 40.8262,44.7354 C42.746,45.472 44.5672,46.4348 46.255,47.6064 C43.1172,50.518 39.3008,52.5886 35.1538,53.621 Z M47.5368,46.3304 C45.7388,45.0312 43.6798,43.9234 41.4178,43.0418 C42.659,39.1848 43.4072,34.7072 43.4884,29.9106 L54.3518,29.9106 C54.1488,36.0238 51.7244,41.8586 47.5368,46.3304 L47.5368,46.3304 Z" id="Shape" fill="#5F4E56"></path>
                    </g>
                </g>
            </g>
        </g>
    </g>
</svg>