<?xml version="1.0" encoding="UTF-8" standalone="no"?>
<svg width="80px" height="80px" viewBox="0 0 80 80" version="1.1" xmlns="http://www.w3.org/2000/svg" xmlns:xlink="http://www.w3.org/1999/xlink">
    <!-- Generator: Sketch 40 (33762) - http://www.bohemiancoding.com/sketch -->
    <title>nav_fashion</title>
    <desc>Created with Sketch.</desc>
    <defs></defs>
    <g id="Page-1" stroke="none" stroke-width="1" fill="none" fill-rule="evenodd">
        <g id="nav_fashion">
            <g id="shishang">
                <g id="鞋" transform="translate(11.000000, 16.000000)">
                    <path d="M45.6329189,23.2237972 L39.5202781,23.2237972 C36.117063,23.2237972 33.5484483,22.3337119 31.8876055,20.5774139 C29.4762758,18.0290815 29.6511475,14.3581469 29.6560916,14.2048112 L29.6560916,1.98255166 C29.6560916,0.916541092 28.7911444,0.0515644572 27.7250867,0.0515644572 L1.9769987,0.0515644572 C0.910941059,0.0515644572 0.045876138,0.916535229 0.045876138,1.98255166 L0.045876138,40.6030092 C0.045876138,40.7136437 0.0609907491,40.8192224 0.0786362356,40.9248011 C0.0609907491,41.0304387 0.045876138,41.1360762 0.045876138,41.2466519 L0.045876138,46.3961404 C0.045876138,47.0950681 0.42061639,47.7010126 0.976290659,48.0403912 C1.31573988,48.5960419 1.92164908,48.9707704 2.6207828,48.9707704 L56.0477822,48.9707704 C57.1139575,48.9707704 57.9789047,48.1058584 57.9789047,47.0397243 L57.9789047,40.6030092 L57.9789047,36.0318162 C57.9789052,26.5452296 49.9866659,23.5091799 45.6329189,23.2237972 Z" id="Path" fill="#BBAA9C"></path>
                    <path d="M3.90817909,3.91365433 L25.7951369,3.91365433 L25.7977267,14.077879 C25.7838481,14.2941512 25.4922147,19.398291 29.0438921,23.1911489 C31.4641034,25.7759495 34.9881353,27.0858776 39.5202796,27.0858776 L45.5046931,27.0821107 C45.8566732,27.1047532 54.1167202,27.748396 54.1167202,36.0318684 L54.1167202,38.6720179 L3.90818012,38.6720179 L3.90818012,3.91365393 L3.90817909,3.91365433 Z" id="Path" fill="#F0EEE2"></path>
                    <path d="M45.6329189,23.2237972 L39.5202781,23.2237972 C36.117063,23.2237972 33.5484483,22.3337119 31.8876055,20.5774139 C29.4762758,18.0290815 29.6511475,14.3581469 29.6560916,14.2048112 L29.6560916,1.98255166 C29.6560916,0.916541092 28.7911444,0.0515644572 27.7250867,0.0515644572 L1.9769987,0.0515644572 C0.910941059,0.0515644572 0.045876138,0.916535229 0.045876138,1.98255166 L0.045876138,40.6030092 C0.045876138,40.7136437 0.0609907491,40.8192224 0.0786362356,40.9248011 C0.0609907491,41.0304387 0.045876138,41.1360762 0.045876138,41.2466519 L0.045876138,46.3961404 C0.045876138,47.0950681 0.42061639,47.7010126 0.976290659,48.0403912 C1.31573988,48.5960419 1.92164908,48.9707704 2.6207828,48.9707704 L56.0477822,48.9707704 C57.1139575,48.9707704 57.9789047,48.1058584 57.9789047,47.0397243 L57.9789047,40.6030092 L57.9789047,36.0318162 C57.9789052,26.5452296 49.9866659,23.5091799 45.6329189,23.2237972 Z M3.90817909,3.91365433 L25.7951369,3.91365433 L25.7977267,14.077879 C25.7838481,14.2941512 25.4922147,19.398291 29.0438921,23.1911489 C31.4641034,25.7759495 34.9881353,27.0858776 39.5202796,27.0858776 L45.5046931,27.0821107 C45.8566732,27.1047532 54.1167202,27.748396 54.1167202,36.0318684 L54.1167202,38.6720179 L3.90818012,38.6720179 L3.90818012,3.91365393 L3.90817909,3.91365433 Z M54.1167777,45.1086819 L3.90818012,45.1086819 L3.90818012,42.5339965 L54.1167203,42.5339965 L54.1167202,45.1086792 L54.1167777,45.1086819 Z M20.6204962,6.16519748 C19.6460798,6.16519748 18.856482,6.95470699 18.856482,7.92896448 C18.856482,8.90457569 19.6460856,9.69279033 20.6204962,9.69279033 C21.5959662,9.69279033 22.3843927,8.90457569 22.3843927,7.92896448 C22.3843985,6.95470699 21.5960309,6.16519748 20.6204962,6.16519748 Z M20.6204962,11.9859105 C19.6460798,11.9859105 18.856482,12.774184 18.856482,13.7497363 C18.856482,14.7240527 19.6460856,15.5122085 20.6204962,15.5122085 C21.5959662,15.5122085 22.3843927,14.7240527 22.3843927,13.7497363 C22.3843985,12.7741839 21.5960309,11.9859105 20.6204962,11.9859105 Z M20.6204962,17.8053345 C19.6460798,17.8053345 18.856482,18.5949029 18.856482,19.5704552 C18.856482,20.5434767 19.6460856,21.3330451 20.6204962,21.3330451 C21.5959662,21.3330451 22.3843927,20.5434767 22.3843927,19.5704552 C22.3843985,18.5949028 21.5960309,17.8053345 20.6204962,17.8053345 Z" id="Shape" fill="#5F4E56"></path>
                </g>
            </g>
        </g>
    </g>
</svg>