<?xml version="1.0" encoding="UTF-8" standalone="no"?>
<svg width="80px" height="80px" viewBox="0 0 80 80" version="1.1" xmlns="http://www.w3.org/2000/svg" xmlns:xlink="http://www.w3.org/1999/xlink">
    <!-- Generator: Sketch 40 (33762) - http://www.bohemiancoding.com/sketch -->
    <title>nav_body_building</title>
    <desc>Created with Sketch.</desc>
    <defs></defs>
    <g id="Page-1" stroke="none" stroke-width="1" fill="none" fill-rule="evenodd">
        <g id="nav_body_building">
            <g id="meizhuang">
                <g id="健身-2" transform="translate(10.000000, 16.000000)">
                    <path d="M55.8135292,5.99730996 L54.9846232,5.99730996 C54.4736133,5.99730996 53.9845107,6.09036445 53.5325612,6.25944205 L53.5325612,5.52613149 C53.5325612,2.47902641 51.0535349,6.87214564e-05 48.0064984,6.87214564e-05 L47.8683246,6.87214564e-05 C44.8212881,6.87214564e-05 42.3422618,2.47902641 42.3422618,5.52613149 L42.3422618,19.6743273 L17.6128442,19.6743273 L17.6128442,5.52606277 C17.6128442,2.47895769 15.1338865,0 12.0867814,0 L11.9486075,0 C8.90150247,0 6.42254478,2.47895769 6.42254478,5.52606277 L6.42254478,6.2582058 C5.97141942,6.08981495 5.48334689,5.99724117 4.97350448,5.99724117 L4.14459855,5.99724124 C1.85559563,5.99724124 0,7.85283687 0,10.1418398 L0,37.357838 C0,39.6468409 1.85559563,41.5024365 4.14459855,41.5024365 L4.97350455,41.5024365 C5.48334695,41.5024365 5.97141942,41.4098628 6.42254484,41.2414719 L6.42254484,42.2746857 C6.42254484,45.3217221 8.90150253,47.8007485 11.9486076,47.8007485 L12.0867815,47.8007485 C15.1338866,47.8007485 17.6128443,45.3217221 17.6128443,42.2746857 L17.6128442,28.2398035 L42.3421245,28.2398035 L42.3421245,42.2746858 C42.3421245,45.3217222 44.8211508,47.8007485 47.8681872,47.8007485 L48.0063611,47.8007485 C51.0533976,47.8007485 53.5324239,45.3217222 53.5324239,42.2746858 L53.5324239,41.2403045 C53.9843734,41.4094508 54.4735447,41.5024366 54.9844859,41.5024366 L55.8133919,41.5024366 C58.1023948,41.5024366 59.9579904,39.646841 59.9579904,37.357838 L59.9579904,10.1418399 C59.9580591,7.85283693 58.1024634,5.99730996 55.8135292,5.99730996 Z M6.35503735,37.357838 C6.35503735,38.1208161 5.73648257,38.7393709 4.97350448,38.7393709 L4.14459855,38.7393709 C3.38162046,38.7393709 2.76306568,38.1208161 2.76306568,37.357838 L2.76306568,10.1418399 C2.76306568,9.37886177 3.38162046,8.76030699 4.14459855,8.76030699 L4.97350455,8.76030699 C5.73648264,8.76030699 6.35503742,9.37886177 6.35503742,10.1418399 L6.35503735,37.357838 Z M12.0867814,45.0376829 L11.9486075,45.0376829 C10.425055,45.0376829 9.1855418,43.7982384 9.1855418,42.2746171 L9.18554187,5.52606277 C9.18554187,4.00251023 10.4250551,2.76299703 11.9486076,2.76299703 L12.0867815,2.76299703 C13.6102654,2.76299703 14.8498472,4.00251023 14.8498472,5.52606277 L14.8498472,42.2746171 C14.8498472,43.7982383 13.610334,45.0376829 12.0867814,45.0376829 Z M42.274617,25.4767378 L17.6128442,25.4767378 L17.6128442,22.4373931 L42.2745483,22.4373931 L42.2745483,25.4767378 L42.274617,25.4767378 Z M50.7694268,42.2746171 C50.7694268,43.7981697 49.5299823,45.0376829 48.0063611,45.0376829 L47.8681872,45.0376829 C46.3446346,45.0376829 45.1051214,43.7982384 45.1051214,42.2746171 L45.1051215,5.52606277 C45.1051215,4.00251023 46.344566,2.76299703 47.8681872,2.76299703 L48.0063611,2.76299703 C49.5299137,2.76299703 50.7694269,4.00251023 50.7694269,5.52606277 L50.7694268,42.2746171 Z M57.195062,37.357838 C57.195062,38.1208161 56.5765073,38.7393709 55.8135292,38.7393709 L54.9846232,38.7393709 C54.2216451,38.7393709 53.6030903,38.1208161 53.6030903,37.357838 L53.6030904,10.1418399 C53.6030904,9.37886177 54.2216451,8.76030699 54.9846232,8.76030699 L55.8135292,8.76030699 C56.5765073,8.76030699 57.1950621,9.37886177 57.1950621,10.1418399 L57.195062,37.357838 Z" id="Shape" fill="#5F4E56"></path>
                    <path d="M57.195062,37.357838 C57.195062,38.1208161 56.5765073,38.7393709 55.8135292,38.7393709 L54.9846232,38.7393709 C54.2216451,38.7393709 53.6030903,38.1208161 53.6030903,37.357838 L53.6030904,10.1418399 C53.6030904,9.37886177 54.2216451,8.76030699 54.9846232,8.76030699 L55.8135292,8.76030699 C56.5765073,8.76030699 57.1950621,9.37886177 57.1950621,10.1418399 L57.195062,37.357838 Z" id="Path" fill="#BBAA9C"></path>
                    <path d="M50.7694268,42.2746171 C50.7694268,43.7981697 49.5299823,45.0376829 48.0063611,45.0376829 L47.8681872,45.0376829 C46.3446346,45.0376829 45.1051214,43.7982384 45.1051214,42.2746171 L45.1051215,5.52606277 C45.1051215,4.00251023 46.344566,2.76299703 47.8681872,2.76299703 L48.0063611,2.76299703 C49.5299137,2.76299703 50.7694269,4.00251023 50.7694269,5.52606277 L50.7694268,42.2746171 Z" id="Path" fill="#F0EEE2"></path>
                    <polygon id="Path" fill="#F0EEE2" points="42.274617 25.4767378 17.6128442 25.4767378 17.6128442 22.4373931 42.2745483 22.4373931 42.2745483 25.4767378"></polygon>
                    <path d="M12.0867814,45.0376829 L11.9486075,45.0376829 C10.425055,45.0376829 9.1855418,43.7982384 9.1855418,42.2746171 L9.18554187,5.52606277 C9.18554187,4.00251023 10.4250551,2.76299703 11.9486076,2.76299703 L12.0867815,2.76299703 C13.6102654,2.76299703 14.8498472,4.00251023 14.8498472,5.52606277 L14.8498472,42.2746171 C14.8498472,43.7982383 13.610334,45.0376829 12.0867814,45.0376829 Z" id="Path" fill="#F0EEE2"></path>
                    <path d="M6.35503735,37.357838 C6.35503735,38.1208161 5.73648257,38.7393709 4.97350448,38.7393709 L4.14459855,38.7393709 C3.38162046,38.7393709 2.76306568,38.1208161 2.76306568,37.357838 L2.76306568,10.1418399 C2.76306568,9.37886177 3.38162046,8.76030699 4.14459855,8.76030699 L4.97350455,8.76030699 C5.73648264,8.76030699 6.35503742,9.37886177 6.35503742,10.1418399 L6.35503735,37.357838 Z" id="Path" fill="#BBAA9C"></path>
                </g>
            </g>
        </g>
    </g>
</svg>