<?xml version="1.0" encoding="UTF-8" standalone="no"?>
<svg width="80px" height="80px" viewBox="0 0 80 80" version="1.1" xmlns="http://www.w3.org/2000/svg" xmlns:xlink="http://www.w3.org/1999/xlink">
    <!-- Generator: Sketch 40 (33762) - http://www.bohemiancoding.com/sketch -->
    <title>nav_work</title>
    <desc>Created with Sketch.</desc>
    <defs></defs>
    <g id="Page-1" stroke="none" stroke-width="1" fill="none" fill-rule="evenodd">
        <g id="nav_work">
            <g id="meizhuang">
                <g id="Toolbox" transform="translate(11.000000, 14.000000)">
                    <g id="Group">
                        <path d="M3.62474299,11.6887889 L54.3711448,11.6887889 C55.3744737,11.6887889 56.1806165,12.5616681 56.1806165,13.6340627 L56.1806165,48.7051054 C56.1806165,49.7837348 55.3686741,50.6503792 54.3711448,50.6503792 L3.62474299,50.6503792 C2.62141413,50.6503792 1.81527129,49.7775 1.81527129,48.7051054 L1.81527129,13.6402975 C1.8094717,12.5616681 2.62141413,11.6887889 3.62474299,11.6887889 Z" id="Shape" fill="#F0EEE2"></path>
                        <polygon id="Shape" fill="#BBAA9C" points="3.62474299 13.6402975 3.62474299 28.2485559 25.3732009 28.2485559 25.3732009 27.275919 32.6226869 27.275919 32.6226869 28.2485559 54.3711448 28.2485559 54.3711448 13.6402975"></polygon>
                        <path d="M54.3711448,9.74351502 L41.6874442,9.74351502 L41.6874442,3.90145866 C41.6874442,1.75043471 40.0635593,0.00467613903 38.0627012,0.00467613903 L19.9389862,0.00467613903 C17.9381281,0.00467613903 16.3142432,1.75043471 16.3142432,3.90145866 L16.3142432,9.74974987 L3.62474299,9.74974987 C1.62388486,9.74351502 0,11.4892736 0,13.6402975 L0,48.7113403 C0,50.8623642 1.62388486,52.6081228 3.62474299,52.6081228 L54.3711448,52.6081228 C56.372003,52.6081228 57.9958878,50.8623642 57.9958878,48.7113403 L57.9958878,13.6402975 C57.9958878,11.4892736 56.372003,9.74351502 54.3711448,9.74351502 Z M19.9389862,3.89522381 L38.0627012,3.89522381 L38.0627012,9.74351502 L19.9389862,9.74351502 L19.9389862,3.89522381 Z M54.3769444,48.7051054 L3.6189434,48.7051054 L3.6189434,30.2000646 L23.5637292,30.2000646 L23.5637292,31.1789363 C23.5637292,32.2575657 24.3756717,33.1242102 25.3732009,33.1242102 L32.6226869,33.1242102 C33.6260158,33.1242102 34.4321586,32.2513309 34.4321586,31.1789363 L34.4321586,30.2000646 L54.3769444,30.2000646 L54.3769444,48.7051054 Z M25.3790005,31.1664666 L25.3790005,27.2634492 L32.6168873,27.2634492 L32.6168873,31.1664666 L25.3790005,31.1664666 Z M54.3769444,28.242321 L34.4379582,28.242321 L34.4379582,27.275919 C34.4379582,26.1972896 33.6260158,25.3306451 32.6284865,25.3306451 L25.3790005,25.3306451 C24.3756717,25.3306451 23.5695288,26.2035244 23.5695288,27.275919 L23.5695288,28.242321 L3.6189434,28.242321 L3.6189434,13.6340627 L54.3769444,13.6340627 L54.3769444,28.242321 L54.3769444,28.242321 Z" id="Shape" fill="#5F4E56"></path>
                    </g>
                </g>
            </g>
        </g>
    </g>
</svg>