<?xml version="1.0" encoding="UTF-8" standalone="no"?>
<svg width="80px" height="80px" viewBox="0 0 80 80" version="1.1" xmlns="http://www.w3.org/2000/svg" xmlns:xlink="http://www.w3.org/1999/xlink">
    <!-- Generator: Sketch 40 (33762) - http://www.bohemiancoding.com/sketch -->
    <title>nav_life</title>
    <desc>Created with Sketch.</desc>
    <defs></defs>
    <g id="Page-1" stroke="none" stroke-width="1" fill="none" fill-rule="evenodd">
        <g id="nav_life">
            <g id="zhaopin">
                <g id="Cup" transform="translate(14.000000, 18.000000)">
                    <g id="Group">
                        <path d="M1.9968,1.9968 L1.9968,21.9968 C1.9968,35.2512 12.7424,45.9968 25.9968,45.9968 C39.2512,45.9968 49.9968,35.2512 49.9968,21.9968 L49.9968,1.9968 L1.9968,1.9968 L1.9968,1.9968 Z" id="Shape" fill="#F0EEE2"></path>
                        <polygon id="Shape" fill="#BBAA9C" points="4 4 48 4 48 8 4 8"></polygon>
                        <path d="M52,8 L52,4 C52,1.792 50.208,0 48,0 L4,0 C1.792,0 0,1.792 0,4 L0,24 C0,37.2544 10.7456,48 24,48 L28,48 C38.4512,48 47.3408,41.3248 50.6368,32 L52,32 C58.624,32 64,26.624 64,20 C64,13.376 58.624,8 52,8 Z M48,24 C48,35.0464 39.0464,44 28,44 L24,44 C12.9536,44 4,35.0464 4,24 L4,9.9968 L48,9.9968 L48,24 Z M48,8 L4,8 L4,4 L48,4 L48,8 Z M52,28 L51.6672,28 C51.8912,26.6752 52,25.3376 52,24 L52,12 C56.416,12 60,15.584 60,20 C60,24.416 56.416,28 52,28 Z" id="Shape" fill="#5F4E56"></path>
                    </g>
                </g>
            </g>
        </g>
    </g>
</svg>