<?xml version="1.0" encoding="UTF-8" standalone="no"?>
<svg width="80px" height="80px" viewBox="0 0 80 80" version="1.1" xmlns="http://www.w3.org/2000/svg" xmlns:xlink="http://www.w3.org/1999/xlink">
    <!-- Generator: Sketch 40 (33762) - http://www.bohemiancoding.com/sketch -->
    <title>nav_recommend</title>
    <desc>Created with Sketch.</desc>
    <defs></defs>
    <g id="Page-1" stroke="none" stroke-width="1" fill="none" fill-rule="evenodd">
        <g id="nav_recommend">
            <g id="Pentagram" transform="translate(10.000000, 10.000000)">
                <g id="Group">
                    <path d="M57.6220812,24.99 C58.0476656,24.516 58.1795368,23.85 57.9697417,23.214 C57.8798295,22.95 57.5981046,22.314 56.8608246,22.164 L42.0972422,19.206 C40.574729,18.9 39.2739993,17.916 38.524731,16.5 L31.2178666,2.682 C30.8342412,1.956 30.2228383,1.878 29.9710842,1.878 C29.71933,1.878 29.1139212,1.956 28.7243017,2.682 L21.4234315,16.5 C20.6741632,17.916 19.3734334,18.9 17.8509203,19.206 L3.08733781,22.164 C2.35005781,22.314 2.06833294,22.944 1.97842074,23.214 C1.76862562,23.85 1.89450269,24.516 2.32608123,24.99 L12.5281183,36.354 C13.5890822,37.542 14.0865964,39.138 13.8887895,40.716 L12.0306042,56.226 C11.9466861,56.94 12.2523876,57.408 12.4442003,57.624 C12.719931,57.936 13.0975622,58.116 13.4691993,58.116 C13.6670061,58.116 13.8648129,58.068 14.0386432,57.978 L27.75325,51.27 C29.1498861,50.586 30.7862881,50.586 32.1829242,51.27 L45.9095193,57.984 C46.0893437,58.074 46.2811564,58.122 46.4789632,58.122 C46.8506003,58.122 47.2222373,57.942 47.5039622,57.63 C47.6957749,57.414 48.0014764,56.946 47.9175583,56.232 L46.0593729,40.722 C45.8615661,39.138 46.3590803,37.548 47.4200442,36.354 L57.6220812,24.99 L57.6220812,24.99 Z" id="Shape" fill="#F0EEE2"></path>
                    <path d="M29.9710842,42.186 C21.1896598,42.186 14.0686139,48.06 14.0686139,55.314 C14.0686139,56.16 14.1705144,57 14.3683212,57.822 L27.75325,51.27 C29.1498861,50.586 30.7862881,50.586 32.1829242,51.27 L45.5798412,57.822 C45.7776481,57 45.8795485,56.154 45.8795485,55.314 C45.8795485,48.066 38.7585027,42.186 29.9710842,42.186 L29.9710842,42.186 Z" id="Shape" fill="#BBAA9C"></path>
                    <path d="M59.0187173,26.244 C60.8409378,24.216 59.8219329,20.844 57.2264676,20.328 L42.4628851,17.37 C41.4978276,17.178 40.6586471,16.536 40.1791154,15.624 L32.872251,1.806 C32.2368715,0.6 31.1039778,0 29.9710842,0 C28.8381905,0 27.7052968,0.6 27.0699173,1.806 L19.7630529,15.624 C19.2835212,16.536 18.4443407,17.172 17.4792832,17.37 L2.71570074,20.328 C0.120235376,20.85 -0.898769502,24.216 0.923450985,26.244 L11.1254881,37.608 C11.8268032,38.4 12.1504871,39.45 12.0186159,40.5 L10.1604305,56.01 C9.89668806,58.23 11.5630607,60 13.457211,60 C13.9427368,60 14.4162744,59.886 14.8538471,59.67 L28.5804422,52.956 C29.4555876,52.524 30.4865807,52.524 31.3617261,52.956 L45.0823271,59.67 C45.5139056,59.886 45.9934373,60 46.4789632,60 C48.3791076,60 50.0454803,58.23 49.7757437,56.01 L47.9175583,40.5 C47.7856871,39.456 48.1153651,38.4 48.8106861,37.608 L59.0187173,26.244 L59.0187173,26.244 Z M29.9710842,48.882 C28.9161144,48.882 27.8791271,49.128 26.932052,49.59 L15.0096949,55.422 L15.0096949,55.314 C15.0096949,48.582 21.7111505,43.128 29.9770783,43.128 C38.2430061,43.128 44.9444617,48.582 44.9444617,55.314 L44.9444617,55.428 L33.0161105,49.59 C32.0690354,49.122 31.0260539,48.882 29.9710842,48.882 L29.9710842,48.882 Z M46.0234081,35.1 C44.6027954,36.69 43.9374451,38.82 44.1951934,40.938 L45.1962159,49.29 C42.4928559,44.538 36.6965164,41.25 29.9710842,41.25 C23.245652,41.25 17.4373242,44.544 14.7399583,49.308 L15.7409807,40.938 C15.998729,38.82 15.3333788,36.69 13.9127661,35.1 L3.87856513,23.916 L18.2165632,21.042 C20.296532,20.628 22.0707993,19.29 23.0778159,17.376 L29.9710842,4.338 L36.8643524,17.376 C37.8773632,19.29 39.6516305,20.628 41.7256051,21.042 L56.0636032,23.916 L46.0234081,35.1 Z" id="Shape" fill="#5F4E56"></path>
                </g>
            </g>
        </g>
    </g>
</svg>