<?xml version="1.0" encoding="UTF-8" standalone="no"?>
<svg width="80px" height="80px" viewBox="0 0 80 80" version="1.1" xmlns="http://www.w3.org/2000/svg" xmlns:xlink="http://www.w3.org/1999/xlink">
    <!-- Generator: Sketch 40 (33762) - http://www.bohemiancoding.com/sketch -->
    <title>nav_baby</title>
    <desc>Created with Sketch.</desc>
    <defs></defs>
    <g id="Page-1" stroke="none" stroke-width="1" fill="none" fill-rule="evenodd">
        <g id="nav_baby">
            <g id="xingzuo">
                <g id="奶瓶" transform="translate(16.000000, 10.000000)">
                    <g id="Group">
                        <path d="M44.2303665,52.4481675 C44.2303665,54.3706806 42.6722513,55.9162304 40.7623037,55.9162304 L7.48900524,55.9162304 C5.56649215,55.9162304 4.02094241,54.3581152 4.02094241,52.4481675 L4.02094241,30.1068063 C4.02094241,28.1842932 5.57905759,26.6387435 7.48900524,26.6387435 L40.7623037,26.6387435 C42.6848168,26.6387435 44.2303665,28.1968586 44.2303665,30.1068063 L44.2303665,52.4481675 L44.2303665,52.4481675 Z" id="Path" fill="#F0EEE2"></path>
                        <path d="M13.0429319,11.434555 L19.0994764,11.434555 C20.2052356,11.434555 21.1099476,10.5298429 21.1099476,9.42408377 L21.1099476,6.97382199 C21.1099476,5.37801047 22.4670157,4.03350785 24.0753927,4.02094241 C25.6963351,4.03350785 27.0157068,5.35287958 27.0157068,6.97382199 L27.0157068,9.42408377 C27.0157068,10.5298429 27.9204188,11.434555 29.026178,11.434555 L35.1204188,11.434555 C38.1989529,11.434555 40.7120419,13.9099476 40.7120419,16.9633508 C40.7120419,20.0167539 38.1989529,22.4921466 35.1204188,22.4921466 L13.0429319,22.4921466 C9.93926702,22.4921466 7.41361257,20.0167539 7.41361257,16.9633508 C7.41361257,13.9099476 9.93926702,11.434555 13.0429319,11.434555 Z" id="Path" fill="#BBAA9C"></path>
                        <path d="M42.6596859,22.8439791 C43.9413613,21.2230366 44.7329843,19.1874346 44.7329843,16.9759162 C44.7329843,11.7109948 40.4230366,7.42617801 35.1204188,7.42617801 L31.0366492,7.42617801 L31.0366492,6.98638743 C31.0366492,3.16649215 27.9455497,0.0628272251 24.1382199,0.012565445 L24.0251309,0.012565445 C20.1926702,0.0376963351 17.0890052,3.1539267 17.0890052,6.97382199 L17.0890052,7.41361257 L13.0429319,7.41361257 C7.72774869,7.41361257 3.39267016,11.6984293 3.39267016,16.9633508 C3.39267016,19.1748691 4.17172775,21.2230366 5.46596859,22.8439791 C2.31204188,23.7235602 0,26.626178 0,30.0565445 L0,52.4230366 C0,56.5445026 3.32984293,59.9371728 7.46387435,59.9371728 L40.6994764,59.9371728 C44.8335079,59.9371728 48.1256545,56.5445026 48.1256545,52.4230366 L48.1256545,30.0565445 C48.1256545,26.6136126 45.826178,23.7109948 42.6596859,22.8439791 L42.6596859,22.8439791 Z M13.0429319,11.434555 L19.0994764,11.434555 C20.2052356,11.434555 21.1099476,10.5298429 21.1099476,9.42408377 L21.1099476,6.97382199 C21.1099476,5.37801047 22.4670157,4.03350785 24.0753927,4.02094241 C25.6963351,4.03350785 27.0157068,5.35287958 27.0157068,6.97382199 L27.0157068,9.42408377 C27.0157068,10.5298429 27.9204188,11.434555 29.026178,11.434555 L35.1204188,11.434555 C38.1989529,11.434555 40.7120419,13.9099476 40.7120419,16.9633508 C40.7120419,20.0167539 38.1989529,22.4921466 35.1204188,22.4921466 L13.0429319,22.4921466 C9.93926702,22.4921466 7.41361257,20.0167539 7.41361257,16.9633508 C7.41361257,13.9099476 9.93926702,11.434555 13.0429319,11.434555 Z M44.2303665,52.4481675 C44.2303665,54.3706806 42.6722513,55.9162304 40.7623037,55.9162304 L7.48900524,55.9162304 C5.56649215,55.9162304 4.02094241,54.3581152 4.02094241,52.4481675 L4.02094241,30.1068063 C4.02094241,28.1842932 5.57905759,26.6387435 7.48900524,26.6387435 L40.7623037,26.6387435 C42.6848168,26.6387435 44.2303665,28.1968586 44.2303665,30.1068063 L44.2303665,52.4481675 L44.2303665,52.4481675 Z" id="Shape" fill="#5F4E56"></path>
                        <path d="M10.9445026,35.0575916 L16.5863874,35.0575916 C17.6921466,35.0575916 18.5968586,34.1528796 18.5968586,33.0471204 C18.5968586,31.9413613 17.6921466,31.0366492 16.5863874,31.0366492 L10.9445026,31.0366492 C9.83874346,31.0366492 8.93403141,31.9413613 8.93403141,33.0471204 C8.93403141,34.1528796 9.83874346,35.0575916 10.9445026,35.0575916 Z M22.4921466,38.8272251 L10.9570681,38.8272251 C9.8513089,38.8272251 8.94659686,39.7319372 8.94659686,40.8376963 C8.94659686,41.9434555 9.8513089,42.8481675 10.9570681,42.8481675 L22.4921466,42.8481675 C23.5979058,42.8481675 24.5026178,41.9434555 24.5026178,40.8376963 C24.5026178,39.7319372 23.5979058,38.8272251 22.4921466,38.8272251 Z M16.5989529,46.8691099 L10.9570681,46.8691099 C9.8513089,46.8691099 8.94659686,47.773822 8.94659686,48.8795812 C8.94659686,49.9853403 9.8513089,50.8900524 10.9570681,50.8900524 L16.5989529,50.8900524 C17.704712,50.8900524 18.6094241,49.9853403 18.6094241,48.8795812 C18.6094241,47.773822 17.704712,46.8691099 16.5989529,46.8691099 Z" id="Shape" fill="#5F4E56"></path>
                    </g>
                </g>
            </g>
        </g>
    </g>
</svg>