<?xml version="1.0" encoding="UTF-8" standalone="no"?>
<svg width="80px" height="80px" viewBox="0 0 80 80" version="1.1" xmlns="http://www.w3.org/2000/svg" xmlns:xlink="http://www.w3.org/1999/xlink">
    <!-- Generator: Sketch 40 (33762) - http://www.bohemiancoding.com/sketch -->
    <title>nav_financing</title>
    <desc>Created with Sketch.</desc>
    <defs></defs>
    <g id="Page-1" stroke="none" stroke-width="1" fill="none" fill-rule="evenodd">
        <g id="nav_financing">
            <g id="meizhuang">
                <g id="Bargraph" transform="translate(10.000000, 10.000000)">
                    <g id="Group">
                        <path d="M11.25,28.128 L3.75,28.128 C2.712,28.128 1.878,28.968 1.878,30 L1.878,56.25 C1.878,57.288 2.718,58.122 3.75,58.122 L11.25,58.122 C12.288,58.122 13.122,57.282 13.122,56.25 L13.122,30 C13.128,28.962 12.288,28.128 11.25,28.128 Z M33.75,1.872 L26.25,1.872 C25.212,1.872 24.378,2.712 24.378,3.744 L24.378,56.244 C24.378,57.282 25.218,58.116 26.25,58.116 L33.75,58.116 C34.788,58.116 35.622,57.276 35.622,56.244 L35.622,3.744 C35.628,2.712 34.788,1.872 33.75,1.872 L33.75,1.872 Z M56.25,13.128 L48.75,13.128 C47.712,13.128 46.878,13.968 46.878,15 L46.878,56.25 C46.878,57.288 47.718,58.122 48.75,58.122 L56.25,58.122 C57.288,58.122 58.122,57.282 58.122,56.25 L58.122,15 C58.128,13.962 57.288,13.128 56.25,13.128 Z" id="Shape" fill="#F0EEE2"></path>
                        <path d="M3.75,35.628 L11.25,35.628 L11.25,30 L3.75,30 L3.75,35.628 Z M26.25,9.372 L33.75,9.372 L33.75,3.75 L26.25,3.75 L26.25,9.372 Z M48.75,15 L48.75,20.628 L56.25,20.628 L56.25,15 L48.75,15 Z" id="Shape" fill="#BBAA9C"></path>
                        <path d="M56.25,11.25 L48.75,11.25 C46.68,11.25 45,12.93 45,15 L45,56.25 C45,58.32 46.68,60 48.75,60 L56.25,60 C58.32,60 60,58.32 60,56.25 L60,15 C60,12.93 58.32,11.25 56.25,11.25 Z M56.25,20.628 L48.75,20.628 L48.75,22.5 L56.25,22.5 L56.25,56.25 L48.75,56.25 L48.75,15 L56.25,15 L56.25,20.628 Z M33.75,0 L26.25,0 C24.18,0 22.5,1.68 22.5,3.75 L22.5,56.25 C22.5,58.32 24.18,60 26.25,60 L33.75,60 C35.82,60 37.5,58.32 37.5,56.25 L37.5,3.75 C37.5,1.68 35.82,0 33.75,0 Z M33.75,56.25 L26.25,56.25 L26.25,11.25 L33.75,11.25 L33.75,9.378 L26.25,9.378 L26.25,3.75 L33.75,3.75 L33.75,56.25 Z M11.25,26.25 L3.75,26.25 C1.68,26.25 0,27.93 0,30 L0,56.25 C0,58.32 1.68,60 3.75,60 L11.25,60 C13.32,60 15,58.32 15,56.25 L15,30 C15,27.93 13.32,26.25 11.25,26.25 Z M11.25,56.25 L3.75,56.25 L3.75,37.5 L11.25,37.5 L11.25,56.25 Z M11.25,35.628 L3.75,35.628 L3.75,30 L11.25,30 L11.25,35.628 Z" id="Shape" fill="#5F4E56"></path>
                    </g>
                </g>
            </g>
        </g>
    </g>
</svg>