<?xml version="1.0" encoding="UTF-8" standalone="no"?>
<svg width="44px" height="44px" viewBox="0 0 44 44" version="1.1" xmlns="http://www.w3.org/2000/svg" xmlns:xlink="http://www.w3.org/1999/xlink">
    <!-- Generator: Sketch 40 (33762) - http://www.bohemiancoding.com/sketch -->
    <title>tab_home_selected</title>
    <desc>Created with Sketch.</desc>
    <defs></defs>
    <g id="Page-1" stroke="none" stroke-width="1" fill="none" fill-rule="evenodd" stroke-linecap="round" stroke-linejoin="round">
        <g id="tab_home_selected" stroke="#5F4E56" stroke-width="4" fill="#FFEFB0">
            <path d="M6,39.4413555 C6,39.9949998 6.4556644,40.4438172 6.99539757,40.4438172 L15.0046024,40.4438172 C15.5543453,40.4438172 16,39.9963278 16,39.4453149 L16,31.4503217 C16,29.2375904 17.7965212,27.4438172 19.9958262,27.4438172 L24.0041738,27.4438172 C26.2110077,27.4438172 28,29.2377627 28,31.4503217 L28,39.4453149 C28,39.9967725 28.4556644,40.4438172 28.9953976,40.4438172 L37.0046024,40.4438172 C37.5543453,40.4438172 38,40.0043588 38,39.4413555 L38,19.4462789 C38,18.8926346 37.6946659,18.1193997 37.3125,17.7133484 L26.1100052,5.81069768 C23.840112,3.39893617 20.1645966,3.39393334 17.8899948,5.81069768 L6.6875,17.7133484 C6.30780423,18.1167752 6,18.8832755 6,19.4462789 L6,39.4413555 Z" id="Path-6"></path>
        </g>
    </g>
</svg>